{
.appVersion = "118";
DisplayStrings = (
"thne/space quwovoaick/space brtfown/space sfceox/space juargsmoparftls/space sover/space the/space flazy/space dog"
);
copyright = "Copyright © 2022 by Florian Hannich.";
date = "2024-06-21 08:12:40 +0000";
designer = "Florian Hannich";
designerURL = "https://florianhannich.com";
familyName = Base;
featurePrefixes = (
{
automatic = 1;
code = "languagesystem DFLT dflt;\012";
name = Languagesystems;
}
);
fontMaster = (
{
alignmentZones = (
"{716, 15}",
"{517, 13}",
"{0, -15}",
"{-166, -16}"
);
ascender = 775;
capHeight = 715;
descender = -166;
horizontalStems = (
62,
68
);
id = "5B3AE2B2-6F0E-4414-97DF-6676E601E692";
verticalStems = (
74,
81
);
weightValue = 400;
widthValue = 5;
xHeight = 510;
}
);
glyphs = (
{
glyphname = A;
lastChange = "2024-06-22 13:48:17 +0000";
layers = (
{
hints = (
{
horizontal = 1;
place = "{6, 21}";
target = up;
type = BottomGhost;
},
{
horizontal = 1;
place = "{226, 77}";
type = Stem;
},
{
horizontal = 1;
place = "{721, -20}";
target = down;
type = TopGhost;
},
{
place = "{11, 612}";
type = Stem;
},
{
horizontal = 1;
place = "{630, 97}";
type = Stem;
}
);
layerId = "5B3AE2B2-6F0E-4414-97DF-6676E601E692";
paths = (
{
closed = 1;
nodes = (
"617 0 LINE",
"355 715 LINE",
"273 715 LINE",
"11 0 LINE",
"92 0 LINE",
"170 220 LINE",
"458 220 LINE",
"536 0 LINE"
);
},
{
closed = 1;
nodes = (
"264 470 LINE SMOOTH",
"277 506 OFFCURVE",
"298 571 OFFCURVE",
"314 624 CURVE",
"330 571 OFFCURVE",
"351 506 OFFCURVE",
"364 470 CURVE SMOOTH",
"430 291 LINE",
"198 291 LINE"
);
}
);
width = 628;
}
);
note = A;
unicode = 0041;
},
{
glyphname = Aacute;
lastChange = "2024-06-22 13:48:17 +0000";
layers = (
{
hints = (
{
horizontal = 1;
place = "{6, 21}";
target = up;
type = BottomGhost;
},
{
horizontal = 1;
place = "{226, 77}";
type = Stem;
},
{
horizontal = 1;
place = "{721, -20}";
target = down;
type = TopGhost;
},
{
horizontal = 1;
place = "{801, 105}";
type = Stem;
},
{
place = "{11, 612}";
type = Stem;
},
{
horizontal = 1;
place = "{630, 97}";
type = Stem;
}
);
layerId = "5B3AE2B2-6F0E-4414-97DF-6676E601E692";
paths = (
{
closed = 1;
nodes = (
"342 828 LINE SMOOTH",
"377 861 OFFCURVE",
"406 894 OFFCURVE",
"406 894 CURVE SMOOTH",
"326 894 LINE SMOOTH",
"326 894 OFFCURVE",
"286 861 OFFCURVE",
"252 828 CURVE SMOOTH",
"218 795 LINE",
"309 795 LINE"
);
},
{
closed = 1;
nodes = (
"617 0 LINE",
"355 715 LINE",
"273 715 LINE",
"11 0 LINE",
"92 0 LINE",
"170 220 LINE",
"458 220 LINE",
"536 0 LINE"
);
},
{
closed = 1;
nodes = (
"264 470 LINE SMOOTH",
"277 506 OFFCURVE",
"298 571 OFFCURVE",
"314 624 CURVE",
"330 571 OFFCURVE",
"351 506 OFFCURVE",
"364 470 CURVE SMOOTH",
"430 291 LINE",
"198 291 LINE"
);
}
);
width = 628;
}
);
note = Aacute;
unicode = 00C1;
},
{
glyphname = Acircumflex;
lastChange = "2024-06-22 13:48:17 +0000";
layers = (
{
hints = (
{
horizontal = 1;
place = "{6, 21}";
target = up;
type = BottomGhost;
},
{
horizontal = 1;
place = "{226, 77}";
type = Stem;
},
{
horizontal = 1;
place = "{721, -20}";
target = down;
type = TopGhost;
},
{
horizontal = 1;
place = "{801, 105}";
type = Stem;
},
{
place = "{11, 612}";
type = Stem;
},
{
horizontal = 1;
place = "{866, 40}";
type = Stem;
},
{
horizontal = 1;
place = "{630, 97}";
type = Stem;
}
);
layerId = "5B3AE2B2-6F0E-4414-97DF-6676E601E692";
paths = (
{
closed = 1;
nodes = (
"358 795 LINE",
"421 795 LINE",
"358 894 LINE",
"275 894 LINE",
"213 795 LINE",
"275 795 LINE",
"317 860 LINE"
);
},
{
closed = 1;
nodes = (
"273 715 LINE",
"11 0 LINE",
"92 0 LINE",
"170 220 LINE",
"458 220 LINE",
"536 0 LINE",
"617 0 LINE",
"355 715 LINE"
);
},
{
closed = 1;
nodes = (
"264 470 LINE SMOOTH",
"277 506 OFFCURVE",
"298 571 OFFCURVE",
"314 624 CURVE",
"330 571 OFFCURVE",
"351 506 OFFCURVE",
"364 470 CURVE SMOOTH",
"430 291 LINE",
"198 291 LINE"
);
}
);
width = 628;
}
);
note = Acircumflex;
unicode = 00C2;
},
{
glyphname = Adieresis;
lastChange = "2024-06-22 13:48:17 +0000";
layers = (
{
hints = (
{
horizontal = 1;
place = "{6, 21}";
target = up;
type = BottomGhost;
},
{
horizontal = 1;
place = "{226, 77}";
type = Stem;
},
{
horizontal = 1;
place = "{721, -20}";
target = down;
type = TopGhost;
},
{
horizontal = 1;
place = "{797, 108}";
type = Stem;
},
{
place = "{179, 110}";
type = Stem;
},
{
place = "{373, 110}";
type = Stem;
},
{
horizontal = 1;
place = "{630, 97}";
type = Stem;
}
);
layerId = "5B3AE2B2-6F0E-4414-97DF-6676E601E692";
paths = (
{
closed = 1;
nodes = (
"179 813 OFFCURVE",
"201 791 OFFCURVE",
"231 791 CURVE SMOOTH",
"261 791 OFFCURVE",
"283 813 OFFCURVE",
"283 842 CURVE SMOOTH",
"283 871 OFFCURVE",
"261 893 OFFCURVE",
"231 893 CURVE SMOOTH",
"201 893 OFFCURVE",
"179 871 OFFCURVE",
"179 842 CURVE SMOOTH"
);
},
{
closed = 1;
nodes = (
"373 813 OFFCURVE",
"395 791 OFFCURVE",
"425 791 CURVE SMOOTH",
"455 791 OFFCURVE",
"477 813 OFFCURVE",
"477 842 CURVE SMOOTH",
"477 871 OFFCURVE",
"455 893 OFFCURVE",
"425 893 CURVE SMOOTH",
"395 893 OFFCURVE",
"373 871 OFFCURVE",
"373 842 CURVE SMOOTH"
);
},
{
closed = 1;
nodes = (
"617 0 LINE",
"355 715 LINE",
"273 715 LINE",
"11 0 LINE",
"92 0 LINE",
"170 220 LINE",
"458 220 LINE",
"536 0 LINE"
);
},
{
closed = 1;
nodes = (
"264 470 LINE SMOOTH",
"277 506 OFFCURVE",
"298 571 OFFCURVE",
"314 624 CURVE",
"330 571 OFFCURVE",
"351 506 OFFCURVE",
"364 470 CURVE SMOOTH",
"430 291 LINE",
"198 291 LINE"
);
}
);
width = 628;
}
);
note = Adieresis;
unicode = 00C4;
},
{
glyphname = Agrave;
lastChange = "2024-06-22 13:48:17 +0000";
layers = (
{
hints = (
{
horizontal = 1;
place = "{6, 21}";
target = up;
type = BottomGhost;
},
{
horizontal = 1;
place = "{226, 77}";
type = Stem;
},
{
horizontal = 1;
place = "{721, -20}";
target = down;
type = TopGhost;
},
{
horizontal = 1;
place = "{801, 105}";
type = Stem;
},
{
place = "{11, 612}";
type = Stem;
},
{
horizontal = 1;
place = "{630, 97}";
type = Stem;
}
);
layerId = "5B3AE2B2-6F0E-4414-97DF-6676E601E692";
paths = (
{
closed = 1;
nodes = (
"413 795 LINE",
"379 828 LINE SMOOTH",
"345 861 OFFCURVE",
"305 894 OFFCURVE",
"305 894 CURVE SMOOTH",
"225 894 LINE SMOOTH",
"225 894 OFFCURVE",
"254 861 OFFCURVE",
"289 828 CURVE SMOOTH",
"322 795 LINE"
);
},
{
closed = 1;
nodes = (
"617 0 LINE",
"355 715 LINE",
"273 715 LINE",
"11 0 LINE",
"92 0 LINE",
"170 220 LINE",
"458 220 LINE",
"536 0 LINE"
);
},
{
closed = 1;
nodes = (
"264 470 LINE SMOOTH",
"277 506 OFFCURVE",
"298 571 OFFCURVE",
"314 624 CURVE",
"330 571 OFFCURVE",
"351 506 OFFCURVE",
"364 470 CURVE SMOOTH",
"430 291 LINE",
"198 291 LINE"
);
}
);
width = 628;
}
);
note = Agrave;
unicode = 00C0;
},
{
glyphname = Aring;
lastChange = "2024-06-22 13:48:17 +0000";
layers = (
{
hints = (
{
horizontal = 1;
place = "{6, 21}";
target = up;
type = BottomGhost;
},
{
horizontal = 1;
place = "{226, 77}";
type = Stem;
},
{
horizontal = 1;
place = "{721, -20}";
target = down;
type = TopGhost;
},
{
horizontal = 1;
place = "{803, 42}";
type = Stem;
},
{
horizontal = 1;
place = "{887, 42}";
type = Stem;
},
{
place = "{251, 44}";
type = Stem;
},
{
place = "{337, 44}";
type = Stem;
},
{
horizontal = 1;
place = "{630, 97}";
type = Stem;
}
);
layerId = "5B3AE2B2-6F0E-4414-97DF-6676E601E692";
paths = (
{
closed = 1;
nodes = (
"348 797 OFFCURVE",
"375 823 OFFCURVE",
"375 857 CURVE SMOOTH",
"375 891 OFFCURVE",
"348 917 OFFCURVE",
"313 917 CURVE SMOOTH",
"278 917 OFFCURVE",
"251 891 OFFCURVE",
"251 857 CURVE SMOOTH",
"251 823 OFFCURVE",
"278 797 OFFCURVE",
"313 797 CURVE SMOOTH"
);
},
{
closed = 1;
nodes = (
"299 833 OFFCURVE",
"289 844 OFFCURVE",
"289 857 CURVE SMOOTH",
"289 871 OFFCURVE",
"299 881 OFFCURVE",
"313 881 CURVE SMOOTH",
"327 881 OFFCURVE",
"337 871 OFFCURVE",
"337 857 CURVE SMOOTH",
"337 844 OFFCURVE",
"327 833 OFFCURVE",
"313 833 CURVE SMOOTH"
);
},
{
closed = 1;
nodes = (
"617 0 LINE",
"355 715 LINE",
"273 715 LINE",
"11 0 LINE",
"92 0 LINE",
"170 220 LINE",
"458 220 LINE",
"536 0 LINE"
);
},
{
closed = 1;
nodes = (
"264 470 LINE SMOOTH",
"277 506 OFFCURVE",
"298 571 OFFCURVE",
"314 624 CURVE",
"330 571 OFFCURVE",
"351 506 OFFCURVE",
"364 470 CURVE SMOOTH",
"430 291 LINE",
"198 291 LINE"
);
}
);
width = 628;
}
);
note = Aring;
unicode = 00C5;
},
{
glyphname = Atilde;
lastChange = "2024-06-22 13:48:17 +0000";
layers = (
{
hints = (
{
horizontal = 1;
place = "{6, 21}";
target = up;
type = BottomGhost;
},
{
horizontal = 1;
place = "{226, 77}";
type = Stem;
},
{
horizontal = 1;
place = "{721, -20}";
target = down;
type = TopGhost;
},
{
place = "{11, 612}";
type = Stem;
},
{
horizontal = 1;
place = "{630, 97}";
type = Stem;
}
);
layerId = "5B3AE2B2-6F0E-4414-97DF-6676E601E692";
paths = (
{
closed = 1;
nodes = (
"617 0 LINE",
"355 715 LINE",
"273 715 LINE",
"11 0 LINE",
"92 0 LINE",
"170 220 LINE",
"458 220 LINE",
"536 0 LINE"
);
},
{
closed = 1;
nodes = (
"264 470 LINE SMOOTH",
"277 506 OFFCURVE",
"298 571 OFFCURVE",
"314 624 CURVE",
"330 571 OFFCURVE",
"351 506 OFFCURVE",
"364 470 CURVE SMOOTH",
"430 291 LINE",
"198 291 LINE"
);
}
);
width = 628;
}
);
note = Atilde;
unicode = 00C3;
},
{
glyphname = AE;
lastChange = "2024-06-22 13:48:17 +0000";
layers = (
{
hints = (
{
horizontal = 1;
place = "{7, 77}";
type = Stem;
},
{
horizontal = 1;
place = "{226, 77}";
type = Stem;
},
{
horizontal = 1;
place = "{331, 77}";
type = Stem;
},
{
horizontal = 1;
place = "{650, 77}";
type = Stem;
},
{
place = "{403, 91}";
type = Stem;
},
{
horizontal = 1;
place = "{651, 76}";
type = Stem;
}
);
layerId = "5B3AE2B2-6F0E-4414-97DF-6676E601E692";
paths = (
{
closed = 1;
nodes = (
"588 72 LINE SMOOTH",
"555 72 OFFCURVE",
"488 70 OFFCURVE",
"488 70 CURVE",
"488 326 LINE",
"488 326 OFFCURVE",
"555 325 OFFCURVE",
"588 325 CURVE SMOOTH",
"844 325 LINE",
"844 396 LINE",
"588 396 LINE SMOOTH",
"555 396 OFFCURVE",
"488 395 OFFCURVE",
"488 395 CURVE",
"488 645 LINE",
"488 645 OFFCURVE",
"555 644 OFFCURVE",
"588 644 CURVE SMOOTH",
"854 644 LINE",
"854 715 LINE",
"273 715 LINE",
"11 0 LINE",
"92 0 LINE",
"170 220 LINE",
"403 220 LINE",
"403 1 LINE",
"864 1 LINE",
"864 72 LINE"
);
},
{
closed = 1;
nodes = (
"264 470 LINE SMOOTH",
"277 506 OFFCURVE",
"305 592 OFFCURVE",
"321 645 CURVE",
"403 645 LINE",
"403 291 LINE",
"198 291 LINE"
);
}
);
width = 912;
}
);
note = AE;
unicode = 00C6;
},
{
glyphname = B;
lastChange = "2024-06-22 13:48:17 +0000";
layers = (
{
hints = (
{
horizontal = 1;
place = "{6, 80}";
type = Stem;
},
{
horizontal = 1;
place = "{347, 81}";
type = Stem;
},
{
horizontal = 1;
place = "{647, 80}";
type = Stem;
},
{
place = "{81, 91}";
type = Stem;
},
{
place = "{531, 91}";
type = Stem;
},
{
place = "{505, 91}";
type = Stem;
}
);
layerId = "5B3AE2B2-6F0E-4414-97DF-6676E601E692";
paths = (
{
closed = 1;
nodes = (
"413 0 LINE SMOOTH",
"543 0 OFFCURVE",
"616 94 OFFCURVE",
"616 208 CURVE SMOOTH",
"616 300 OFFCURVE",
"565 359 OFFCURVE",
"482 381 CURVE",
"549 404 OFFCURVE",
"590 457 OFFCURVE",
"590 531 CURVE SMOOTH",
"590 632 OFFCURVE",
"523 715 OFFCURVE",
"409 715 CURVE SMOOTH",
"81 715 LINE",
"81 0 LINE"
);
},
{
closed = 1;
nodes = (
"166 640 LINE",
"392 641 LINE SMOOTH",
"462 641 OFFCURVE",
"505 591 OFFCURVE",
"505 528 CURVE SMOOTH",
"505 467 OFFCURVE",
"455 416 OFFCURVE",
"383 416 CURVE SMOOTH",
"166 416 LINE"
);
},
{
closed = 1;
nodes = (
"166 341 LINE",
"391 341 LINE SMOOTH",
"472 341 OFFCURVE",
"531 280 OFFCURVE",
"531 207 CURVE SMOOTH",
"531 134 OFFCURVE",
"484 74 OFFCURVE",
"400 74 CURVE SMOOTH",
"166 74 LINE"
);
}
);
width = 664;
}
);
note = B;
unicode = 0042;
},
{
glyphname = C;
lastChange = "2024-06-22 13:48:17 +0000";
layers = (
{
hints = (
{
horizontal = 1;
place = "{-9, 81}";
type = Stem;
},
{
horizontal = 1;
place = "{662, 81}";
type = Stem;
},
{
place = "{48, 94}";
type = Stem;
}
);
layerId = "5B3AE2B2-6F0E-4414-97DF-6676E601E692";
paths = (
{
closed = 1;
nodes = (
"563 -15 OFFCURVE",
"669 93 OFFCURVE",
"696 243 CURVE",
"607 243 LINE",
"589 135 OFFCURVE",
"516 60 OFFCURVE",
"395 60 CURVE SMOOTH",
"229 60 OFFCURVE",
"136 195 OFFCURVE",
"136 356 CURVE SMOOTH",
"136 519 OFFCURVE",
"226 656 OFFCURVE",
"393 656 CURVE SMOOTH",
"503 656 OFFCURVE",
"579 591 OFFCURVE",
"601 494 CURVE",
"694 494 LINE",
"661 633 OFFCURVE",
"556 731 OFFCURVE",
"391 731 CURVE SMOOTH",
"179 731 OFFCURVE",
"48 563 OFFCURVE",
"48 357 CURVE SMOOTH",
"48 152 OFFCURVE",
"179 -15 OFFCURVE",
"391 -15 CURVE SMOOTH"
);
}
);
width = 744;
}
);
note = C;
unicode = 0043;
},
{
glyphname = Ccedilla;
lastChange = "2024-06-22 13:48:17 +0000";
layers = (
{
hints = (
{
horizontal = 1;
place = "{-9, 81}";
type = Stem;
},
{
horizontal = 1;
place = "{662, 81}";
type = Stem;
},
{
place = "{48, 94}";
type = Stem;
}
);
layerId = "5B3AE2B2-6F0E-4414-97DF-6676E601E692";
paths = (
{
closed = 1;
nodes = (
"563 -15 OFFCURVE",
"669 93 OFFCURVE",
"696 243 CURVE",
"607 243 LINE",
"589 135 OFFCURVE",
"516 60 OFFCURVE",
"395 60 CURVE SMOOTH",
"229 60 OFFCURVE",
"136 195 OFFCURVE",
"136 356 CURVE SMOOTH",
"136 519 OFFCURVE",
"226 656 OFFCURVE",
"393 656 CURVE SMOOTH",
"503 656 OFFCURVE",
"579 591 OFFCURVE",
"601 494 CURVE",
"694 494 LINE",
"661 633 OFFCURVE",
"556 731 OFFCURVE",
"391 731 CURVE SMOOTH",
"179 731 OFFCURVE",
"48 563 OFFCURVE",
"48 357 CURVE SMOOTH",
"48 152 OFFCURVE",
"179 -15 OFFCURVE",
"391 -15 CURVE SMOOTH"
);
}
);
width = 744;
}
);
note = Ccedilla;
unicode = 00C7;
},
{
glyphname = D;
lastChange = "2024-06-22 13:48:17 +0000";
layers = (
{
hints = (
{
horizontal = 1;
place = "{6, 80}";
type = Stem;
},
{
horizontal = 1;
place = "{647, 81}";
type = Stem;
},
{
place = "{81, 91}";
type = Stem;
},
{
place = "{589, 94}";
type = Stem;
}
);
layerId = "5B3AE2B2-6F0E-4414-97DF-6676E601E692";
paths = (
{
closed = 1;
nodes = (
"349 0 LINE SMOOTH",
"553 0 OFFCURVE",
"677 161 OFFCURVE",
"677 358 CURVE SMOOTH",
"677 555 OFFCURVE",
"556 717 OFFCURVE",
"349 716 CURVE SMOOTH",
"81 715 LINE",
"81 0 LINE"
);
},
{
closed = 1;
nodes = (
"166 641 LINE",
"343 641 LINE SMOOTH",
"501 641 OFFCURVE",
"589 510 OFFCURVE",
"589 357 CURVE SMOOTH",
"589 206 OFFCURVE",
"498 74 OFFCURVE",
"346 74 CURVE SMOOTH",
"166 74 LINE"
);
}
);
width = 725;
}
);
note = D;
rightKerningGroup = D;
unicode = 0044;
},
{
glyphname = Eth;
lastChange = "2024-06-22 13:48:17 +0000";
layers = (
{
hints = (
{
horizontal = 1;
place = "{6, 80}";
type = Stem;
},
{
horizontal = 1;
place = "{329, 77}";
type = Stem;
},
{
horizontal = 1;
place = "{647, 81}";
type = Stem;
},
{
place = "{81, 91}";
type = Stem;
},
{
place = "{589, 94}";
type = Stem;
}
);
layerId = "5B3AE2B2-6F0E-4414-97DF-6676E601E692";
paths = (
{
closed = 1;
nodes = (
"81 715 LINE",
"81 394 LINE",
"26 394 LINE",
"26 323 LINE",
"81 323 LINE",
"81 0 LINE",
"349 0 LINE SMOOTH",
"553 0 OFFCURVE",
"677 161 OFFCURVE",
"677 358 CURVE SMOOTH",
"677 555 OFFCURVE",
"556 717 OFFCURVE",
"349 716 CURVE SMOOTH"
);
},
{
closed = 1;
nodes = (
"166 74 LINE",
"166 323 LINE",
"306 323 LINE",
"306 394 LINE",
"166 394 LINE",
"166 641 LINE",
"343 641 LINE SMOOTH",
"501 641 OFFCURVE",
"589 510 OFFCURVE",
"589 357 CURVE SMOOTH",
"589 206 OFFCURVE",
"498 74 OFFCURVE",
"346 74 CURVE SMOOTH"
);
}
);
width = 725;
}
);
note = Eth;
unicode = 00D0;
},
{
glyphname = E;
lastChange = "2024-06-22 13:48:17 +0000";
layers = (
{
hints = (
{
horizontal = 1;
place = "{7, 77}";
type = Stem;
},
{
horizontal = 1;
place = "{331, 77}";
type = Stem;
},
{
horizontal = 1;
place = "{650, 77}";
type = Stem;
},
{
place = "{81, 91}";
type = Stem;
}
);
layerId = "5B3AE2B2-6F0E-4414-97DF-6676E601E692";
paths = (
{
closed = 1;
nodes = (
"542 1 LINE",
"542 72 LINE",
"266 72 LINE SMOOTH",
"233 72 OFFCURVE",
"166 70 OFFCURVE",
"166 70 CURVE",
"166 326 LINE",
"166 326 OFFCURVE",
"233 325 OFFCURVE",
"266 325 CURVE SMOOTH",
"522 325 LINE",
"522 396 LINE",
"266 396 LINE SMOOTH",
"233 396 OFFCURVE",
"166 395 OFFCURVE",
"166 395 CURVE",
"166 645 LINE",
"166 645 OFFCURVE",
"233 644 OFFCURVE",
"266 644 CURVE SMOOTH",
"532 644 LINE",
"532 715 LINE",
"81 715 LINE",
"81 1 LINE"
);
}
);
width = 590;
}
);
note = E;
unicode = 0045;
},
{
glyphname = Eacute;
lastChange = "2024-06-22 13:48:17 +0000";
layers = (
{
hints = (
{
horizontal = 1;
place = "{7, 77}";
type = Stem;
},
{
horizontal = 1;
place = "{331, 77}";
type = Stem;
},
{
horizontal = 1;
place = "{650, 77}";
type = Stem;
},
{
horizontal = 1;
place = "{800, 105}";
type = Stem;
},
{
place = "{81, 91}";
type = Stem;
}
);
layerId = "5B3AE2B2-6F0E-4414-97DF-6676E601E692";
paths = (
{
closed = 1;
nodes = (
"338 827 LINE SMOOTH",
"373 860 OFFCURVE",
"402 893 OFFCURVE",
"402 893 CURVE SMOOTH",
"322 893 LINE SMOOTH",
"322 893 OFFCURVE",
"282 860 OFFCURVE",
"248 827 CURVE SMOOTH",
"214 794 LINE",
"305 794 LINE"
);
},
{
closed = 1;
nodes = (
"542 1 LINE",
"542 72 LINE",
"266 72 LINE SMOOTH",
"233 72 OFFCURVE",
"166 70 OFFCURVE",
"166 70 CURVE",
"166 326 LINE",
"166 326 OFFCURVE",
"233 325 OFFCURVE",
"266 325 CURVE SMOOTH",
"522 325 LINE",
"522 396 LINE",
"266 396 LINE SMOOTH",
"233 396 OFFCURVE",
"166 395 OFFCURVE",
"166 395 CURVE",
"166 645 LINE",
"166 645 OFFCURVE",
"233 644 OFFCURVE",
"266 644 CURVE SMOOTH",
"532 644 LINE",
"532 715 LINE",
"81 715 LINE",
"81 1 LINE"
);
}
);
width = 590;
}
);
note = Eacute;
unicode = 00C9;
},
{
glyphname = Ecircumflex;
lastChange = "2024-06-22 13:48:17 +0000";
layers = (
{
hints = (
{
horizontal = 1;
place = "{7, 77}";
type = Stem;
},
{
horizontal = 1;
place = "{331, 77}";
type = Stem;
},
{
horizontal = 1;
place = "{650, 77}";
type = Stem;
},
{
horizontal = 1;
place = "{801, 105}";
type = Stem;
},
{
place = "{81, 91}";
type = Stem;
},
{
horizontal = 1;
place = "{866, 40}";
type = Stem;
}
);
layerId = "5B3AE2B2-6F0E-4414-97DF-6676E601E692";
paths = (
{
closed = 1;
nodes = (
"353 795 LINE",
"416 795 LINE",
"353 894 LINE",
"270 894 LINE",
"208 795 LINE",
"270 795 LINE",
"312 860 LINE"
);
},
{
closed = 1;
nodes = (
"266 72 LINE SMOOTH",
"233 72 OFFCURVE",
"166 70 OFFCURVE",
"166 70 CURVE",
"166 326 LINE",
"166 326 OFFCURVE",
"233 325 OFFCURVE",
"266 325 CURVE SMOOTH",
"522 325 LINE",
"522 396 LINE",
"266 396 LINE SMOOTH",
"233 396 OFFCURVE",
"166 395 OFFCURVE",
"166 395 CURVE",
"166 645 LINE",
"166 645 OFFCURVE",
"233 644 OFFCURVE",
"266 644 CURVE SMOOTH",
"532 644 LINE",
"532 715 LINE",
"81 715 LINE",
"81 1 LINE",
"542 1 LINE",
"542 72 LINE"
);
}
);
width = 590;
}
);
note = Ecircumflex;
unicode = 00CA;
},
{
glyphname = Edieresis;
lastChange = "2024-06-22 13:48:17 +0000";
layers = (
{
hints = (
{
horizontal = 1;
place = "{7, 77}";
type = Stem;
},
{
horizontal = 1;
place = "{331, 77}";
type = Stem;
},
{
horizontal = 1;
place = "{650, 77}";
type = Stem;
},
{
horizontal = 1;
place = "{797, 108}";
type = Stem;
},
{
place = "{162, 110}";
type = Stem;
},
{
place = "{356, 110}";
type = Stem;
},
{
place = "{81, 91}";
type = Stem;
}
);
layerId = "5B3AE2B2-6F0E-4414-97DF-6676E601E692";
paths = (
{
closed = 1;
nodes = (
"162 813 OFFCURVE",
"184 791 OFFCURVE",
"214 791 CURVE SMOOTH",
"244 791 OFFCURVE",
"266 813 OFFCURVE",
"266 842 CURVE SMOOTH",
"266 871 OFFCURVE",
"244 893 OFFCURVE",
"214 893 CURVE SMOOTH",
"184 893 OFFCURVE",
"162 871 OFFCURVE",
"162 842 CURVE SMOOTH"
);
},
{
closed = 1;
nodes = (
"356 813 OFFCURVE",
"378 791 OFFCURVE",
"408 791 CURVE SMOOTH",
"438 791 OFFCURVE",
"460 813 OFFCURVE",
"460 842 CURVE SMOOTH",
"460 871 OFFCURVE",
"438 893 OFFCURVE",
"408 893 CURVE SMOOTH",
"378 893 OFFCURVE",
"356 871 OFFCURVE",
"356 842 CURVE SMOOTH"
);
},
{
closed = 1;
nodes = (
"542 1 LINE",
"542 72 LINE",
"266 72 LINE SMOOTH",
"233 72 OFFCURVE",
"166 70 OFFCURVE",
"166 70 CURVE",
"166 326 LINE",
"166 326 OFFCURVE",
"233 325 OFFCURVE",
"266 325 CURVE SMOOTH",
"522 325 LINE",
"522 396 LINE",
"266 396 LINE SMOOTH",
"233 396 OFFCURVE",
"166 395 OFFCURVE",
"166 395 CURVE",
"166 645 LINE",
"166 645 OFFCURVE",
"233 644 OFFCURVE",
"266 644 CURVE SMOOTH",
"532 644 LINE",
"532 715 LINE",
"81 715 LINE",
"81 1 LINE"
);
}
);
width = 590;
}
);
note = Edieresis;
unicode = 00CB;
},
{
glyphname = F;
lastChange = "2024-06-22 13:48:17 +0000";
layers = (
{
hints = (
{
horizontal = 1;
place = "{6, 21}";
target = up;
type = BottomGhost;
},
{
horizontal = 1;
place = "{332, 77}";
type = Stem;
},
{
horizontal = 1;
place = "{650, 77}";
type = Stem;
},
{
place = "{81, 91}";
type = Stem;
}
);
layerId = "5B3AE2B2-6F0E-4414-97DF-6676E601E692";
paths = (
{
closed = 1;
nodes = (
"166 0 LINE",
"166 326 LINE",
"266 326 LINE",
"492 326 LINE",
"492 397 LINE",
"266 397 LINE SMOOTH",
"233 397 OFFCURVE",
"166 395 OFFCURVE",
"166 395 CURVE",
"166 646 LINE",
"166 646 OFFCURVE",
"233 644 OFFCURVE",
"266 644 CURVE SMOOTH",
"532 644 LINE",
"532 715 LINE",
"81 715 LINE",
"81 0 LINE"
);
}
);
width = 580;
}
);
note = F;
rightKerningGroup = F;
unicode = 0046;
},
{
glyphname = G;
lastChange = "2024-06-22 13:48:17 +0000";
layers = (
{
hints = (
{
horizontal = 1;
place = "{-9, 81}";
type = Stem;
},
{
horizontal = 1;
place = "{310, 77}";
type = Stem;
},
{
horizontal = 1;
place = "{661, 81}";
type = Stem;
},
{
place = "{48, 94}";
type = Stem;
},
{
place = "{636, 77}";
type = Stem;
},
{
horizontal = 1;
place = "{6, 21}";
target = up;
type = BottomGhost;
},
{
place = "{616, 97}";
type = Stem;
}
);
layerId = "5B3AE2B2-6F0E-4414-97DF-6676E601E692";
paths = (
{
closed = 1;
nodes = (
"493 -15 OFFCURVE",
"604 49 OFFCURVE",
"636 145 CURVE",
"636 0 LINE",
"707 0 LINE",
"707 375 LINE",
"402 375 LINE",
"402 304 LINE",
"519 304 LINE SMOOTH",
"555 304 OFFCURVE",
"607 307 OFFCURVE",
"616 307 CURVE",
"603 169 OFFCURVE",
"515 60 OFFCURVE",
"391 60 CURVE SMOOTH",
"232 60 OFFCURVE",
"136 197 OFFCURVE",
"136 356 CURVE SMOOTH",
"136 517 OFFCURVE",
"231 655 OFFCURVE",
"391 655 CURVE SMOOTH",
"506 655 OFFCURVE",
"571 589 OFFCURVE",
"600 494 CURVE",
"690 494 LINE",
"653 632 OFFCURVE",
"555 730 OFFCURVE",
"391 730 CURVE SMOOTH",
"180 730 OFFCURVE",
"48 563 OFFCURVE",
"48 357 CURVE SMOOTH",
"48 152 OFFCURVE",
"170 -15 OFFCURVE",
"381 -15 CURVE SMOOTH"
);
}
);
width = 788;
}
);
note = G;
unicode = 0047;
},
{
glyphname = H;
lastChange = "2024-06-22 13:48:17 +0000";
layers = (
{
hints = (
{
horizontal = 1;
place = "{6, 21}";
target = up;
type = BottomGhost;
},
{
horizontal = 1;
place = "{339, 77}";
type = Stem;
},
{
horizontal = 1;
place = "{721, -20}";
target = down;
type = TopGhost;
},
{
place = "{81, 91}";
type = Stem;
},
{
place = "{558, 91}";
type = Stem;
}
);
layerId = "5B3AE2B2-6F0E-4414-97DF-6676E601E692";
paths = (
{
closed = 1;
nodes = (
"643 0 LINE",
"643 715 LINE",
"558 715 LINE",
"558 402 LINE",
"558 402 OFFCURVE",
"507 404 OFFCURVE",
"471 404 CURVE SMOOTH",
"257 404 LINE SMOOTH",
"221 404 OFFCURVE",
"166 402 OFFCURVE",
"166 402 CURVE",
"166 715 LINE",
"81 715 LINE",
"81 0 LINE",
"166 0 LINE",
"166 335 LINE",
"166 335 OFFCURVE",
"221 333 OFFCURVE",
"257 333 CURVE SMOOTH",
"471 333 LINE SMOOTH",
"507 333 OFFCURVE",
"558 335 OFFCURVE",
"558 335 CURVE",
"558 0 LINE"
);
}
);
width = 724;
}
);
note = H;
unicode = 0048;
},
{
glyphname = I;
lastChange = "2024-06-22 13:48:17 +0000";
layers = (
{
hints = (
{
horizontal = 1;
place = "{6, 21}";
target = up;
type = BottomGhost;
},
{
horizontal = 1;
place = "{721, -20}";
target = down;
type = TopGhost;
},
{
place = "{81, 91}";
type = Stem;
}
);
layerId = "5B3AE2B2-6F0E-4414-97DF-6676E601E692";
paths = (
{
closed = 1;
nodes = (
"166 0 LINE",
"166 715 LINE",
"81 715 LINE",
"81 0 LINE"
);
}
);
width = 247;
}
);
note = I;
unicode = 0049;
},
{
glyphname = Icircumflex;
lastChange = "2024-06-22 13:48:17 +0000";
layers = (
{
hints = (
{
horizontal = 1;
place = "{6, 21}";
target = up;
type = BottomGhost;
},
{
horizontal = 1;
place = "{721, -20}";
target = down;
type = TopGhost;
},
{
horizontal = 1;
place = "{801, 105}";
type = Stem;
},
{
place = "{81, 91}";
type = Stem;
},
{
horizontal = 1;
place = "{866, 40}";
type = Stem;
}
);
layerId = "5B3AE2B2-6F0E-4414-97DF-6676E601E692";
paths = (
{
closed = 1;
nodes = (
"224 795 LINE",
"161 894 LINE",
"78 894 LINE",
"16 795 LINE",
"78 795 LINE",
"120 860 LINE",
"161 795 LINE"
);
},
{
closed = 1;
nodes = (
"166 0 LINE",
"166 715 LINE",
"81 715 LINE",
"81 0 LINE"
);
}
);
width = 247;
}
);
note = Icircumflex;
unicode = 00CE;
},
{
glyphname = Idieresis;
lastChange = "2024-06-22 13:48:17 +0000";
layers = (
{
hints = (
{
horizontal = 1;
place = "{6, 21}";
target = up;
type = BottomGhost;
},
{
horizontal = 1;
place = "{721, -20}";
target = down;
type = TopGhost;
},
{
horizontal = 1;
place = "{797, 108}";
type = Stem;
},
{
place = "{-27, 110}";
type = Stem;
},
{
place = "{167, 110}";
type = Stem;
},
{
place = "{81, 91}";
type = Stem;
}
);
layerId = "5B3AE2B2-6F0E-4414-97DF-6676E601E692";
paths = (
{
closed = 1;
nodes = (
"-27 813 OFFCURVE",
"-5 791 OFFCURVE",
"25 791 CURVE SMOOTH",
"55 791 OFFCURVE",
"77 813 OFFCURVE",
"77 842 CURVE SMOOTH",
"77 871 OFFCURVE",
"55 893 OFFCURVE",
"25 893 CURVE SMOOTH",
"-5 893 OFFCURVE",
"-27 871 OFFCURVE",
"-27 842 CURVE SMOOTH"
);
},
{
closed = 1;
nodes = (
"167 813 OFFCURVE",
"189 791 OFFCURVE",
"219 791 CURVE SMOOTH",
"249 791 OFFCURVE",
"271 813 OFFCURVE",
"271 842 CURVE SMOOTH",
"271 871 OFFCURVE",
"249 893 OFFCURVE",
"219 893 CURVE SMOOTH",
"189 893 OFFCURVE",
"167 871 OFFCURVE",
"167 842 CURVE SMOOTH"
);
},
{
closed = 1;
nodes = (
"166 0 LINE",
"166 715 LINE",
"81 715 LINE",
"81 0 LINE"
);
}
);
width = 247;
}
);
note = Idieresis;
unicode = 00CF;
},
{
glyphname = Igrave;
lastChange = "2024-06-22 13:48:17 +0000";
layers = (
{
hints = (
{
horizontal = 1;
place = "{6, 21}";
target = up;
type = BottomGhost;
},
{
horizontal = 1;
place = "{721, -20}";
target = down;
type = TopGhost;
},
{
horizontal = 1;
place = "{801, 105}";
type = Stem;
},
{
place = "{81, 91}";
type = Stem;
}
);
layerId = "5B3AE2B2-6F0E-4414-97DF-6676E601E692";
paths = (
{
closed = 1;
nodes = (
"222 795 LINE",
"188 828 LINE SMOOTH",
"154 861 OFFCURVE",
"114 894 OFFCURVE",
"114 894 CURVE SMOOTH",
"34 894 LINE SMOOTH",
"34 894 OFFCURVE",
"63 861 OFFCURVE",
"98 828 CURVE SMOOTH",
"131 795 LINE"
);
},
{
closed = 1;
nodes = (
"166 0 LINE",
"166 715 LINE",
"81 715 LINE",
"81 0 LINE"
);
}
);
width = 247;
}
);
note = Igrave;
unicode = 00CC;
},
{
glyphname = J;
lastChange = "2024-06-22 13:48:17 +0000";
layers = (
{
hints = (
{
horizontal = 1;
place = "{-10, 75}";
type = Stem;
},
{
horizontal = 1;
place = "{721, -20}";
target = down;
type = TopGhost;
},
{
place = "{11, 91}";
type = Stem;
},
{
place = "{343, 90}";
type = Stem;
}
);
layerId = "5B3AE2B2-6F0E-4414-97DF-6676E601E692";
paths = (
{
closed = 1;
nodes = (
"359 -16 OFFCURVE",
"427 76 OFFCURVE",
"427 211 CURVE SMOOTH",
"428 715 LINE",
"343 715 LINE",
"343 198 LINE SMOOTH",
"343 109 OFFCURVE",
"310 53 OFFCURVE",
"220 53 CURVE SMOOTH",
"130 53 OFFCURVE",
"96 111 OFFCURVE",
"96 191 CURVE",
"11 191 LINE",
"11 78 OFFCURVE",
"81 -16 OFFCURVE",
"220 -16 CURVE SMOOTH"
);
}
);
width = 509;
}
);
note = J;
unicode = 004A;
},
{
glyphname = K;
lastChange = "2024-06-22 13:48:17 +0000";
layers = (
{
hints = (
{
horizontal = 1;
place = "{6, 21}";
target = up;
type = BottomGhost;
},
{
horizontal = 1;
place = "{723, -20}";
target = down;
type = TopGhost;
},
{
place = "{82, 91}";
type = Stem;
},
{
horizontal = 1;
place = "{7, 21}";
target = up;
type = BottomGhost;
},
{
horizontal = 1;
place = "{722, -20}";
target = down;
type = TopGhost;
},
{
place = "{82, 90}";
type = Stem;
}
);
layerId = "5B3AE2B2-6F0E-4414-97DF-6676E601E692";
paths = (
{
closed = 1;
nodes = (
"166 0 LINE",
"166 251 LINE",
"289 377 LINE",
"563 1 LINE",
"657 1 LINE",
"342 431 LINE",
"622 716 LINE",
"516 716 LINE",
"165 360 LINE",
"166 717 LINE",
"82 717 LINE",
"81 0 LINE"
);
}
);
width = 663;
}
);
note = K;
unicode = 004B;
},
{
glyphname = L;
lastChange = "2024-06-22 13:48:17 +0000";
layers = (
{
hints = (
{
horizontal = 1;
place = "{6, 81}";
type = Stem;
},
{
horizontal = 1;
place = "{721, -20}";
target = down;
type = TopGhost;
},
{
place = "{81, 91}";
type = Stem;
}
);
layerId = "5B3AE2B2-6F0E-4414-97DF-6676E601E692";
paths = (
{
closed = 1;
nodes = (
"531 0 LINE",
"531 75 LINE",
"266 75 LINE SMOOTH",
"233 75 OFFCURVE",
"166 73 OFFCURVE",
"166 73 CURVE",
"166 715 LINE",
"81 715 LINE",
"81 0 LINE"
);
}
);
width = 542;
}
);
note = L;
unicode = 004C;
},
{
glyphname = M;
lastChange = "2024-06-22 13:48:17 +0000";
layers = (
{
hints = (
{
horizontal = 1;
place = "{6, 21}";
target = up;
type = BottomGhost;
},
{
horizontal = 1;
place = "{721, -20}";
target = down;
type = TopGhost;
},
{
place = "{81, 91}";
type = Stem;
},
{
place = "{750, 91}";
type = Stem;
},
{
horizontal = 1;
place = "{6, 91}";
type = Stem;
},
{
horizontal = 1;
place = "{592, 135}";
type = Stem;
}
);
layerId = "5B3AE2B2-6F0E-4414-97DF-6676E601E692";
paths = (
{
closed = 1;
nodes = (
"502 0 LINE",
"696 441 LINE SMOOTH",
"707 465 OFFCURVE",
"729 517 OFFCURVE",
"750 570 CURVE",
"750 0 LINE",
"835 0 LINE",
"835 715 LINE",
"736 715 LINE",
"524 240 LINE SMOOTH",
"506 199 OFFCURVE",
"481 136 OFFCURVE",
"461 85 CURVE",
"441 136 OFFCURVE",
"416 199 OFFCURVE",
"398 240 CURVE SMOOTH",
"186 715 LINE",
"81 715 LINE",
"81 0 LINE",
"166 0 LINE",
"166 586 LINE",
"189 528 OFFCURVE",
"214 468 OFFCURVE",
"226 441 CURVE SMOOTH",
"420 0 LINE"
);
}
);
width = 916;
}
);
note = M;
unicode = 004D;
},
{
glyphname = N;
lastChange = "2024-06-22 13:48:17 +0000";
layers = (
{
hints = (
{
horizontal = 1;
place = "{6, 21}";
target = up;
type = BottomGhost;
},
{
horizontal = 1;
place = "{721, -20}";
target = down;
type = TopGhost;
},
{
place = "{81, 91}";
type = Stem;
},
{
place = "{528, 91}";
type = Stem;
}
);
layerId = "5B3AE2B2-6F0E-4414-97DF-6676E601E692";
paths = (
{
closed = 1;
nodes = (
"613 0 LINE",
"613 715 LINE",
"528 715 LINE",
"528 132 LINE",
"507 170 OFFCURVE",
"485 209 OFFCURVE",
"467 238 CURVE SMOOTH",
"166 715 LINE",
"81 715 LINE",
"81 0 LINE",
"166 0 LINE",
"166 584 LINE",
"191 538 OFFCURVE",
"219 489 OFFCURVE",
"241 454 CURVE SMOOTH",
"528 0 LINE"
);
}
);
width = 694;
}
);
note = N;
unicode = 004E;
},
{
glyphname = Ntilde;
lastChange = "2024-06-22 13:48:17 +0000";
layers = (
{
hints = (
{
horizontal = 1;
place = "{6, 21}";
target = up;
type = BottomGhost;
},
{
horizontal = 1;
place = "{721, -20}";
target = down;
type = TopGhost;
},
{
place = "{81, 91}";
type = Stem;
},
{
place = "{528, 91}";
type = Stem;
}
);
layerId = "5B3AE2B2-6F0E-4414-97DF-6676E601E692";
paths = (
{
closed = 1;
nodes = (
"613 0 LINE",
"613 715 LINE",
"528 715 LINE",
"528 132 LINE",
"507 170 OFFCURVE",
"485 209 OFFCURVE",
"467 238 CURVE SMOOTH",
"166 715 LINE",
"81 715 LINE",
"81 0 LINE",
"166 0 LINE",
"166 584 LINE",
"191 538 OFFCURVE",
"219 489 OFFCURVE",
"241 454 CURVE SMOOTH",
"528 0 LINE"
);
}
);
width = 694;
}
);
note = Ntilde;
unicode = 00D1;
},
{
glyphname = O;
lastChange = "2024-06-22 13:48:17 +0000";
layers = (
{
hints = (
{
horizontal = 1;
place = "{-9, 81}";
type = Stem;
},
{
horizontal = 1;
place = "{661, 81}";
type = Stem;
},
{
place = "{48, 94}";
type = Stem;
},
{
place = "{646, 93}";
type = Stem;
}
);
layerId = "5B3AE2B2-6F0E-4414-97DF-6676E601E692";
paths = (
{
closed = 1;
nodes = (
"603 -15 OFFCURVE",
"733 152 OFFCURVE",
"733 357 CURVE SMOOTH",
"733 563 OFFCURVE",
"606 730 OFFCURVE",
"391 730 CURVE SMOOTH",
"180 730 OFFCURVE",
"48 563 OFFCURVE",
"48 357 CURVE SMOOTH",
"48 152 OFFCURVE",
"180 -15 OFFCURVE",
"391 -15 CURVE SMOOTH"
);
},
{
closed = 1;
nodes = (
"136 517 OFFCURVE",
"228 655 OFFCURVE",
"390 655 CURVE SMOOTH",
"557 655 OFFCURVE",
"646 517 OFFCURVE",
"646 356 CURVE SMOOTH",
"646 198 OFFCURVE",
"553 60 OFFCURVE",
"390 60 CURVE SMOOTH",
"229 60 OFFCURVE",
"136 198 OFFCURVE",
"136 356 CURVE SMOOTH"
);
}
);
width = 781;
}
);
note = O;
unicode = 004F;
},
{
glyphname = Oacute;
lastChange = "2024-06-22 13:48:17 +0000";
layers = (
{
hints = (
{
horizontal = 1;
place = "{-9, 81}";
type = Stem;
},
{
horizontal = 1;
place = "{661, 81}";
type = Stem;
},
{
horizontal = 1;
place = "{801, 105}";
type = Stem;
},
{
place = "{48, 94}";
type = Stem;
},
{
place = "{646, 93}";
type = Stem;
}
);
layerId = "5B3AE2B2-6F0E-4414-97DF-6676E601E692";
paths = (
{
closed = 1;
nodes = (
"409 828 LINE SMOOTH",
"444 861 OFFCURVE",
"473 894 OFFCURVE",
"473 894 CURVE SMOOTH",
"393 894 LINE SMOOTH",
"393 894 OFFCURVE",
"353 861 OFFCURVE",
"319 828 CURVE SMOOTH",
"285 795 LINE",
"376 795 LINE"
);
},
{
closed = 1;
nodes = (
"603 -15 OFFCURVE",
"733 152 OFFCURVE",
"733 357 CURVE SMOOTH",
"733 563 OFFCURVE",
"606 730 OFFCURVE",
"391 730 CURVE SMOOTH",
"180 730 OFFCURVE",
"48 563 OFFCURVE",
"48 357 CURVE SMOOTH",
"48 152 OFFCURVE",
"180 -15 OFFCURVE",
"391 -15 CURVE SMOOTH"
);
},
{
closed = 1;
nodes = (
"136 517 OFFCURVE",
"228 655 OFFCURVE",
"390 655 CURVE SMOOTH",
"557 655 OFFCURVE",
"646 517 OFFCURVE",
"646 356 CURVE SMOOTH",
"646 198 OFFCURVE",
"553 60 OFFCURVE",
"390 60 CURVE SMOOTH",
"229 60 OFFCURVE",
"136 198 OFFCURVE",
"136 356 CURVE SMOOTH"
);
}
);
width = 781;
}
);
note = Oacute;
unicode = 00D3;
},
{
glyphname = Ocircumflex;
lastChange = "2024-06-22 13:48:17 +0000";
layers = (
{
hints = (
{
horizontal = 1;
place = "{-9, 81}";
type = Stem;
},
{
horizontal = 1;
place = "{661, 81}";
type = Stem;
},
{
horizontal = 1;
place = "{801, 105}";
type = Stem;
},
{
place = "{48, 94}";
type = Stem;
},
{
place = "{646, 93}";
type = Stem;
},
{
horizontal = 1;
place = "{866, 40}";
type = Stem;
}
);
layerId = "5B3AE2B2-6F0E-4414-97DF-6676E601E692";
paths = (
{
closed = 1;
nodes = (
"425 795 LINE",
"488 795 LINE",
"425 894 LINE",
"342 894 LINE",
"280 795 LINE",
"342 795 LINE",
"384 860 LINE"
);
},
{
closed = 1;
nodes = (
"180 730 OFFCURVE",
"48 563 OFFCURVE",
"48 357 CURVE SMOOTH",
"48 152 OFFCURVE",
"180 -15 OFFCURVE",
"391 -15 CURVE SMOOTH",
"603 -15 OFFCURVE",
"733 152 OFFCURVE",
"733 357 CURVE SMOOTH",
"733 563 OFFCURVE",
"606 730 OFFCURVE",
"391 730 CURVE SMOOTH"
);
},
{
closed = 1;
nodes = (
"229 60 OFFCURVE",
"136 198 OFFCURVE",
"136 356 CURVE SMOOTH",
"136 517 OFFCURVE",
"228 655 OFFCURVE",
"390 655 CURVE SMOOTH",
"557 655 OFFCURVE",
"646 517 OFFCURVE",
"646 356 CURVE SMOOTH",
"646 198 OFFCURVE",
"553 60 OFFCURVE",
"390 60 CURVE SMOOTH"
);
}
);
width = 781;
}
);
note = Ocircumflex;
unicode = 00D4;
},
{
glyphname = Odieresis;
lastChange = "2024-06-22 13:48:17 +0000";
layers = (
{
hints = (
{
horizontal = 1;
place = "{-9, 81}";
type = Stem;
},
{
horizontal = 1;
place = "{661, 81}";
type = Stem;
},
{
horizontal = 1;
place = "{798, 108}";
type = Stem;
},
{
place = "{48, 94}";
type = Stem;
},
{
place = "{235, 110}";
type = Stem;
},
{
place = "{429, 110}";
type = Stem;
},
{
place = "{646, 93}";
type = Stem;
}
);
layerId = "5B3AE2B2-6F0E-4414-97DF-6676E601E692";
paths = (
{
closed = 1;
nodes = (
"235 814 OFFCURVE",
"257 792 OFFCURVE",
"287 792 CURVE SMOOTH",
"317 792 OFFCURVE",
"339 814 OFFCURVE",
"339 843 CURVE SMOOTH",
"339 872 OFFCURVE",
"317 894 OFFCURVE",
"287 894 CURVE SMOOTH",
"257 894 OFFCURVE",
"235 872 OFFCURVE",
"235 843 CURVE SMOOTH"
);
},
{
closed = 1;
nodes = (
"429 814 OFFCURVE",
"451 792 OFFCURVE",
"481 792 CURVE SMOOTH",
"511 792 OFFCURVE",
"533 814 OFFCURVE",
"533 843 CURVE SMOOTH",
"533 872 OFFCURVE",
"511 894 OFFCURVE",
"481 894 CURVE SMOOTH",
"451 894 OFFCURVE",
"429 872 OFFCURVE",
"429 843 CURVE SMOOTH"
);
},
{
closed = 1;
nodes = (
"603 -15 OFFCURVE",
"733 152 OFFCURVE",
"733 357 CURVE SMOOTH",
"733 563 OFFCURVE",
"606 730 OFFCURVE",
"391 730 CURVE SMOOTH",
"180 730 OFFCURVE",
"48 563 OFFCURVE",
"48 357 CURVE SMOOTH",
"48 152 OFFCURVE",
"180 -15 OFFCURVE",
"391 -15 CURVE SMOOTH"
);
},
{
closed = 1;
nodes = (
"136 517 OFFCURVE",
"228 655 OFFCURVE",
"390 655 CURVE SMOOTH",
"557 655 OFFCURVE",
"646 517 OFFCURVE",
"646 356 CURVE SMOOTH",
"646 198 OFFCURVE",
"553 60 OFFCURVE",
"390 60 CURVE SMOOTH",
"229 60 OFFCURVE",
"136 198 OFFCURVE",
"136 356 CURVE SMOOTH"
);
}
);
width = 781;
}
);
note = Odieresis;
unicode = 00D6;
},
{
glyphname = Ograve;
lastChange = "2024-06-22 13:48:17 +0000";
layers = (
{
hints = (
{
horizontal = 1;
place = "{-9, 81}";
type = Stem;
},
{
horizontal = 1;
place = "{661, 81}";
type = Stem;
},
{
horizontal = 1;
place = "{801, 105}";
type = Stem;
},
{
place = "{48, 94}";
type = Stem;
},
{
place = "{646, 93}";
type = Stem;
}
);
layerId = "5B3AE2B2-6F0E-4414-97DF-6676E601E692";
paths = (
{
closed = 1;
nodes = (
"483 795 LINE",
"449 828 LINE SMOOTH",
"415 861 OFFCURVE",
"375 894 OFFCURVE",
"375 894 CURVE SMOOTH",
"295 894 LINE SMOOTH",
"295 894 OFFCURVE",
"324 861 OFFCURVE",
"359 828 CURVE SMOOTH",
"392 795 LINE"
);
},
{
closed = 1;
nodes = (
"603 -15 OFFCURVE",
"733 152 OFFCURVE",
"733 357 CURVE SMOOTH",
"733 563 OFFCURVE",
"606 730 OFFCURVE",
"391 730 CURVE SMOOTH",
"180 730 OFFCURVE",
"48 563 OFFCURVE",
"48 357 CURVE SMOOTH",
"48 152 OFFCURVE",
"180 -15 OFFCURVE",
"391 -15 CURVE SMOOTH"
);
},
{
closed = 1;
nodes = (
"136 517 OFFCURVE",
"228 655 OFFCURVE",
"390 655 CURVE SMOOTH",
"557 655 OFFCURVE",
"646 517 OFFCURVE",
"646 356 CURVE SMOOTH",
"646 198 OFFCURVE",
"553 60 OFFCURVE",
"390 60 CURVE SMOOTH",
"229 60 OFFCURVE",
"136 198 OFFCURVE",
"136 356 CURVE SMOOTH"
);
}
);
width = 781;
}
);
note = Ograve;
unicode = 00D2;
},
{
glyphname = Oslash;
lastChange = "2024-06-22 13:48:17 +0000";
layers = (
{
hints = (
{
horizontal = 1;
place = "{-9, 81}";
type = Stem;
},
{
horizontal = 1;
place = "{661, 81}";
type = Stem;
},
{
place = "{48, 94}";
type = Stem;
},
{
place = "{646, 93}";
type = Stem;
},
{
horizontal = 1;
place = "{666, 77}";
type = Stem;
}
);
layerId = "5B3AE2B2-6F0E-4414-97DF-6676E601E692";
paths = (
{
closed = 1;
nodes = (
"643 731 LINE",
"556 731 LINE",
"538 700 LINE",
"495 719 OFFCURVE",
"446 730 OFFCURVE",
"391 730 CURVE SMOOTH",
"180 730 OFFCURVE",
"48 563 OFFCURVE",
"48 357 CURVE SMOOTH",
"48 239 OFFCURVE",
"92 133 OFFCURVE",
"169 65 CURVE",
"123 -15 LINE",
"210 -15 LINE",
"232 22 LINE",
"278 -2 OFFCURVE",
"331 -15 OFFCURVE",
"391 -15 CURVE SMOOTH",
"603 -15 OFFCURVE",
"733 152 OFFCURVE",
"733 357 CURVE SMOOTH",
"733 482 OFFCURVE",
"686 592 OFFCURVE",
"602 660 CURVE"
);
},
{
closed = 1;
nodes = (
"136 517 OFFCURVE",
"228 655 OFFCURVE",
"390 655 CURVE SMOOTH",
"431 655 OFFCURVE",
"467 647 OFFCURVE",
"498 632 CURVE",
"212 138 LINE",
"163 193 OFFCURVE",
"136 272 OFFCURVE",
"136 356 CURVE SMOOTH"
);
},
{
closed = 1;
nodes = (
"345 60 OFFCURVE",
"305 71 OFFCURVE",
"271 90 CURVE",
"560 589 LINE",
"617 533 OFFCURVE",
"646 448 OFFCURVE",
"646 356 CURVE SMOOTH",
"646 198 OFFCURVE",
"553 60 OFFCURVE",
"390 60 CURVE SMOOTH"
);
}
);
width = 781;
}
);
note = Oslash;
unicode = 00D8;
},
{
glyphname = Otilde;
lastChange = "2024-06-22 13:48:17 +0000";
layers = (
{
hints = (
{
horizontal = 1;
place = "{-9, 81}";
type = Stem;
},
{
horizontal = 1;
place = "{661, 81}";
type = Stem;
},
{
place = "{48, 94}";
type = Stem;
},
{
place = "{646, 93}";
type = Stem;
}
);
layerId = "5B3AE2B2-6F0E-4414-97DF-6676E601E692";
paths = (
{
closed = 1;
nodes = (
"603 -15 OFFCURVE",
"733 152 OFFCURVE",
"733 357 CURVE SMOOTH",
"733 563 OFFCURVE",
"606 730 OFFCURVE",
"391 730 CURVE SMOOTH",
"180 730 OFFCURVE",
"48 563 OFFCURVE",
"48 357 CURVE SMOOTH",
"48 152 OFFCURVE",
"180 -15 OFFCURVE",
"391 -15 CURVE SMOOTH"
);
},
{
closed = 1;
nodes = (
"136 517 OFFCURVE",
"228 655 OFFCURVE",
"390 655 CURVE SMOOTH",
"557 655 OFFCURVE",
"646 517 OFFCURVE",
"646 356 CURVE SMOOTH",
"646 198 OFFCURVE",
"553 60 OFFCURVE",
"390 60 CURVE SMOOTH",
"229 60 OFFCURVE",
"136 198 OFFCURVE",
"136 356 CURVE SMOOTH"
);
}
);
width = 781;
}
);
note = Otilde;
unicode = 00D5;
},
{
glyphname = OE;
lastChange = "2024-06-22 13:48:17 +0000";
layers = (
{
hints = (
{
horizontal = 1;
place = "{7, 77}";
type = Stem;
},
{
horizontal = 1;
place = "{331, 77}";
type = Stem;
},
{
horizontal = 1;
place = "{650, 77}";
type = Stem;
},
{
place = "{48, 94}";
type = Stem;
},
{
place = "{640, 91}";
type = Stem;
},
{
horizontal = 1;
place = "{-9, 81}";
type = Stem;
},
{
horizontal = 1;
place = "{661, 81}";
type = Stem;
}
);
layerId = "5B3AE2B2-6F0E-4414-97DF-6676E601E692";
paths = (
{
closed = 1;
nodes = (
"825 72 LINE SMOOTH",
"792 72 OFFCURVE",
"725 70 OFFCURVE",
"725 70 CURVE",
"725 271 LINE",
"728 289 OFFCURVE",
"731 307 OFFCURVE",
"732 326 CURVE",
"825 325 LINE",
"1081 325 LINE",
"1081 396 LINE",
"825 396 LINE",
"732 395 LINE",
"730 412 OFFCURVE",
"728 428 OFFCURVE",
"725 444 CURVE",
"725 645 LINE",
"725 645 OFFCURVE",
"792 644 OFFCURVE",
"825 644 CURVE SMOOTH",
"1091 644 LINE",
"1091 715 LINE",
"640 715 LINE",
"640 624 LINE",
"581 689 OFFCURVE",
"497 730 OFFCURVE",
"391 730 CURVE SMOOTH",
"180 730 OFFCURVE",
"48 563 OFFCURVE",
"48 357 CURVE SMOOTH",
"48 152 OFFCURVE",
"180 -15 OFFCURVE",
"391 -15 CURVE SMOOTH",
"496 -15 OFFCURVE",
"581 26 OFFCURVE",
"640 92 CURVE",
"640 1 LINE",
"1101 1 LINE",
"1101 72 LINE"
);
},
{
closed = 1;
nodes = (
"229 60 OFFCURVE",
"136 198 OFFCURVE",
"136 356 CURVE SMOOTH",
"136 517 OFFCURVE",
"228 655 OFFCURVE",
"390 655 CURVE SMOOTH",
"532 655 OFFCURVE",
"617 555 OFFCURVE",
"640 427 CURVE",
"640 288 LINE",
"617 160 OFFCURVE",
"529 60 OFFCURVE",
"390 60 CURVE SMOOTH"
);
}
);
width = 1149;
}
);
note = OE;
unicode = 0152;
},
{
glyphname = P;
lastChange = "2024-06-22 13:48:17 +0000";
layers = (
{
hints = (
{
horizontal = 1;
place = "{6, 21}";
target = up;
type = BottomGhost;
},
{
horizontal = 1;
place = "{285, 76}";
type = Stem;
},
{
horizontal = 1;
place = "{650, 77}";
type = Stem;
},
{
place = "{81, 91}";
type = Stem;
},
{
place = "{523, 92}";
type = Stem;
}
);
layerId = "5B3AE2B2-6F0E-4414-97DF-6676E601E692";
paths = (
{
closed = 1;
nodes = (
"408 279 LINE SMOOTH",
"533 279 OFFCURVE",
"609 376 OFFCURVE",
"609 497 CURVE SMOOTH",
"609 618 OFFCURVE",
"535 715 OFFCURVE",
"408 715 CURVE SMOOTH",
"81 715 LINE",
"81 0 LINE",
"166 0 LINE",
"166 279 LINE"
);
},
{
closed = 1;
nodes = (
"166 644 LINE",
"398 644 LINE SMOOTH",
"481 644 OFFCURVE",
"523 577 OFFCURVE",
"523 496 CURVE SMOOTH",
"523 416 OFFCURVE",
"478 349 OFFCURVE",
"398 349 CURVE SMOOTH",
"166 350 LINE"
);
}
);
width = 657;
}
);
note = P;
rightKerningGroup = P;
unicode = 0050;
},
{
glyphname = Thorn;
lastChange = "2024-06-22 13:48:17 +0000";
layers = (
{
hints = (
{
horizontal = 1;
place = "{6, 21}";
target = up;
type = BottomGhost;
},
{
horizontal = 1;
place = "{171, 76}";
type = Stem;
},
{
horizontal = 1;
place = "{536, 77}";
type = Stem;
},
{
place = "{81, 91}";
type = Stem;
},
{
place = "{523, 92}";
type = Stem;
},
{
horizontal = 1;
place = "{536, 191}";
type = Stem;
}
);
layerId = "5B3AE2B2-6F0E-4414-97DF-6676E601E692";
paths = (
{
closed = 1;
nodes = (
"166 0 LINE",
"166 165 LINE",
"408 165 LINE SMOOTH",
"533 165 OFFCURVE",
"609 262 OFFCURVE",
"609 383 CURVE SMOOTH",
"609 504 OFFCURVE",
"535 601 OFFCURVE",
"408 601 CURVE SMOOTH",
"166 601 LINE",
"166 715 LINE",
"81 715 LINE",
"81 0 LINE"
);
},
{
closed = 1;
nodes = (
"166 530 LINE",
"398 530 LINE SMOOTH",
"481 530 OFFCURVE",
"523 463 OFFCURVE",
"523 382 CURVE SMOOTH",
"523 302 OFFCURVE",
"478 235 OFFCURVE",
"398 235 CURVE SMOOTH",
"166 236 LINE"
);
}
);
width = 657;
}
);
note = Thorn;
unicode = 00DE;
},
{
glyphname = Q;
lastChange = "2024-06-22 13:48:17 +0000";
layers = (
{
hints = (
{
horizontal = 1;
place = "{-9, 81}";
type = Stem;
},
{
horizontal = 1;
place = "{661, 81}";
type = Stem;
},
{
place = "{48, 94}";
type = Stem;
},
{
place = "{646, 93}";
type = Stem;
}
);
layerId = "5B3AE2B2-6F0E-4414-97DF-6676E601E692";
paths = (
{
closed = 1;
nodes = (
"733 563 OFFCURVE",
"606 730 OFFCURVE",
"391 730 CURVE SMOOTH",
"180 730 OFFCURVE",
"48 563 OFFCURVE",
"48 357 CURVE SMOOTH",
"48 152 OFFCURVE",
"180 -15 OFFCURVE",
"391 -15 CURVE SMOOTH",
"437 -15 OFFCURVE",
"479 -7 OFFCURVE",
"517 7 CURVE",
"567 -57 LINE",
"662 -57 LINE",
"584 42 LINE",
"679 109 OFFCURVE",
"733 225 OFFCURVE",
"733 357 CURVE SMOOTH"
);
},
{
closed = 1;
nodes = (
"229 60 OFFCURVE",
"136 198 OFFCURVE",
"136 356 CURVE SMOOTH",
"136 517 OFFCURVE",
"228 655 OFFCURVE",
"390 655 CURVE SMOOTH",
"557 655 OFFCURVE",
"646 517 OFFCURVE",
"646 356 CURVE SMOOTH",
"646 253 OFFCURVE",
"607 159 OFFCURVE",
"534 106 CURVE",
"486 167 LINE",
"391 167 LINE",
"466 71 LINE",
"443 64 OFFCURVE",
"417 60 OFFCURVE",
"390 60 CURVE SMOOTH"
);
}
);
width = 781;
}
);
note = Q;
unicode = 0051;
},
{
glyphname = R;
lastChange = "2024-06-22 13:48:17 +0000";
layers = (
{
hints = (
{
horizontal = 1;
place = "{6, 21}";
target = up;
type = BottomGhost;
},
{
horizontal = 1;
place = "{281, 76}";
type = Stem;
},
{
horizontal = 1;
place = "{650, 77}";
type = Stem;
},
{
place = "{81, 91}";
type = Stem;
},
{
place = "{523, 92}";
type = Stem;
}
);
layerId = "5B3AE2B2-6F0E-4414-97DF-6676E601E692";
paths = (
{
closed = 1;
nodes = (
"364 275 LINE",
"556 0 LINE",
"649 0 LINE",
"453 280 LINE",
"551 300 OFFCURVE",
"609 389 OFFCURVE",
"609 495 CURVE SMOOTH",
"609 616 OFFCURVE",
"535 715 OFFCURVE",
"408 715 CURVE SMOOTH",
"81 715 LINE",
"81 0 LINE",
"166 0 LINE",
"166 275 LINE"
);
},
{
closed = 1;
nodes = (
"166 644 LINE",
"398 644 LINE SMOOTH",
"481 644 OFFCURVE",
"523 571 OFFCURVE",
"523 494 CURVE SMOOTH",
"523 418 OFFCURVE",
"478 345 OFFCURVE",
"398 345 CURVE SMOOTH",
"166 346 LINE"
);
}
);
width = 670;
}
);
note = R;
rightKerningGroup = R;
unicode = 0052;
},
{
glyphname = S;
lastChange = "2024-06-22 13:48:17 +0000";
layers = (
{
hints = (
{
horizontal = 1;
place = "{-10, 81}";
type = Stem;
},
{
horizontal = 1;
place = "{662, 81}";
type = Stem;
},
{
place = "{72, 94}";
type = Stem;
},
{
place = "{552, 94}";
type = Stem;
}
);
layerId = "5B3AE2B2-6F0E-4414-97DF-6676E601E692";
paths = (
{
closed = 1;
nodes = (
"523 -21 OFFCURVE",
"640 61 OFFCURVE",
"640 195 CURVE SMOOTH",
"640 348 OFFCURVE",
"496 381 OFFCURVE",
"378 410 CURVE SMOOTH",
"252 441 OFFCURVE",
"160 470 OFFCURVE",
"160 547 CURVE SMOOTH",
"160 609 OFFCURVE",
"228 656 OFFCURVE",
"330 656 CURVE SMOOTH",
"438 656 OFFCURVE",
"519 617 OFFCURVE",
"533 509 CURVE",
"618 508 LINE",
"601 651 OFFCURVE",
"497 731 OFFCURVE",
"347 731 CURVE SMOOTH",
"169 731 OFFCURVE",
"72 652 OFFCURVE",
"72 535 CURVE SMOOTH",
"72 400 OFFCURVE",
"219 365 OFFCURVE",
"341 338 CURVE SMOOTH",
"490 305 OFFCURVE",
"553 266 OFFCURVE",
"552 190 CURVE SMOOTH",
"551 112 OFFCURVE",
"471 56 OFFCURVE",
"367 59 CURVE SMOOTH",
"264 62 OFFCURVE",
"152 91 OFFCURVE",
"133 235 CURVE",
"48 236 LINE",
"61 77 OFFCURVE",
"178 -11 OFFCURVE",
"347 -16 CURVE SMOOTH"
);
}
);
width = 688;
}
);
note = S;
unicode = 0053;
},
{
glyphname = T;
lastChange = "2024-06-22 13:48:17 +0000";
layers = (
{
hints = (
{
horizontal = 1;
place = "{6, 21}";
target = up;
type = BottomGhost;
},
{
horizontal = 1;
place = "{650, 77}";
type = Stem;
},
{
place = "{240, 91}";
type = Stem;
}
);
layerId = "5B3AE2B2-6F0E-4414-97DF-6676E601E692";
paths = (
{
closed = 1;
nodes = (
"325 0 LINE",
"325 544 LINE SMOOTH",
"325 579 OFFCURVE",
"322 644 OFFCURVE",
"322 644 CURVE",
"552 644 LINE",
"552 715 LINE",
"11 715 LINE",
"11 644 LINE",
"241 644 LINE",
"241 644 OFFCURVE",
"240 579 OFFCURVE",
"240 544 CURVE SMOOTH",
"240 0 LINE"
);
}
);
width = 563;
}
);
note = T;
rightKerningGroup = T;
unicode = 0054;
},
{
glyphname = U;
lastChange = "2024-06-22 13:48:17 +0000";
layers = (
{
hints = (
{
horizontal = 1;
place = "{-9, 81}";
type = Stem;
},
{
horizontal = 1;
place = "{721, -20}";
target = down;
type = TopGhost;
},
{
place = "{81, 91}";
type = Stem;
},
{
place = "{536, 91}";
type = Stem;
}
);
layerId = "5B3AE2B2-6F0E-4414-97DF-6676E601E692";
paths = (
{
closed = 1;
nodes = (
"519 -15 OFFCURVE",
"621 92 OFFCURVE",
"621 297 CURVE SMOOTH",
"621 715 LINE",
"536 715 LINE",
"536 276 LINE SMOOTH",
"536 138 OFFCURVE",
"468 60 OFFCURVE",
"350 60 CURVE SMOOTH",
"234 60 OFFCURVE",
"166 138 OFFCURVE",
"166 276 CURVE SMOOTH",
"166 715 LINE",
"81 715 LINE",
"81 297 LINE SMOOTH",
"81 92 OFFCURVE",
"185 -15 OFFCURVE",
"351 -15 CURVE SMOOTH"
);
}
);
width = 702;
}
);
note = U;
unicode = 0055;
},
{
glyphname = Uacute;
lastChange = "2024-06-22 13:48:17 +0000";
layers = (
{
hints = (
{
horizontal = 1;
place = "{-9, 81}";
type = Stem;
},
{
horizontal = 1;
place = "{721, -20}";
target = down;
type = TopGhost;
},
{
horizontal = 1;
place = "{801, 105}";
type = Stem;
},
{
place = "{81, 91}";
type = Stem;
},
{
place = "{536, 91}";
type = Stem;
}
);
layerId = "5B3AE2B2-6F0E-4414-97DF-6676E601E692";
paths = (
{
closed = 1;
nodes = (
"396 828 LINE SMOOTH",
"431 861 OFFCURVE",
"460 894 OFFCURVE",
"460 894 CURVE SMOOTH",
"380 894 LINE SMOOTH",
"380 894 OFFCURVE",
"340 861 OFFCURVE",
"306 828 CURVE SMOOTH",
"272 795 LINE",
"363 795 LINE"
);
},
{
closed = 1;
nodes = (
"519 -15 OFFCURVE",
"621 92 OFFCURVE",
"621 297 CURVE SMOOTH",
"621 715 LINE",
"536 715 LINE",
"536 276 LINE SMOOTH",
"536 138 OFFCURVE",
"468 60 OFFCURVE",
"350 60 CURVE SMOOTH",
"234 60 OFFCURVE",
"166 138 OFFCURVE",
"166 276 CURVE SMOOTH",
"166 715 LINE",
"81 715 LINE",
"81 297 LINE SMOOTH",
"81 92 OFFCURVE",
"185 -15 OFFCURVE",
"351 -15 CURVE SMOOTH"
);
}
);
width = 702;
}
);
note = Uacute;
unicode = 00DA;
},
{
glyphname = Ucircumflex;
lastChange = "2024-06-22 13:48:17 +0000";
layers = (
{
hints = (
{
horizontal = 1;
place = "{-9, 81}";
type = Stem;
},
{
horizontal = 1;
place = "{721, -20}";
target = down;
type = TopGhost;
},
{
horizontal = 1;
place = "{801, 105}";
type = Stem;
},
{
place = "{81, 91}";
type = Stem;
},
{
place = "{536, 91}";
type = Stem;
},
{
horizontal = 1;
place = "{866, 40}";
type = Stem;
}
);
layerId = "5B3AE2B2-6F0E-4414-97DF-6676E601E692";
paths = (
{
closed = 1;
nodes = (
"392 795 LINE",
"455 795 LINE",
"392 894 LINE",
"309 894 LINE",
"247 795 LINE",
"309 795 LINE",
"351 860 LINE"
);
},
{
closed = 1;
nodes = (
"536 276 LINE SMOOTH",
"536 138 OFFCURVE",
"468 60 OFFCURVE",
"350 60 CURVE SMOOTH",
"234 60 OFFCURVE",
"166 138 OFFCURVE",
"166 276 CURVE SMOOTH",
"166 715 LINE",
"81 715 LINE",
"81 297 LINE SMOOTH",
"81 92 OFFCURVE",
"185 -15 OFFCURVE",
"351 -15 CURVE SMOOTH",
"519 -15 OFFCURVE",
"621 92 OFFCURVE",
"621 297 CURVE SMOOTH",
"621 715 LINE",
"536 715 LINE"
);
}
);
width = 702;
}
);
note = Ucircumflex;
unicode = 00DB;
},
{
glyphname = Udieresis;
lastChange = "2024-06-22 13:48:17 +0000";
layers = (
{
hints = (
{
horizontal = 1;
place = "{-9, 81}";
type = Stem;
},
{
horizontal = 1;
place = "{721, -20}";
target = down;
type = TopGhost;
},
{
horizontal = 1;
place = "{797, 108}";
type = Stem;
},
{
place = "{81, 91}";
type = Stem;
},
{
place = "{203, 110}";
type = Stem;
},
{
place = "{397, 110}";
type = Stem;
},
{
place = "{536, 91}";
type = Stem;
}
);
layerId = "5B3AE2B2-6F0E-4414-97DF-6676E601E692";
paths = (
{
closed = 1;
nodes = (
"203 813 OFFCURVE",
"225 791 OFFCURVE",
"255 791 CURVE SMOOTH",
"285 791 OFFCURVE",
"307 813 OFFCURVE",
"307 842 CURVE SMOOTH",
"307 871 OFFCURVE",
"285 893 OFFCURVE",
"255 893 CURVE SMOOTH",
"225 893 OFFCURVE",
"203 871 OFFCURVE",
"203 842 CURVE SMOOTH"
);
},
{
closed = 1;
nodes = (
"397 813 OFFCURVE",
"419 791 OFFCURVE",
"449 791 CURVE SMOOTH",
"479 791 OFFCURVE",
"501 813 OFFCURVE",
"501 842 CURVE SMOOTH",
"501 871 OFFCURVE",
"479 893 OFFCURVE",
"449 893 CURVE SMOOTH",
"419 893 OFFCURVE",
"397 871 OFFCURVE",
"397 842 CURVE SMOOTH"
);
},
{
closed = 1;
nodes = (
"519 -15 OFFCURVE",
"621 92 OFFCURVE",
"621 297 CURVE SMOOTH",
"621 715 LINE",
"536 715 LINE",
"536 276 LINE SMOOTH",
"536 138 OFFCURVE",
"468 60 OFFCURVE",
"350 60 CURVE SMOOTH",
"234 60 OFFCURVE",
"166 138 OFFCURVE",
"166 276 CURVE SMOOTH",
"166 715 LINE",
"81 715 LINE",
"81 297 LINE SMOOTH",
"81 92 OFFCURVE",
"185 -15 OFFCURVE",
"351 -15 CURVE SMOOTH"
);
}
);
width = 702;
}
);
note = Udieresis;
unicode = 00DC;
},
{
glyphname = Ugrave;
lastChange = "2024-06-22 13:48:17 +0000";
layers = (
{
hints = (
{
horizontal = 1;
place = "{-9, 81}";
type = Stem;
},
{
horizontal = 1;
place = "{721, -20}";
target = down;
type = TopGhost;
},
{
horizontal = 1;
place = "{801, 105}";
type = Stem;
},
{
place = "{81, 91}";
type = Stem;
},
{
place = "{536, 91}";
type = Stem;
}
);
layerId = "5B3AE2B2-6F0E-4414-97DF-6676E601E692";
paths = (
{
closed = 1;
nodes = (
"450 795 LINE",
"416 828 LINE SMOOTH",
"382 861 OFFCURVE",
"342 894 OFFCURVE",
"342 894 CURVE SMOOTH",
"262 894 LINE SMOOTH",
"262 894 OFFCURVE",
"291 861 OFFCURVE",
"326 828 CURVE SMOOTH",
"359 795 LINE"
);
},
{
closed = 1;
nodes = (
"519 -15 OFFCURVE",
"621 92 OFFCURVE",
"621 297 CURVE SMOOTH",
"621 715 LINE",
"536 715 LINE",
"536 276 LINE SMOOTH",
"536 138 OFFCURVE",
"468 60 OFFCURVE",
"350 60 CURVE SMOOTH",
"234 60 OFFCURVE",
"166 138 OFFCURVE",
"166 276 CURVE SMOOTH",
"166 715 LINE",
"81 715 LINE",
"81 297 LINE SMOOTH",
"81 92 OFFCURVE",
"185 -15 OFFCURVE",
"351 -15 CURVE SMOOTH"
);
}
);
width = 702;
}
);
note = Ugrave;
unicode = 00D9;
},
{
glyphname = V;
lastChange = "2024-06-22 13:48:17 +0000";
layers = (
{
hints = (
{
horizontal = 1;
place = "{6, 21}";
target = up;
type = BottomGhost;
},
{
horizontal = 1;
place = "{722, -20}";
target = down;
type = TopGhost;
},
{
place = "{11, 587}";
type = Stem;
}
);
layerId = "5B3AE2B2-6F0E-4414-97DF-6676E601E692";
paths = (
{
closed = 1;
nodes = (
"344 0 LINE",
"592 716 LINE",
"511 716 LINE",
"361 281 LINE SMOOTH",
"344 231 OFFCURVE",
"302 89 OFFCURVE",
"302 89 CURVE SMOOTH",
"302 89 OFFCURVE",
"259 231 OFFCURVE",
"242 281 CURVE SMOOTH",
"92 716 LINE",
"11 716 LINE",
"261 0 LINE"
);
}
);
width = 603;
}
);
note = V;
rightKerningGroup = V;
unicode = 0056;
},
{
glyphname = W;
lastChange = "2024-06-22 13:48:17 +0000";
layers = (
{
hints = (
{
horizontal = 1;
place = "{7, 21}";
target = up;
type = BottomGhost;
},
{
horizontal = 1;
place = "{722, -20}";
target = down;
type = TopGhost;
},
{
place = "{11, 938}";
type = Stem;
}
);
layerId = "5B3AE2B2-6F0E-4414-97DF-6676E601E692";
paths = (
{
closed = 1;
nodes = (
"729 1 LINE",
"943 716 LINE",
"862 716 LINE",
"733 277 LINE SMOOTH",
"720 232 OFFCURVE",
"691 110 OFFCURVE",
"691 110 CURVE SMOOTH",
"691 110 OFFCURVE",
"661 232 OFFCURVE",
"648 277 CURVE SMOOTH",
"517 716 LINE",
"437 716 LINE",
"306 275 LINE SMOOTH",
"293 231 OFFCURVE",
"264 110 OFFCURVE",
"264 110 CURVE SMOOTH",
"264 110 OFFCURVE",
"234 231 OFFCURVE",
"221 275 CURVE SMOOTH",
"92 716 LINE",
"11 716 LINE",
"225 1 LINE",
"302 1 LINE",
"477 586 LINE",
"652 1 LINE"
);
}
);
width = 954;
}
);
note = W;
rightKerningGroup = V;
unicode = 0057;
},
{
glyphname = Wacute;
lastChange = "2024-06-22 13:48:17 +0000";
layers = (
{
hints = (
{
horizontal = 1;
place = "{7, 21}";
target = up;
type = BottomGhost;
},
{
horizontal = 1;
place = "{722, -20}";
target = down;
type = TopGhost;
},
{
horizontal = 1;
place = "{801, 105}";
type = Stem;
},
{
place = "{11, 938}";
type = Stem;
}
);
layerId = "5B3AE2B2-6F0E-4414-97DF-6676E601E692";
paths = (
{
closed = 1;
nodes = (
"505 828 LINE SMOOTH",
"540 861 OFFCURVE",
"569 894 OFFCURVE",
"569 894 CURVE SMOOTH",
"489 894 LINE SMOOTH",
"489 894 OFFCURVE",
"449 861 OFFCURVE",
"415 828 CURVE SMOOTH",
"381 795 LINE",
"472 795 LINE"
);
},
{
closed = 1;
nodes = (
"729 1 LINE",
"943 716 LINE",
"862 716 LINE",
"733 277 LINE SMOOTH",
"720 232 OFFCURVE",
"691 110 OFFCURVE",
"691 110 CURVE SMOOTH",
"691 110 OFFCURVE",
"661 232 OFFCURVE",
"648 277 CURVE SMOOTH",
"517 716 LINE",
"437 716 LINE",
"306 275 LINE SMOOTH",
"293 231 OFFCURVE",
"264 110 OFFCURVE",
"264 110 CURVE SMOOTH",
"264 110 OFFCURVE",
"234 231 OFFCURVE",
"221 275 CURVE SMOOTH",
"92 716 LINE",
"11 716 LINE",
"225 1 LINE",
"302 1 LINE",
"477 586 LINE",
"652 1 LINE"
);
}
);
width = 954;
}
);
note = Wacute;
unicode = 1E82;
},
{
glyphname = Wcircumflex;
lastChange = "2024-06-22 13:48:17 +0000";
layers = (
{
hints = (
{
horizontal = 1;
place = "{7, 21}";
target = up;
type = BottomGhost;
},
{
horizontal = 1;
place = "{722, -20}";
target = down;
type = TopGhost;
},
{
horizontal = 1;
place = "{801, 105}";
type = Stem;
},
{
place = "{11, 938}";
type = Stem;
},
{
horizontal = 1;
place = "{866, 40}";
type = Stem;
}
);
layerId = "5B3AE2B2-6F0E-4414-97DF-6676E601E692";
paths = (
{
closed = 1;
nodes = (
"521 795 LINE",
"584 795 LINE",
"521 894 LINE",
"438 894 LINE",
"376 795 LINE",
"438 795 LINE",
"480 860 LINE"
);
},
{
closed = 1;
nodes = (
"733 277 LINE SMOOTH",
"720 232 OFFCURVE",
"691 110 OFFCURVE",
"691 110 CURVE SMOOTH",
"691 110 OFFCURVE",
"661 232 OFFCURVE",
"648 277 CURVE SMOOTH",
"517 716 LINE",
"437 716 LINE",
"306 275 LINE SMOOTH",
"293 231 OFFCURVE",
"264 110 OFFCURVE",
"264 110 CURVE SMOOTH",
"264 110 OFFCURVE",
"234 231 OFFCURVE",
"221 275 CURVE SMOOTH",
"92 716 LINE",
"11 716 LINE",
"225 1 LINE",
"302 1 LINE",
"477 586 LINE",
"652 1 LINE",
"729 1 LINE",
"943 716 LINE",
"862 716 LINE"
);
}
);
width = 954;
}
);
note = Wcircumflex;
unicode = 0174;
},
{
glyphname = Wdieresis;
lastChange = "2024-06-22 13:48:17 +0000";
layers = (
{
hints = (
{
horizontal = 1;
place = "{7, 21}";
target = up;
type = BottomGhost;
},
{
horizontal = 1;
place = "{722, -20}";
target = down;
type = TopGhost;
},
{
horizontal = 1;
place = "{797, 108}";
type = Stem;
},
{
place = "{331, 110}";
type = Stem;
},
{
place = "{525, 110}";
type = Stem;
}
);
layerId = "5B3AE2B2-6F0E-4414-97DF-6676E601E692";
paths = (
{
closed = 1;
nodes = (
"331 813 OFFCURVE",
"353 791 OFFCURVE",
"383 791 CURVE SMOOTH",
"413 791 OFFCURVE",
"435 813 OFFCURVE",
"435 842 CURVE SMOOTH",
"435 871 OFFCURVE",
"413 893 OFFCURVE",
"383 893 CURVE SMOOTH",
"353 893 OFFCURVE",
"331 871 OFFCURVE",
"331 842 CURVE SMOOTH"
);
},
{
closed = 1;
nodes = (
"525 813 OFFCURVE",
"547 791 OFFCURVE",
"577 791 CURVE SMOOTH",
"607 791 OFFCURVE",
"629 813 OFFCURVE",
"629 842 CURVE SMOOTH",
"629 871 OFFCURVE",
"607 893 OFFCURVE",
"577 893 CURVE SMOOTH",
"547 893 OFFCURVE",
"525 871 OFFCURVE",
"525 842 CURVE SMOOTH"
);
},
{
closed = 1;
nodes = (
"729 1 LINE",
"943 716 LINE",
"862 716 LINE",
"733 277 LINE SMOOTH",
"720 232 OFFCURVE",
"691 110 OFFCURVE",
"691 110 CURVE SMOOTH",
"691 110 OFFCURVE",
"661 232 OFFCURVE",
"648 277 CURVE SMOOTH",
"517 716 LINE",
"437 716 LINE",
"306 275 LINE SMOOTH",
"293 231 OFFCURVE",
"264 110 OFFCURVE",
"264 110 CURVE SMOOTH",
"264 110 OFFCURVE",
"234 231 OFFCURVE",
"221 275 CURVE SMOOTH",
"92 716 LINE",
"11 716 LINE",
"225 1 LINE",
"302 1 LINE",
"477 586 LINE",
"652 1 LINE"
);
}
);
width = 954;
}
);
note = Wdieresis;
unicode = 1E84;
},
{
glyphname = Wgrave;
lastChange = "2024-06-22 13:48:17 +0000";
layers = (
{
hints = (
{
horizontal = 1;
place = "{7, 21}";
target = up;
type = BottomGhost;
},
{
horizontal = 1;
place = "{722, -20}";
target = down;
type = TopGhost;
},
{
horizontal = 1;
place = "{801, 105}";
type = Stem;
},
{
place = "{11, 938}";
type = Stem;
}
);
layerId = "5B3AE2B2-6F0E-4414-97DF-6676E601E692";
paths = (
{
closed = 1;
nodes = (
"579 795 LINE",
"545 828 LINE SMOOTH",
"511 861 OFFCURVE",
"471 894 OFFCURVE",
"471 894 CURVE SMOOTH",
"391 894 LINE SMOOTH",
"391 894 OFFCURVE",
"420 861 OFFCURVE",
"455 828 CURVE SMOOTH",
"488 795 LINE"
);
},
{
closed = 1;
nodes = (
"729 1 LINE",
"943 716 LINE",
"862 716 LINE",
"733 277 LINE SMOOTH",
"720 232 OFFCURVE",
"691 110 OFFCURVE",
"691 110 CURVE SMOOTH",
"691 110 OFFCURVE",
"661 232 OFFCURVE",
"648 277 CURVE SMOOTH",
"517 716 LINE",
"437 716 LINE",
"306 275 LINE SMOOTH",
"293 231 OFFCURVE",
"264 110 OFFCURVE",
"264 110 CURVE SMOOTH",
"264 110 OFFCURVE",
"234 231 OFFCURVE",
"221 275 CURVE SMOOTH",
"92 716 LINE",
"11 716 LINE",
"225 1 LINE",
"302 1 LINE",
"477 586 LINE",
"652 1 LINE"
);
}
);
width = 954;
}
);
note = Wgrave;
unicode = 1E80;
},
{
glyphname = X;
lastChange = "2024-06-22 13:48:17 +0000";
layers = (
{
hints = (
{
horizontal = 1;
place = "{6, 21}";
target = up;
type = BottomGhost;
},
{
horizontal = 1;
place = "{721, -20}";
target = down;
type = TopGhost;
},
{
place = "{48, 543}";
type = Stem;
}
);
layerId = "5B3AE2B2-6F0E-4414-97DF-6676E601E692";
paths = (
{
closed = 1;
nodes = (
"207 462 LINE SMOOTH",
"226 431 OFFCURVE",
"266 369 OFFCURVE",
"266 369 CURVE SMOOTH",
"266 369 OFFCURVE",
"227 308 OFFCURVE",
"208 277 CURVE SMOOTH",
"48 22 LINE",
"136 22 LINE",
"233 177 LINE SMOOTH",
"258 217 OFFCURVE",
"309 299 OFFCURVE",
"309 299 CURVE",
"385 177 LINE",
"496 0 LINE",
"585 0 LINE",
"427 252 LINE SMOOTH",
"403 291 OFFCURVE",
"353 369 OFFCURVE",
"353 369 CURVE SMOOTH",
"353 369 OFFCURVE",
"404 448 OFFCURVE",
"429 488 CURVE SMOOTH",
"585 737 LINE",
"496 737 LINE",
"369 535 LINE SMOOTH",
"349 503 OFFCURVE",
"309 438 OFFCURVE",
"309 438 CURVE",
"248 536 LINE",
"136 715 LINE",
"48 715 LINE"
);
}
);
width = 633;
}
);
note = X;
unicode = 0058;
},
{
glyphname = Y;
lastChange = "2024-06-22 13:48:17 +0000";
layers = (
{
hints = (
{
horizontal = 1;
place = "{6, 21}";
target = up;
type = BottomGhost;
},
{
horizontal = 1;
place = "{722, -20}";
target = down;
type = TopGhost;
},
{
place = "{259, 91}";
type = Stem;
},
{
place = "{301, 49}";
type = Stem;
}
);
layerId = "5B3AE2B2-6F0E-4414-97DF-6676E601E692";
paths = (
{
closed = 1;
nodes = (
"344 0 LINE",
"344 322 LINE",
"591 716 LINE",
"502 716 LINE",
"338 455 LINE SMOOTH",
"323 432 OFFCURVE",
"301 393 OFFCURVE",
"301 393 CURVE SMOOTH",
"301 393 OFFCURVE",
"280 431 OFFCURVE",
"265 454 CURVE SMOOTH",
"100 716 LINE",
"11 716 LINE",
"259 322 LINE",
"259 0 LINE"
);
}
);
width = 602;
}
);
note = Y;
rightKerningGroup = V;
unicode = 0059;
},
{
glyphname = Yacute;
lastChange = "2024-06-22 13:48:17 +0000";
layers = (
{
hints = (
{
horizontal = 1;
place = "{6, 21}";
target = up;
type = BottomGhost;
},
{
horizontal = 1;
place = "{722, -20}";
target = down;
type = TopGhost;
},
{
horizontal = 1;
place = "{801, 105}";
type = Stem;
},
{
place = "{259, 91}";
type = Stem;
}
);
layerId = "5B3AE2B2-6F0E-4414-97DF-6676E601E692";
paths = (
{
closed = 1;
nodes = (
"329 828 LINE SMOOTH",
"364 861 OFFCURVE",
"393 894 OFFCURVE",
"393 894 CURVE SMOOTH",
"313 894 LINE SMOOTH",
"313 894 OFFCURVE",
"273 861 OFFCURVE",
"239 828 CURVE SMOOTH",
"205 795 LINE",
"296 795 LINE"
);
},
{
closed = 1;
nodes = (
"344 0 LINE",
"344 322 LINE",
"591 716 LINE",
"502 716 LINE",
"338 455 LINE SMOOTH",
"323 432 OFFCURVE",
"301 393 OFFCURVE",
"301 393 CURVE SMOOTH",
"301 393 OFFCURVE",
"280 431 OFFCURVE",
"265 454 CURVE SMOOTH",
"100 716 LINE",
"11 716 LINE",
"259 322 LINE",
"259 0 LINE"
);
}
);
width = 602;
}
);
note = Yacute;
unicode = 00DD;
},
{
glyphname = Ycircumflex;
lastChange = "2024-06-22 13:48:17 +0000";
layers = (
{
hints = (
{
horizontal = 1;
place = "{6, 21}";
target = up;
type = BottomGhost;
},
{
horizontal = 1;
place = "{722, -20}";
target = down;
type = TopGhost;
},
{
horizontal = 1;
place = "{801, 105}";
type = Stem;
},
{
place = "{259, 91}";
type = Stem;
},
{
horizontal = 1;
place = "{866, 40}";
type = Stem;
},
{
place = "{301, 49}";
type = Stem;
}
);
layerId = "5B3AE2B2-6F0E-4414-97DF-6676E601E692";
paths = (
{
closed = 1;
nodes = (
"345 795 LINE",
"408 795 LINE",
"345 894 LINE",
"262 894 LINE",
"200 795 LINE",
"262 795 LINE",
"304 860 LINE"
);
},
{
closed = 1;
nodes = (
"338 455 LINE SMOOTH",
"323 432 OFFCURVE",
"301 393 OFFCURVE",
"301 393 CURVE SMOOTH",
"301 393 OFFCURVE",
"280 431 OFFCURVE",
"265 454 CURVE SMOOTH",
"100 716 LINE",
"11 716 LINE",
"259 322 LINE",
"259 0 LINE",
"344 0 LINE",
"344 322 LINE",
"591 716 LINE",
"502 716 LINE"
);
}
);
width = 602;
}
);
note = Ycircumflex;
unicode = 0176;
},
{
glyphname = Ydieresis;
lastChange = "2024-06-22 13:48:17 +0000";
layers = (
{
hints = (
{
horizontal = 1;
place = "{6, 21}";
target = up;
type = BottomGhost;
},
{
horizontal = 1;
place = "{722, -20}";
target = down;
type = TopGhost;
},
{
horizontal = 1;
place = "{797, 108}";
type = Stem;
},
{
place = "{155, 110}";
type = Stem;
},
{
place = "{349, 110}";
type = Stem;
},
{
place = "{259, 91}";
type = Stem;
}
);
layerId = "5B3AE2B2-6F0E-4414-97DF-6676E601E692";
paths = (
{
closed = 1;
nodes = (
"155 813 OFFCURVE",
"177 791 OFFCURVE",
"207 791 CURVE SMOOTH",
"237 791 OFFCURVE",
"259 813 OFFCURVE",
"259 842 CURVE SMOOTH",
"259 871 OFFCURVE",
"237 893 OFFCURVE",
"207 893 CURVE SMOOTH",
"177 893 OFFCURVE",
"155 871 OFFCURVE",
"155 842 CURVE SMOOTH"
);
},
{
closed = 1;
nodes = (
"349 813 OFFCURVE",
"371 791 OFFCURVE",
"401 791 CURVE SMOOTH",
"431 791 OFFCURVE",
"453 813 OFFCURVE",
"453 842 CURVE SMOOTH",
"453 871 OFFCURVE",
"431 893 OFFCURVE",
"401 893 CURVE SMOOTH",
"371 893 OFFCURVE",
"349 871 OFFCURVE",
"349 842 CURVE SMOOTH"
);
},
{
closed = 1;
nodes = (
"344 0 LINE",
"344 322 LINE",
"591 716 LINE",
"502 716 LINE",
"338 455 LINE SMOOTH",
"323 432 OFFCURVE",
"301 393 OFFCURVE",
"301 393 CURVE SMOOTH",
"301 393 OFFCURVE",
"280 431 OFFCURVE",
"265 454 CURVE SMOOTH",
"100 716 LINE",
"11 716 LINE",
"259 322 LINE",
"259 0 LINE"
);
}
);
width = 602;
}
);
note = Ydieresis;
unicode = 0178;
},
{
glyphname = Ygrave;
lastChange = "2024-06-22 13:48:17 +0000";
layers = (
{
hints = (
{
horizontal = 1;
place = "{6, 21}";
target = up;
type = BottomGhost;
},
{
horizontal = 1;
place = "{722, -20}";
target = down;
type = TopGhost;
},
{
horizontal = 1;
place = "{801, 105}";
type = Stem;
},
{
place = "{259, 91}";
type = Stem;
}
);
layerId = "5B3AE2B2-6F0E-4414-97DF-6676E601E692";
paths = (
{
closed = 1;
nodes = (
"403 795 LINE",
"369 828 LINE SMOOTH",
"335 861 OFFCURVE",
"295 894 OFFCURVE",
"295 894 CURVE SMOOTH",
"215 894 LINE SMOOTH",
"215 894 OFFCURVE",
"244 861 OFFCURVE",
"279 828 CURVE SMOOTH",
"312 795 LINE"
);
},
{
closed = 1;
nodes = (
"344 0 LINE",
"344 322 LINE",
"591 716 LINE",
"502 716 LINE",
"338 455 LINE SMOOTH",
"323 432 OFFCURVE",
"301 393 OFFCURVE",
"301 393 CURVE SMOOTH",
"301 393 OFFCURVE",
"280 431 OFFCURVE",
"265 454 CURVE SMOOTH",
"100 716 LINE",
"11 716 LINE",
"259 322 LINE",
"259 0 LINE"
);
}
);
width = 602;
}
);
note = Ygrave;
unicode = 1EF2;
},
{
glyphname = Z;
lastChange = "2024-06-22 13:48:17 +0000";
layers = (
{
hints = (
{
horizontal = 1;
place = "{6, 77}";
type = Stem;
},
{
horizontal = 1;
place = "{650, 77}";
type = Stem;
},
{
place = "{48, 546}";
type = Stem;
}
);
layerId = "5B3AE2B2-6F0E-4414-97DF-6676E601E692";
paths = (
{
closed = 1;
nodes = (
"588 0 LINE",
"588 71 LINE",
"165 71 LINE",
"588 681 LINE",
"588 715 LINE",
"48 715 LINE",
"48 644 LINE",
"471 644 LINE",
"48 35 LINE",
"48 0 LINE"
);
}
);
width = 636;
}
);
note = Z;
rightKerningGroup = Z;
unicode = 005A;
},
{
glyphname = a;
lastChange = "2024-06-22 13:48:17 +0000";
layers = (
{
hints = (
{
horizontal = 1;
place = "{10, 80}";
type = Stem;
},
{
horizontal = 1;
place = "{255, 70}";
type = Stem;
},
{
horizontal = 1;
place = "{470, 81}";
type = Stem;
},
{
place = "{53, 92}";
type = Stem;
},
{
place = "{392, 86}";
type = Stem;
},
{
horizontal = 1;
place = "{-3, 78}";
type = Stem;
},
{
place = "{393, 85}";
type = Stem;
}
);
layerId = "5B3AE2B2-6F0E-4414-97DF-6676E601E692";
paths = (
{
closed = 1;
nodes = (
"461 364 LINE SMOOTH",
"461 461 OFFCURVE",
"390 531 OFFCURVE",
"260 531 CURVE SMOOTH",
"150 531 OFFCURVE",
"72 457 OFFCURVE",
"62 368 CURVE",
"138 349 LINE",
"153 436 OFFCURVE",
"202 460 OFFCURVE",
"271 460 CURVE SMOOTH",
"337 460 OFFCURVE",
"385 429 OFFCURVE",
"385 338 CURVE SMOOTH",
"385 304 LINE",
"379 305 OFFCURVE",
"306 313 OFFCURVE",
"237 305 CURVE SMOOTH",
"170 297 OFFCURVE",
"46 269 OFFCURVE",
"46 142 CURVE SMOOTH",
"46 49 OFFCURVE",
"134 -13 OFFCURVE",
"211 -13 CURVE SMOOTH",
"337 -13 OFFCURVE",
"371 50 OFFCURVE",
"386 69 CURVE",
"392 23 OFFCURVE",
"418 0 OFFCURVE",
"477 0 CURVE SMOOTH",
"507 0 OFFCURVE",
"520 6 OFFCURVE",
"520 6 CURVE",
"520 73 LINE",
"479 63 OFFCURVE",
"461 77 OFFCURVE",
"461 121 CURVE SMOOTH"
);
},
{
closed = 1;
nodes = (
"128 196 OFFCURVE",
"171 237 OFFCURVE",
"247 245 CURVE SMOOTH",
"322 253 OFFCURVE",
"367 251 OFFCURVE",
"385 250 CURVE",
"386 179 LINE",
"379 111 OFFCURVE",
"307 55 OFFCURVE",
"237 55 CURVE SMOOTH",
"185 55 OFFCURVE",
"128 83 OFFCURVE",
"128 137 CURVE SMOOTH"
);
}
);
width = 556;
}
);
leftKerningGroup = a;
leftMetricsKey = "=s-10";
note = a;
rightKerningGroup = a;
rightMetricsKey = "=s-10";
unicode = 0061;
},
{
glyphname = aacute;
lastChange = "2024-06-22 13:48:17 +0000";
layers = (
{
hints = (
{
horizontal = 1;
place = "{-7, 74}";
type = Stem;
},
{
horizontal = 1;
place = "{251, 66}";
type = Stem;
},
{
horizontal = 1;
place = "{466, 77}";
type = Stem;
},
{
horizontal = 1;
place = "{623, 105}";
type = Stem;
},
{
place = "{49, 88}";
type = Stem;
},
{
place = "{388, 82}";
type = Stem;
},
{
horizontal = 1;
place = "{6, 76}";
type = Stem;
},
{
place = "{389, 81}";
type = Stem;
}
);
layerId = "5B3AE2B2-6F0E-4414-97DF-6676E601E692";
paths = (
{
closed = 1;
nodes = (
"287 650 LINE SMOOTH",
"322 683 OFFCURVE",
"351 716 OFFCURVE",
"351 716 CURVE SMOOTH",
"271 716 LINE SMOOTH",
"271 716 OFFCURVE",
"231 683 OFFCURVE",
"197 650 CURVE SMOOTH",
"163 617 LINE",
"254 617 LINE"
);
},
{
closed = 1;
nodes = (
"464 364 LINE SMOOTH",
"464 461 OFFCURVE",
"393 531 OFFCURVE",
"263 531 CURVE SMOOTH",
"153 531 OFFCURVE",
"75 457 OFFCURVE",
"65 368 CURVE",
"149 368 LINE",
"155 432 OFFCURVE",
"205 460 OFFCURVE",
"274 460 CURVE SMOOTH",
"340 460 OFFCURVE",
"388 429 OFFCURVE",
"388 338 CURVE SMOOTH",
"388 304 LINE",
"382 305 OFFCURVE",
"309 313 OFFCURVE",
"240 305 CURVE SMOOTH",
"173 297 OFFCURVE",
"49 269 OFFCURVE",
"49 142 CURVE SMOOTH",
"49 49 OFFCURVE",
"137 -13 OFFCURVE",
"214 -13 CURVE SMOOTH",
"340 -13 OFFCURVE",
"374 50 OFFCURVE",
"389 69 CURVE",
"395 23 OFFCURVE",
"421 0 OFFCURVE",
"480 0 CURVE SMOOTH",
"510 0 OFFCURVE",
"523 6 OFFCURVE",
"523 6 CURVE",
"523 73 LINE",
"482 63 OFFCURVE",
"464 77 OFFCURVE",
"464 121 CURVE SMOOTH"
);
},
{
closed = 1;
nodes = (
"188 55 OFFCURVE",
"131 83 OFFCURVE",
"131 137 CURVE SMOOTH",
"131 196 OFFCURVE",
"174 237 OFFCURVE",
"250 245 CURVE SMOOTH",
"325 253 OFFCURVE",
"370 251 OFFCURVE",
"388 250 CURVE",
"389 179 LINE",
"382 111 OFFCURVE",
"310 55 OFFCURVE",
"240 55 CURVE SMOOTH"
);
},
{
closed = 1;
nodes = (
"389 190 LINE",
"389 187 LINE"
);
}
);
width = 564;
}
);
note = aacute;
unicode = 00E1;
},
{
glyphname = acircumflex;
lastChange = "2024-06-22 13:48:17 +0000";
layers = (
{
hints = (
{
horizontal = 1;
place = "{-7, 74}";
type = Stem;
},
{
horizontal = 1;
place = "{251, 66}";
type = Stem;
},
{
horizontal = 1;
place = "{466, 77}";
type = Stem;
},
{
horizontal = 1;
place = "{623, 105}";
type = Stem;
},
{
place = "{49, 88}";
type = Stem;
},
{
place = "{388, 82}";
type = Stem;
},
{
horizontal = 1;
place = "{6, 76}";
type = Stem;
},
{
horizontal = 1;
place = "{688, 40}";
type = Stem;
},
{
place = "{389, 81}";
type = Stem;
}
);
layerId = "5B3AE2B2-6F0E-4414-97DF-6676E601E692";
paths = (
{
closed = 1;
nodes = (
"297 617 LINE",
"360 617 LINE",
"297 716 LINE",
"214 716 LINE",
"152 617 LINE",
"214 617 LINE",
"256 682 LINE"
);
},
{
closed = 1;
nodes = (
"464 364 LINE SMOOTH",
"464 461 OFFCURVE",
"393 531 OFFCURVE",
"263 531 CURVE SMOOTH",
"153 531 OFFCURVE",
"75 457 OFFCURVE",
"65 368 CURVE",
"149 368 LINE",
"155 432 OFFCURVE",
"205 460 OFFCURVE",
"274 460 CURVE SMOOTH",
"340 460 OFFCURVE",
"388 429 OFFCURVE",
"388 338 CURVE SMOOTH",
"388 304 LINE",
"382 305 OFFCURVE",
"309 313 OFFCURVE",
"240 305 CURVE SMOOTH",
"173 297 OFFCURVE",
"49 269 OFFCURVE",
"49 142 CURVE SMOOTH",
"49 49 OFFCURVE",
"137 -13 OFFCURVE",
"214 -13 CURVE SMOOTH",
"340 -13 OFFCURVE",
"374 50 OFFCURVE",
"389 69 CURVE",
"395 23 OFFCURVE",
"421 0 OFFCURVE",
"480 0 CURVE SMOOTH",
"510 0 OFFCURVE",
"523 6 OFFCURVE",
"523 6 CURVE",
"523 73 LINE",
"482 63 OFFCURVE",
"464 77 OFFCURVE",
"464 121 CURVE SMOOTH"
);
},
{
closed = 1;
nodes = (
"188 55 OFFCURVE",
"131 83 OFFCURVE",
"131 137 CURVE SMOOTH",
"131 196 OFFCURVE",
"174 237 OFFCURVE",
"250 245 CURVE SMOOTH",
"325 253 OFFCURVE",
"370 251 OFFCURVE",
"388 250 CURVE",
"389 179 LINE",
"382 111 OFFCURVE",
"310 55 OFFCURVE",
"240 55 CURVE SMOOTH"
);
},
{
closed = 1;
nodes = (
"389 190 LINE",
"389 187 LINE"
);
}
);
width = 564;
}
);
note = acircumflex;
unicode = 00E2;
},
{
glyphname = adieresis;
lastChange = "2024-06-22 13:48:17 +0000";
layers = (
{
hints = (
{
horizontal = 1;
place = "{-7, 74}";
type = Stem;
},
{
horizontal = 1;
place = "{251, 66}";
type = Stem;
},
{
horizontal = 1;
place = "{466, 77}";
type = Stem;
},
{
horizontal = 1;
place = "{621, 108}";
type = Stem;
},
{
place = "{123, 110}";
type = Stem;
},
{
place = "{317, 110}";
type = Stem;
},
{
horizontal = 1;
place = "{6, 76}";
type = Stem;
},
{
place = "{49, 88}";
type = Stem;
},
{
place = "{388, 82}";
type = Stem;
},
{
place = "{389, 81}";
type = Stem;
}
);
layerId = "5B3AE2B2-6F0E-4414-97DF-6676E601E692";
paths = (
{
closed = 1;
nodes = (
"205 615 OFFCURVE",
"227 637 OFFCURVE",
"227 666 CURVE SMOOTH",
"227 695 OFFCURVE",
"205 717 OFFCURVE",
"175 717 CURVE SMOOTH",
"145 717 OFFCURVE",
"123 695 OFFCURVE",
"123 666 CURVE SMOOTH",
"123 637 OFFCURVE",
"145 615 OFFCURVE",
"175 615 CURVE SMOOTH"
);
},
{
closed = 1;
nodes = (
"399 615 OFFCURVE",
"421 637 OFFCURVE",
"421 666 CURVE SMOOTH",
"421 695 OFFCURVE",
"399 717 OFFCURVE",
"369 717 CURVE SMOOTH",
"339 717 OFFCURVE",
"317 695 OFFCURVE",
"317 666 CURVE SMOOTH",
"317 637 OFFCURVE",
"339 615 OFFCURVE",
"369 615 CURVE SMOOTH"
);
},
{
closed = 1;
nodes = (
"464 364 LINE SMOOTH",
"464 461 OFFCURVE",
"393 531 OFFCURVE",
"263 531 CURVE SMOOTH",
"153 531 OFFCURVE",
"75 457 OFFCURVE",
"65 368 CURVE",
"149 368 LINE",
"155 432 OFFCURVE",
"205 460 OFFCURVE",
"274 460 CURVE SMOOTH",
"340 460 OFFCURVE",
"388 429 OFFCURVE",
"388 338 CURVE SMOOTH",
"388 304 LINE",
"382 305 OFFCURVE",
"309 313 OFFCURVE",
"240 305 CURVE SMOOTH",
"173 297 OFFCURVE",
"49 269 OFFCURVE",
"49 142 CURVE SMOOTH",
"49 49 OFFCURVE",
"137 -13 OFFCURVE",
"214 -13 CURVE SMOOTH",
"340 -13 OFFCURVE",
"374 50 OFFCURVE",
"389 69 CURVE",
"395 23 OFFCURVE",
"421 0 OFFCURVE",
"480 0 CURVE SMOOTH",
"510 0 OFFCURVE",
"523 6 OFFCURVE",
"523 6 CURVE",
"523 73 LINE",
"482 63 OFFCURVE",
"464 77 OFFCURVE",
"464 121 CURVE SMOOTH"
);
},
{
closed = 1;
nodes = (
"188 55 OFFCURVE",
"131 83 OFFCURVE",
"131 137 CURVE SMOOTH",
"131 196 OFFCURVE",
"174 237 OFFCURVE",
"250 245 CURVE SMOOTH",
"325 253 OFFCURVE",
"370 251 OFFCURVE",
"388 250 CURVE",
"389 179 LINE",
"382 111 OFFCURVE",
"310 55 OFFCURVE",
"240 55 CURVE SMOOTH"
);
},
{
closed = 1;
nodes = (
"389 190 LINE",
"389 187 LINE"
);
}
);
width = 564;
}
);
note = adieresis;
unicode = 00E4;
},
{
glyphname = agrave;
lastChange = "2024-06-22 13:48:17 +0000";
layers = (
{
hints = (
{
horizontal = 1;
place = "{-7, 74}";
type = Stem;
},
{
horizontal = 1;
place = "{251, 66}";
type = Stem;
},
{
horizontal = 1;
place = "{466, 77}";
type = Stem;
},
{
horizontal = 1;
place = "{623, 105}";
type = Stem;
},
{
place = "{49, 88}";
type = Stem;
},
{
place = "{388, 82}";
type = Stem;
},
{
horizontal = 1;
place = "{6, 76}";
type = Stem;
},
{
place = "{389, 81}";
type = Stem;
}
);
layerId = "5B3AE2B2-6F0E-4414-97DF-6676E601E692";
paths = (
{
closed = 1;
nodes = (
"281 617 LINE",
"372 617 LINE",
"338 650 LINE SMOOTH",
"304 683 OFFCURVE",
"264 716 OFFCURVE",
"264 716 CURVE SMOOTH",
"184 716 LINE SMOOTH",
"184 716 OFFCURVE",
"213 683 OFFCURVE",
"248 650 CURVE SMOOTH"
);
},
{
closed = 1;
nodes = (
"464 364 LINE SMOOTH",
"464 461 OFFCURVE",
"393 531 OFFCURVE",
"263 531 CURVE SMOOTH",
"153 531 OFFCURVE",
"75 457 OFFCURVE",
"65 368 CURVE",
"149 368 LINE",
"155 432 OFFCURVE",
"205 460 OFFCURVE",
"274 460 CURVE SMOOTH",
"340 460 OFFCURVE",
"388 429 OFFCURVE",
"388 338 CURVE SMOOTH",
"388 304 LINE",
"382 305 OFFCURVE",
"309 313 OFFCURVE",
"240 305 CURVE SMOOTH",
"173 297 OFFCURVE",
"49 269 OFFCURVE",
"49 142 CURVE SMOOTH",
"49 49 OFFCURVE",
"137 -13 OFFCURVE",
"214 -13 CURVE SMOOTH",
"340 -13 OFFCURVE",
"374 50 OFFCURVE",
"389 69 CURVE",
"395 23 OFFCURVE",
"421 0 OFFCURVE",
"480 0 CURVE SMOOTH",
"510 0 OFFCURVE",
"523 6 OFFCURVE",
"523 6 CURVE",
"523 73 LINE",
"482 63 OFFCURVE",
"464 77 OFFCURVE",
"464 121 CURVE SMOOTH"
);
},
{
closed = 1;
nodes = (
"188 55 OFFCURVE",
"131 83 OFFCURVE",
"131 137 CURVE SMOOTH",
"131 196 OFFCURVE",
"174 237 OFFCURVE",
"250 245 CURVE SMOOTH",
"325 253 OFFCURVE",
"370 251 OFFCURVE",
"388 250 CURVE",
"389 179 LINE",
"382 111 OFFCURVE",
"310 55 OFFCURVE",
"240 55 CURVE SMOOTH"
);
},
{
closed = 1;
nodes = (
"389 190 LINE",
"389 187 LINE"
);
}
);
width = 564;
}
);
note = agrave;
unicode = 00E0;
},
{
glyphname = aring;
lastChange = "2024-06-22 13:48:17 +0000";
layers = (
{
hints = (
{
horizontal = 1;
place = "{-7, 74}";
type = Stem;
},
{
horizontal = 1;
place = "{251, 66}";
type = Stem;
},
{
horizontal = 1;
place = "{466, 77}";
type = Stem;
},
{
horizontal = 1;
place = "{602, 42}";
type = Stem;
},
{
horizontal = 1;
place = "{686, 42}";
type = Stem;
},
{
place = "{49, 88}";
type = Stem;
},
{
place = "{210, 44}";
type = Stem;
},
{
place = "{296, 44}";
type = Stem;
},
{
place = "{388, 82}";
type = Stem;
},
{
horizontal = 1;
place = "{6, 76}";
type = Stem;
},
{
place = "{389, 81}";
type = Stem;
}
);
layerId = "5B3AE2B2-6F0E-4414-97DF-6676E601E692";
paths = (
{
closed = 1;
nodes = (
"307 596 OFFCURVE",
"334 622 OFFCURVE",
"334 656 CURVE SMOOTH",
"334 690 OFFCURVE",
"307 716 OFFCURVE",
"272 716 CURVE SMOOTH",
"237 716 OFFCURVE",
"210 690 OFFCURVE",
"210 656 CURVE SMOOTH",
"210 622 OFFCURVE",
"237 596 OFFCURVE",
"272 596 CURVE SMOOTH"
);
},
{
closed = 1;
nodes = (
"286 680 OFFCURVE",
"296 670 OFFCURVE",
"296 656 CURVE SMOOTH",
"296 643 OFFCURVE",
"286 632 OFFCURVE",
"272 632 CURVE SMOOTH",
"258 632 OFFCURVE",
"248 643 OFFCURVE",
"248 656 CURVE SMOOTH",
"248 670 OFFCURVE",
"258 680 OFFCURVE",
"272 680 CURVE SMOOTH"
);
},
{
closed = 1;
nodes = (
"464 364 LINE SMOOTH",
"464 461 OFFCURVE",
"393 531 OFFCURVE",
"263 531 CURVE SMOOTH",
"153 531 OFFCURVE",
"75 457 OFFCURVE",
"65 368 CURVE",
"149 368 LINE",
"155 432 OFFCURVE",
"205 460 OFFCURVE",
"274 460 CURVE SMOOTH",
"340 460 OFFCURVE",
"388 429 OFFCURVE",
"388 338 CURVE SMOOTH",
"388 304 LINE",
"382 305 OFFCURVE",
"309 313 OFFCURVE",
"240 305 CURVE SMOOTH",
"173 297 OFFCURVE",
"49 269 OFFCURVE",
"49 142 CURVE SMOOTH",
"49 49 OFFCURVE",
"137 -13 OFFCURVE",
"214 -13 CURVE SMOOTH",
"340 -13 OFFCURVE",
"374 50 OFFCURVE",
"389 69 CURVE",
"395 23 OFFCURVE",
"421 0 OFFCURVE",
"480 0 CURVE SMOOTH",
"510 0 OFFCURVE",
"523 6 OFFCURVE",
"523 6 CURVE",
"523 73 LINE",
"482 63 OFFCURVE",
"464 77 OFFCURVE",
"464 121 CURVE SMOOTH"
);
},
{
closed = 1;
nodes = (
"188 55 OFFCURVE",
"131 83 OFFCURVE",
"131 137 CURVE SMOOTH",
"131 196 OFFCURVE",
"174 237 OFFCURVE",
"250 245 CURVE SMOOTH",
"325 253 OFFCURVE",
"370 251 OFFCURVE",
"388 250 CURVE",
"389 179 LINE",
"382 111 OFFCURVE",
"310 55 OFFCURVE",
"240 55 CURVE SMOOTH"
);
},
{
closed = 1;
nodes = (
"389 190 LINE",
"389 187 LINE"
);
}
);
width = 564;
}
);
note = aring;
unicode = 00E5;
},
{
glyphname = atilde;
lastChange = "2024-06-22 13:48:17 +0000";
layers = (
{
hints = (
{
horizontal = 1;
place = "{6, 76}";
type = Stem;
},
{
horizontal = 1;
place = "{251, 66}";
type = Stem;
},
{
horizontal = 1;
place = "{466, 77}";
type = Stem;
},
{
place = "{49, 88}";
type = Stem;
},
{
place = "{388, 82}";
type = Stem;
},
{
horizontal = 1;
place = "{-7, 74}";
type = Stem;
},
{
place = "{389, 81}";
type = Stem;
}
);
layerId = "5B3AE2B2-6F0E-4414-97DF-6676E601E692";
paths = (
{
closed = 1;
nodes = (
"464 364 LINE SMOOTH",
"464 461 OFFCURVE",
"393 531 OFFCURVE",
"263 531 CURVE SMOOTH",
"153 531 OFFCURVE",
"75 457 OFFCURVE",
"65 368 CURVE",
"149 368 LINE",
"155 432 OFFCURVE",
"205 460 OFFCURVE",
"274 460 CURVE SMOOTH",
"340 460 OFFCURVE",
"388 429 OFFCURVE",
"388 338 CURVE SMOOTH",
"388 304 LINE",
"382 305 OFFCURVE",
"309 313 OFFCURVE",
"240 305 CURVE SMOOTH",
"173 297 OFFCURVE",
"49 269 OFFCURVE",
"49 142 CURVE SMOOTH",
"49 49 OFFCURVE",
"137 -13 OFFCURVE",
"214 -13 CURVE SMOOTH",
"340 -13 OFFCURVE",
"374 50 OFFCURVE",
"389 69 CURVE",
"395 23 OFFCURVE",
"421 0 OFFCURVE",
"480 0 CURVE SMOOTH",
"510 0 OFFCURVE",
"523 6 OFFCURVE",
"523 6 CURVE",
"523 73 LINE",
"482 63 OFFCURVE",
"464 77 OFFCURVE",
"464 121 CURVE SMOOTH"
);
},
{
closed = 1;
nodes = (
"188 55 OFFCURVE",
"131 83 OFFCURVE",
"131 137 CURVE SMOOTH",
"131 196 OFFCURVE",
"174 237 OFFCURVE",
"250 245 CURVE SMOOTH",
"325 253 OFFCURVE",
"370 251 OFFCURVE",
"388 250 CURVE",
"389 179 LINE",
"382 111 OFFCURVE",
"310 55 OFFCURVE",
"240 55 CURVE SMOOTH"
);
},
{
closed = 1;
nodes = (
"389 190 LINE",
"389 187 LINE"
);
}
);
width = 564;
}
);
note = atilde;
unicode = 00E3;
},
{
glyphname = ae;
lastChange = "2024-06-22 13:48:17 +0000";
layers = (
{
hints = (
{
horizontal = 1;
place = "{-8, 73}";
type = Stem;
},
{
horizontal = 1;
place = "{251, 71}";
type = Stem;
},
{
horizontal = 1;
place = "{470, 72}";
type = Stem;
},
{
place = "{49, 89}";
type = Stem;
},
{
place = "{389, 95}";
type = Stem;
},
{
place = "{795, 89}";
type = Stem;
},
{
horizontal = 1;
place = "{-9, 70}";
type = Stem;
},
{
horizontal = 1;
place = "{475, 67}";
type = Stem;
}
);
layerId = "5B3AE2B2-6F0E-4414-97DF-6676E601E692";
paths = (
{
closed = 1;
nodes = (
"878 258 LINE SMOOTH",
"878 408 OFFCURVE",
"804 530 OFFCURVE",
"647 530 CURVE SMOOTH",
"564 530 OFFCURVE",
"498 494 OFFCURVE",
"454 438 CURVE",
"431 495 OFFCURVE",
"365 530 OFFCURVE",
"263 530 CURVE SMOOTH",
"153 530 OFFCURVE",
"77 472 OFFCURVE",
"65 367 CURVE",
"147 367 LINE",
"155 440 OFFCURVE",
"205 469 OFFCURVE",
"274 469 CURVE SMOOTH",
"340 469 OFFCURVE",
"387 434 OFFCURVE",
"387 391 CURVE SMOOTH",
"387 338 OFFCURVE",
"333 324 OFFCURVE",
"240 301 CURVE SMOOTH",
"131 277 OFFCURVE",
"49 254 OFFCURVE",
"49 144 CURVE SMOOTH",
"49 51 OFFCURVE",
"136 -15 OFFCURVE",
"228 -15 CURVE SMOOTH",
"301 -15 OFFCURVE",
"400 17 OFFCURVE",
"416 147 CURVE",
"452 52 OFFCURVE",
"534 -14 OFFCURVE",
"647 -14 CURVE SMOOTH",
"769 -14 OFFCURVE",
"842 62 OFFCURVE",
"867 155 CURVE",
"786 155 LINE",
"770 105 OFFCURVE",
"726 53 OFFCURVE",
"647 53 CURVE SMOOTH",
"537 53 OFFCURVE",
"483 142 OFFCURVE",
"478 247 CURVE",
"498 246 OFFCURVE",
"544 245 OFFCURVE",
"585 245 CURVE SMOOTH",
"878 245 LINE"
);
},
{
closed = 1;
nodes = (
"735 464 OFFCURVE",
"785 395 OFFCURVE",
"795 310 CURVE",
"585 310 LINE SMOOTH",
"546 310 OFFCURVE",
"503 309 OFFCURVE",
"482 308 CURVE",
"496 394 OFFCURVE",
"537 464 OFFCURVE",
"648 464 CURVE SMOOTH"
);
},
{
closed = 1;
nodes = (
"389 226 LINE SMOOTH",
"389 120 OFFCURVE",
"322 49 OFFCURVE",
"250 49 CURVE SMOOTH",
"180 49 OFFCURVE",
"132 85 OFFCURVE",
"132 139 CURVE SMOOTH",
"132 181 OFFCURVE",
"155 214 OFFCURVE",
"267 238 CURVE SMOOTH",
"312 248 OFFCURVE",
"355 258 OFFCURVE",
"389 274 CURVE"
);
}
);
width = 927;
}
);
note = ae;
unicode = 00E6;
},
{
glyphname = b;
lastChange = "2024-06-22 13:48:17 +0000";
layers = (
{
hints = (
{
horizontal = 1;
place = "{-9, 76}";
type = Stem;
},
{
horizontal = 1;
place = "{467, 75}";
type = Stem;
},
{
horizontal = 1;
place = "{723, -20}";
target = down;
type = TopGhost;
},
{
place = "{83, 87}";
type = Stem;
},
{
place = "{466, 89}";
type = Stem;
},
{
horizontal = 1;
place = "{6, 21}";
target = up;
type = BottomGhost;
}
);
layerId = "5B3AE2B2-6F0E-4414-97DF-6676E601E692";
paths = (
{
closed = 1;
nodes = (
"451 -15 OFFCURVE",
"549 87 OFFCURVE",
"549 258 CURVE SMOOTH",
"549 428 OFFCURVE",
"452 530 OFFCURVE",
"341 530 CURVE SMOOTH",
"252 530 OFFCURVE",
"186 481 OFFCURVE",
"164 435 CURVE",
"164 717 LINE",
"83 717 LINE",
"83 0 LINE",
"164 0 LINE",
"164 80 LINE",
"186 34 OFFCURVE",
"252 -15 OFFCURVE",
"341 -15 CURVE SMOOTH"
);
},
{
closed = 1;
nodes = (
"164 371 OFFCURVE",
"217 461 OFFCURVE",
"316 461 CURVE SMOOTH",
"394 461 OFFCURVE",
"466 391 OFFCURVE",
"466 257 CURVE SMOOTH",
"466 125 OFFCURVE",
"395 55 OFFCURVE",
"316 55 CURVE SMOOTH",
"217 55 OFFCURVE",
"164 145 OFFCURVE",
"164 257 CURVE SMOOTH"
);
}
);
width = 598;
}
);
note = b;
unicode = 0062;
},
{
glyphname = c;
lastChange = "2024-06-22 13:48:17 +0000";
layers = (
{
hints = (
{
horizontal = 1;
place = "{-6, 82}";
type = Stem;
},
{
horizontal = 1;
place = "{467, 81}";
type = Stem;
},
{
place = "{53, 93}";
type = Stem;
}
);
layerId = "5B3AE2B2-6F0E-4414-97DF-6676E601E692";
paths = (
{
closed = 1;
nodes = (
"428 -16 OFFCURVE",
"506 63 OFFCURVE",
"519 146 CURVE",
"445 165 LINE",
"430 108 OFFCURVE",
"377 56 OFFCURVE",
"303 56 CURVE SMOOTH",
"197 56 OFFCURVE",
"136 149 OFFCURVE",
"136 255 CURVE SMOOTH",
"136 365 OFFCURVE",
"196 457 OFFCURVE",
"304 457 CURVE SMOOTH",
"377 457 OFFCURVE",
"429 404 OFFCURVE",
"444 348 CURVE",
"519 367 LINE",
"507 444 OFFCURVE",
"429 528 OFFCURVE",
"303 528 CURVE SMOOTH",
"149 528 OFFCURVE",
"53 406 OFFCURVE",
"53 256 CURVE SMOOTH",
"53 106 OFFCURVE",
"149 -16 OFFCURVE",
"303 -16 CURVE SMOOTH"
);
}
);
width = 574;
}
);
leftKerningGroup = c;
note = c;
unicode = 0063;
},
{
glyphname = ccedilla;
lastChange = "2024-06-22 13:48:17 +0000";
layers = (
{
hints = (
{
horizontal = 1;
place = "{-10, 78}";
type = Stem;
},
{
horizontal = 1;
place = "{463, 77}";
type = Stem;
},
{
place = "{49, 89}";
type = Stem;
}
);
layerId = "5B3AE2B2-6F0E-4414-97DF-6676E601E692";
paths = (
{
closed = 1;
nodes = (
"424 -16 OFFCURVE",
"502 63 OFFCURVE",
"522 165 CURVE",
"441 165 LINE",
"426 108 OFFCURVE",
"373 56 OFFCURVE",
"299 56 CURVE SMOOTH",
"193 56 OFFCURVE",
"132 149 OFFCURVE",
"132 255 CURVE SMOOTH",
"132 365 OFFCURVE",
"192 457 OFFCURVE",
"300 457 CURVE SMOOTH",
"373 457 OFFCURVE",
"425 404 OFFCURVE",
"440 348 CURVE",
"523 348 LINE",
"503 449 OFFCURVE",
"425 528 OFFCURVE",
"299 528 CURVE SMOOTH",
"145 528 OFFCURVE",
"49 406 OFFCURVE",
"49 256 CURVE SMOOTH",
"49 106 OFFCURVE",
"145 -16 OFFCURVE",
"299 -16 CURVE SMOOTH"
);
}
);
width = 566;
}
);
note = ccedilla;
unicode = 00E7;
},
{
glyphname = d;
lastChange = "2024-06-22 13:48:17 +0000";
layers = (
{
hints = (
{
horizontal = 1;
place = "{-5, 80}";
type = Stem;
},
{
horizontal = 1;
place = "{471, 79}";
type = Stem;
},
{
horizontal = 1;
place = "{727, -20}";
target = down;
type = TopGhost;
},
{
place = "{53, 93}";
type = Stem;
},
{
place = "{438, 91}";
type = Stem;
},
{
horizontal = 1;
place = "{10, 21}";
target = up;
type = BottomGhost;
}
);
layerId = "5B3AE2B2-6F0E-4414-97DF-6676E601E692";
paths = (
{
closed = 1;
nodes = (
"353 -15 OFFCURVE",
"419 34 OFFCURVE",
"441 80 CURVE",
"441 0 LINE",
"522 0 LINE",
"522 717 LINE",
"441 717 LINE",
"441 435 LINE",
"419 481 OFFCURVE",
"353 530 OFFCURVE",
"264 530 CURVE SMOOTH",
"153 530 OFFCURVE",
"56 428 OFFCURVE",
"56 258 CURVE SMOOTH",
"56 87 OFFCURVE",
"154 -15 OFFCURVE",
"264 -15 CURVE SMOOTH"
);
},
{
closed = 1;
nodes = (
"139 391 OFFCURVE",
"211 461 OFFCURVE",
"289 461 CURVE SMOOTH",
"388 461 OFFCURVE",
"441 371 OFFCURVE",
"441 257 CURVE SMOOTH",
"441 145 OFFCURVE",
"388 55 OFFCURVE",
"289 55 CURVE SMOOTH",
"210 55 OFFCURVE",
"139 125 OFFCURVE",
"139 257 CURVE SMOOTH"
);
}
);
width = 609;
}
);
leftKerningGroup = o;
leftMetricsKey = o;
note = d;
rightMetricsKey = n;
unicode = 0064;
},
{
glyphname = e;
lastChange = "2024-06-22 13:48:17 +0000";
layers = (
{
hints = (
{
horizontal = 1;
place = "{-4, 77}";
type = Stem;
},
{
horizontal = 1;
place = "{255, 75}";
type = Stem;
},
{
horizontal = 1;
place = "{474, 76}";
type = Stem;
},
{
place = "{53, 91}";
type = Stem;
},
{
place = "{451, 93}";
type = Stem;
}
);
layerId = "5B3AE2B2-6F0E-4414-97DF-6676E601E692";
paths = (
{
closed = 1;
nodes = (
"420 -14 OFFCURVE",
"493 62 OFFCURVE",
"512 136 CURVE",
"437 155 LINE",
"421 105 OFFCURVE",
"377 53 OFFCURVE",
"298 53 CURVE SMOOTH",
"188 53 OFFCURVE",
"134 142 OFFCURVE",
"129 247 CURVE",
"149 246 OFFCURVE",
"195 245 OFFCURVE",
"236 245 CURVE SMOOTH",
"529 245 LINE",
"529 258 LINE SMOOTH",
"529 408 OFFCURVE",
"455 530 OFFCURVE",
"298 530 CURVE SMOOTH",
"144 530 OFFCURVE",
"48 408 OFFCURVE",
"48 258 CURVE SMOOTH",
"48 108 OFFCURVE",
"144 -14 OFFCURVE",
"298 -14 CURVE SMOOTH"
);
},
{
closed = 1;
nodes = (
"147 394 OFFCURVE",
"188 464 OFFCURVE",
"299 464 CURVE SMOOTH",
"386 464 OFFCURVE",
"436 395 OFFCURVE",
"446 310 CURVE",
"236 310 LINE SMOOTH",
"197 310 OFFCURVE",
"154 309 OFFCURVE",
"133 308 CURVE"
);
}
);
width = 585;
}
);
leftKerningGroup = e;
note = e;
rightKerningGroup = o;
rightMetricsKey = o;
unicode = 0065;
},
{
glyphname = eacute;
lastChange = "2024-06-22 13:48:17 +0000";
layers = (
{
hints = (
{
horizontal = 1;
place = "{-8, 73}";
type = Stem;
},
{
horizontal = 1;
place = "{251, 71}";
type = Stem;
},
{
horizontal = 1;
place = "{470, 72}";
type = Stem;
},
{
horizontal = 1;
place = "{623, 105}";
type = Stem;
},
{
place = "{49, 87}";
type = Stem;
},
{
place = "{447, 89}";
type = Stem;
}
);
layerId = "5B3AE2B2-6F0E-4414-97DF-6676E601E692";
paths = (
{
closed = 1;
nodes = (
"294 650 LINE SMOOTH",
"329 683 OFFCURVE",
"358 716 OFFCURVE",
"358 716 CURVE SMOOTH",
"278 716 LINE SMOOTH",
"278 716 OFFCURVE",
"238 683 OFFCURVE",
"204 650 CURVE SMOOTH",
"170 617 LINE",
"261 617 LINE"
);
},
{
closed = 1;
nodes = (
"421 -14 OFFCURVE",
"494 62 OFFCURVE",
"519 155 CURVE",
"438 155 LINE",
"422 105 OFFCURVE",
"378 53 OFFCURVE",
"299 53 CURVE SMOOTH",
"189 53 OFFCURVE",
"135 142 OFFCURVE",
"130 247 CURVE",
"150 246 OFFCURVE",
"196 245 OFFCURVE",
"237 245 CURVE SMOOTH",
"530 245 LINE",
"530 258 LINE SMOOTH",
"530 408 OFFCURVE",
"456 530 OFFCURVE",
"299 530 CURVE SMOOTH",
"145 530 OFFCURVE",
"49 408 OFFCURVE",
"49 258 CURVE SMOOTH",
"49 108 OFFCURVE",
"145 -14 OFFCURVE",
"299 -14 CURVE SMOOTH"
);
},
{
closed = 1;
nodes = (
"148 394 OFFCURVE",
"189 464 OFFCURVE",
"300 464 CURVE SMOOTH",
"387 464 OFFCURVE",
"437 395 OFFCURVE",
"447 310 CURVE",
"237 310 LINE SMOOTH",
"198 310 OFFCURVE",
"155 309 OFFCURVE",
"134 308 CURVE"
);
}
);
width = 579;
}
);
note = eacute;
unicode = 00E9;
},
{
glyphname = ecircumflex;
lastChange = "2024-06-22 13:48:17 +0000";
layers = (
{
hints = (
{
horizontal = 1;
place = "{-8, 73}";
type = Stem;
},
{
horizontal = 1;
place = "{251, 71}";
type = Stem;
},
{
horizontal = 1;
place = "{470, 72}";
type = Stem;
},
{
horizontal = 1;
place = "{623, 105}";
type = Stem;
},
{
place = "{49, 87}";
type = Stem;
},
{
horizontal = 1;
place = "{688, 40}";
type = Stem;
},
{
place = "{447, 89}";
type = Stem;
}
);
layerId = "5B3AE2B2-6F0E-4414-97DF-6676E601E692";
paths = (
{
closed = 1;
nodes = (
"305 617 LINE",
"368 617 LINE",
"305 716 LINE",
"222 716 LINE",
"160 617 LINE",
"222 617 LINE",
"264 682 LINE"
);
},
{
closed = 1;
nodes = (
"530 258 LINE SMOOTH",
"530 408 OFFCURVE",
"456 530 OFFCURVE",
"299 530 CURVE SMOOTH",
"145 530 OFFCURVE",
"49 408 OFFCURVE",
"49 258 CURVE SMOOTH",
"49 108 OFFCURVE",
"145 -14 OFFCURVE",
"299 -14 CURVE SMOOTH",
"421 -14 OFFCURVE",
"494 62 OFFCURVE",
"519 155 CURVE",
"438 155 LINE",
"422 105 OFFCURVE",
"378 53 OFFCURVE",
"299 53 CURVE SMOOTH",
"189 53 OFFCURVE",
"135 142 OFFCURVE",
"130 247 CURVE",
"150 246 OFFCURVE",
"196 245 OFFCURVE",
"237 245 CURVE SMOOTH",
"530 245 LINE"
);
},
{
closed = 1;
nodes = (
"387 464 OFFCURVE",
"437 395 OFFCURVE",
"447 310 CURVE",
"237 310 LINE SMOOTH",
"198 310 OFFCURVE",
"155 309 OFFCURVE",
"134 308 CURVE",
"148 394 OFFCURVE",
"189 464 OFFCURVE",
"300 464 CURVE SMOOTH"
);
}
);
width = 579;
}
);
note = ecircumflex;
unicode = 00EA;
},
{
glyphname = edieresis;
lastChange = "2024-06-22 13:48:17 +0000";
layers = (
{
hints = (
{
horizontal = 1;
place = "{-8, 73}";
type = Stem;
},
{
horizontal = 1;
place = "{251, 71}";
type = Stem;
},
{
horizontal = 1;
place = "{470, 72}";
type = Stem;
},
{
horizontal = 1;
place = "{636, 108}";
type = Stem;
},
{
place = "{123, 110}";
type = Stem;
},
{
place = "{317, 110}";
type = Stem;
},
{
place = "{49, 87}";
type = Stem;
},
{
place = "{447, 89}";
type = Stem;
}
);
layerId = "5B3AE2B2-6F0E-4414-97DF-6676E601E692";
paths = (
{
closed = 1;
nodes = (
"123 652 OFFCURVE",
"145 630 OFFCURVE",
"175 630 CURVE SMOOTH",
"205 630 OFFCURVE",
"227 652 OFFCURVE",
"227 681 CURVE SMOOTH",
"227 710 OFFCURVE",
"205 732 OFFCURVE",
"175 732 CURVE SMOOTH",
"145 732 OFFCURVE",
"123 710 OFFCURVE",
"123 681 CURVE SMOOTH"
);
},
{
closed = 1;
nodes = (
"317 652 OFFCURVE",
"339 630 OFFCURVE",
"369 630 CURVE SMOOTH",
"399 630 OFFCURVE",
"421 652 OFFCURVE",
"421 681 CURVE SMOOTH",
"421 710 OFFCURVE",
"399 732 OFFCURVE",
"369 732 CURVE SMOOTH",
"339 732 OFFCURVE",
"317 710 OFFCURVE",
"317 681 CURVE SMOOTH"
);
},
{
closed = 1;
nodes = (
"421 -14 OFFCURVE",
"494 62 OFFCURVE",
"519 155 CURVE",
"438 155 LINE",
"422 105 OFFCURVE",
"378 53 OFFCURVE",
"299 53 CURVE SMOOTH",
"189 53 OFFCURVE",
"135 142 OFFCURVE",
"130 247 CURVE",
"150 246 OFFCURVE",
"196 245 OFFCURVE",
"237 245 CURVE SMOOTH",
"530 245 LINE",
"530 258 LINE SMOOTH",
"530 408 OFFCURVE",
"456 530 OFFCURVE",
"299 530 CURVE SMOOTH",
"145 530 OFFCURVE",
"49 408 OFFCURVE",
"49 258 CURVE SMOOTH",
"49 108 OFFCURVE",
"145 -14 OFFCURVE",
"299 -14 CURVE SMOOTH"
);
},
{
closed = 1;
nodes = (
"148 394 OFFCURVE",
"189 464 OFFCURVE",
"300 464 CURVE SMOOTH",
"387 464 OFFCURVE",
"437 395 OFFCURVE",
"447 310 CURVE",
"237 310 LINE SMOOTH",
"198 310 OFFCURVE",
"155 309 OFFCURVE",
"134 308 CURVE"
);
}
);
width = 579;
}
);
note = edieresis;
unicode = 00EB;
},
{
glyphname = egrave;
lastChange = "2024-06-22 13:48:17 +0000";
layers = (
{
hints = (
{
horizontal = 1;
place = "{-8, 73}";
type = Stem;
},
{
horizontal = 1;
place = "{251, 71}";
type = Stem;
},
{
horizontal = 1;
place = "{470, 72}";
type = Stem;
},
{
horizontal = 1;
place = "{623, 105}";
type = Stem;
},
{
place = "{49, 87}";
type = Stem;
},
{
place = "{447, 89}";
type = Stem;
}
);
layerId = "5B3AE2B2-6F0E-4414-97DF-6676E601E692";
paths = (
{
closed = 1;
nodes = (
"379 617 LINE",
"345 650 LINE SMOOTH",
"311 683 OFFCURVE",
"271 716 OFFCURVE",
"271 716 CURVE SMOOTH",
"191 716 LINE SMOOTH",
"191 716 OFFCURVE",
"220 683 OFFCURVE",
"255 650 CURVE SMOOTH",
"288 617 LINE"
);
},
{
closed = 1;
nodes = (
"421 -14 OFFCURVE",
"494 62 OFFCURVE",
"519 155 CURVE",
"438 155 LINE",
"422 105 OFFCURVE",
"378 53 OFFCURVE",
"299 53 CURVE SMOOTH",
"189 53 OFFCURVE",
"135 142 OFFCURVE",
"130 247 CURVE",
"150 246 OFFCURVE",
"196 245 OFFCURVE",
"237 245 CURVE SMOOTH",
"530 245 LINE",
"530 258 LINE SMOOTH",
"530 408 OFFCURVE",
"456 530 OFFCURVE",
"299 530 CURVE SMOOTH",
"145 530 OFFCURVE",
"49 408 OFFCURVE",
"49 258 CURVE SMOOTH",
"49 108 OFFCURVE",
"145 -14 OFFCURVE",
"299 -14 CURVE SMOOTH"
);
},
{
closed = 1;
nodes = (
"148 394 OFFCURVE",
"189 464 OFFCURVE",
"300 464 CURVE SMOOTH",
"387 464 OFFCURVE",
"437 395 OFFCURVE",
"447 310 CURVE",
"237 310 LINE SMOOTH",
"198 310 OFFCURVE",
"155 309 OFFCURVE",
"134 308 CURVE"
);
}
);
width = 579;
}
);
note = egrave;
unicode = 00E8;
},
{
glyphname = f;
lastChange = "2024-06-22 13:48:17 +0000";
layers = (
{
hints = (
{
horizontal = 1;
place = "{10, 21}";
target = up;
type = BottomGhost;
},
{
horizontal = 1;
place = "{460, 77}";
type = Stem;
},
{
horizontal = 1;
place = "{660, 76}";
type = Stem;
},
{
place = "{132, 91}";
type = Stem;
},
{
place = "{212, 122}";
type = Stem;
}
);
layerId = "5B3AE2B2-6F0E-4414-97DF-6676E601E692";
paths = (
{
closed = 1;
nodes = (
"213 0 LINE",
"213 362 LINE SMOOTH",
"213 391 OFFCURVE",
"212 451 OFFCURVE",
"212 451 CURVE SMOOTH",
"212 451 OFFCURVE",
"243 450 OFFCURVE",
"260 450 CURVE SMOOTH",
"336 450 LINE",
"336 517 LINE",
"260 517 LINE SMOOTH",
"243 517 OFFCURVE",
"212 516 OFFCURVE",
"212 516 CURVE",
"213 579 LINE SMOOTH",
"214 659 OFFCURVE",
"299 649 OFFCURVE",
"336 639 CURVE",
"336 706 LINE",
"336 706 OFFCURVE",
"281 719 OFFCURVE",
"247 716 CURVE SMOOTH",
"168 710 OFFCURVE",
"132 655 OFFCURVE",
"132 592 CURVE SMOOTH",
"132 567 OFFCURVE",
"133 516 OFFCURVE",
"133 516 CURVE SMOOTH",
"133 516 OFFCURVE",
"103 517 OFFCURVE",
"88 517 CURVE SMOOTH",
"40 517 LINE",
"40 450 LINE",
"88 450 LINE SMOOTH",
"103 450 OFFCURVE",
"133 451 OFFCURVE",
"133 451 CURVE SMOOTH",
"133 451 OFFCURVE",
"132 392 OFFCURVE",
"132 362 CURVE SMOOTH",
"132 0 LINE"
);
}
);
width = 382;
}
);
note = f;
rightKerningGroup = f;
unicode = 0066;
},
{
glyphname = g;
lastChange = "2024-06-22 13:48:17 +0000";
layers = (
{
hints = (
{
horizontal = 1;
place = "{-171, 81}";
type = Stem;
},
{
horizontal = 1;
place = "{215, 69}";
type = Stem;
},
{
horizontal = 1;
place = "{470, 81}";
type = Stem;
},
{
place = "{101, 81}";
type = Stem;
},
{
place = "{450, 91}";
type = Stem;
},
{
horizontal = 1;
place = "{203, 81}";
type = Stem;
},
{
place = "{92, 91}";
type = Stem;
},
{
place = "{396, 91}";
type = Stem;
},
{
place = "{60, 91}";
type = Stem;
}
);
layerId = "5B3AE2B2-6F0E-4414-97DF-6676E601E692";
paths = (
{
closed = 1;
nodes = (
"184 122 OFFCURVE",
"165 143 OFFCURVE",
"165 166 CURVE SMOOTH",
"165 188 OFFCURVE",
"179 203 OFFCURVE",
"209 205 CURVE",
"231 197 OFFCURVE",
"255 193 OFFCURVE",
"277 193 CURVE SMOOTH",
"376 193 OFFCURVE",
"470 258 OFFCURVE",
"470 363 CURVE SMOOTH",
"470 403 OFFCURVE",
"455 438 OFFCURVE",
"432 465 CURVE",
"451 485 OFFCURVE",
"483 496 OFFCURVE",
"503 493 CURVE",
"503 558 LINE",
"503 558 OFFCURVE",
"500 562 OFFCURVE",
"470 562 CURVE SMOOTH",
"431 562 OFFCURVE",
"402 535 OFFCURVE",
"385 503 CURVE",
"353 521 OFFCURVE",
"315 531 OFFCURVE",
"277 531 CURVE SMOOTH",
"177 531 OFFCURVE",
"85 465 OFFCURVE",
"85 363 CURVE SMOOTH",
"85 311 OFFCURVE",
"111 268 OFFCURVE",
"148 238 CURVE",
"112 225 OFFCURVE",
"94 199 OFFCURVE",
"94 166 CURVE SMOOTH",
"94 145 OFFCURVE",
"102 121 OFFCURVE",
"123 101 CURVE",
"79 79 OFFCURVE",
"53 39 OFFCURVE",
"53 -27 CURVE SMOOTH",
"53 -136 OFFCURVE",
"160 -181 OFFCURVE",
"291 -181 CURVE SMOOTH",
"422 -181 OFFCURVE",
"523 -136 OFFCURVE",
"524 -27 CURVE SMOOTH",
"524 89 OFFCURVE",
"424 129 OFFCURVE",
"286 125 CURVE SMOOTH"
);
},
{
closed = 1;
nodes = (
"345 460 OFFCURVE",
"389 429 OFFCURVE",
"389 362 CURVE SMOOTH",
"389 293 OFFCURVE",
"345 264 OFFCURVE",
"278 264 CURVE SMOOTH",
"210 265 OFFCURVE",
"167 295 OFFCURVE",
"166 362 CURVE",
"166 428 OFFCURVE",
"211 460 OFFCURVE",
"278 460 CURVE SMOOTH"
);
},
{
closed = 1;
nodes = (
"198 -110 OFFCURVE",
"135 -80 OFFCURVE",
"134 -27 CURVE",
"134 18 OFFCURVE",
"157 54 OFFCURVE",
"289 54 CURVE SMOOTH",
"407 54 OFFCURVE",
"443 18 OFFCURVE",
"443 -27 CURVE SMOOTH",
"443 -78 OFFCURVE",
"389 -110 OFFCURVE",
"292 -110 CURVE SMOOTH"
);
}
);
width = 570;
}
);
leftMetricsKey = a;
note = g;
rightKerningGroup = a;
rightMetricsKey = s;
unicode = 0067;
},
{
glyphname = h;
lastChange = "2024-06-22 13:48:17 +0000";
layers = (
{
hints = (
{
horizontal = 1;
place = "{10, 21}";
target = up;
type = BottomGhost;
},
{
horizontal = 1;
place = "{471, 80}";
type = Stem;
},
{
horizontal = 1;
place = "{726, -20}";
target = down;
type = TopGhost;
},
{
place = "{87, 91}";
type = Stem;
},
{
place = "{427, 91}";
type = Stem;
}
);
layerId = "5B3AE2B2-6F0E-4414-97DF-6676E601E692";
paths = (
{
closed = 1;
nodes = (
"166 333 LINE SMOOTH",
"166 389 OFFCURVE",
"224 461 OFFCURVE",
"317 461 CURVE SMOOTH",
"387 461 OFFCURVE",
"425 425 OFFCURVE",
"425 338 CURVE SMOOTH",
"425 0 LINE",
"506 0 LINE",
"506 374 LINE SMOOTH",
"506 471 OFFCURVE",
"435 531 OFFCURVE",
"342 531 CURVE SMOOTH",
"254 531 OFFCURVE",
"187 479 OFFCURVE",
"166 445 CURVE",
"166 716 LINE",
"85 716 LINE",
"85 0 LINE",
"166 0 LINE"
);
}
);
width = 591;
}
);
leftKerningGroup = n;
leftMetricsKey = n;
note = h;
rightMetricsKey = n;
unicode = 0068;
},
{
glyphname = i;
lastChange = "2024-06-22 13:48:17 +0000";
layers = (
{
hints = (
{
place = "{61, 87}";
type = Stem;
}
);
layerId = "5B3AE2B2-6F0E-4414-97DF-6676E601E692";
paths = (
{
closed = 1;
nodes = (
"83 640 OFFCURVE",
"105 618 OFFCURVE",
"135 618 CURVE SMOOTH",
"165 618 OFFCURVE",
"187 640 OFFCURVE",
"187 669 CURVE SMOOTH",
"187 698 OFFCURVE",
"165 720 OFFCURVE",
"135 720 CURVE SMOOTH",
"105 720 OFFCURVE",
"83 698 OFFCURVE",
"83 669 CURVE SMOOTH"
);
},
{
closed = 1;
nodes = (
"176 0 LINE",
"176 517 LINE",
"95 517 LINE",
"95 0 LINE"
);
}
);
width = 270;
}
);
note = i;
unicode = 0069;
},
{
glyphname = iacute;
lastChange = "2024-06-22 13:48:17 +0000";
layers = (
{
hints = (
{
horizontal = 1;
place = "{6, 21}";
target = up;
type = BottomGhost;
},
{
horizontal = 1;
place = "{523, -20}";
target = down;
type = TopGhost;
},
{
horizontal = 1;
place = "{623, 105}";
type = Stem;
},
{
place = "{146, 87}";
type = Stem;
}
);
layerId = "5B3AE2B2-6F0E-4414-97DF-6676E601E692";
paths = (
{
closed = 1;
nodes = (
"207 650 LINE SMOOTH",
"242 683 OFFCURVE",
"271 716 OFFCURVE",
"271 716 CURVE SMOOTH",
"191 716 LINE SMOOTH",
"191 716 OFFCURVE",
"151 683 OFFCURVE",
"117 650 CURVE SMOOTH",
"83 617 LINE",
"174 617 LINE"
);
},
{
closed = 1;
nodes = (
"227 0 LINE",
"227 517 LINE",
"146 517 LINE",
"146 0 LINE"
);
}
);
width = 354;
}
);
note = iacute;
unicode = 00ED;
},
{
glyphname = icircumflex;
lastChange = "2024-06-22 13:48:17 +0000";
layers = (
{
hints = (
{
horizontal = 1;
place = "{6, 21}";
target = up;
type = BottomGhost;
},
{
horizontal = 1;
place = "{523, -20}";
target = down;
type = TopGhost;
},
{
horizontal = 1;
place = "{624, 105}";
type = Stem;
},
{
place = "{83, 87}";
type = Stem;
},
{
horizontal = 1;
place = "{689, 40}";
type = Stem;
}
);
layerId = "5B3AE2B2-6F0E-4414-97DF-6676E601E692";
paths = (
{
closed = 1;
nodes = (
"224 618 LINE",
"161 717 LINE",
"78 717 LINE",
"16 618 LINE",
"78 618 LINE",
"120 683 LINE",
"161 618 LINE"
);
},
{
closed = 1;
nodes = (
"164 0 LINE",
"164 517 LINE",
"83 517 LINE",
"83 0 LINE"
);
}
);
width = 247;
}
);
note = icircumflex;
unicode = 00EE;
},
{
glyphname = idieresis;
lastChange = "2024-06-22 13:48:17 +0000";
layers = (
{
hints = (
{
horizontal = 1;
place = "{6, 21}";
target = up;
type = BottomGhost;
},
{
horizontal = 1;
place = "{523, -20}";
target = down;
type = TopGhost;
},
{
horizontal = 1;
place = "{620, 108}";
type = Stem;
},
{
place = "{-29, 110}";
type = Stem;
},
{
place = "{165, 110}";
type = Stem;
},
{
place = "{83, 87}";
type = Stem;
}
);
layerId = "5B3AE2B2-6F0E-4414-97DF-6676E601E692";
paths = (
{
closed = 1;
nodes = (
"-29 636 OFFCURVE",
"-7 614 OFFCURVE",
"23 614 CURVE SMOOTH",
"53 614 OFFCURVE",
"75 636 OFFCURVE",
"75 665 CURVE SMOOTH",
"75 694 OFFCURVE",
"53 716 OFFCURVE",
"23 716 CURVE SMOOTH",
"-7 716 OFFCURVE",
"-29 694 OFFCURVE",
"-29 665 CURVE SMOOTH"
);
},
{
closed = 1;
nodes = (
"165 636 OFFCURVE",
"187 614 OFFCURVE",
"217 614 CURVE SMOOTH",
"247 614 OFFCURVE",
"269 636 OFFCURVE",
"269 665 CURVE SMOOTH",
"269 694 OFFCURVE",
"247 716 OFFCURVE",
"217 716 CURVE SMOOTH",
"187 716 OFFCURVE",
"165 694 OFFCURVE",
"165 665 CURVE SMOOTH"
);
},
{
closed = 1;
nodes = (
"164 0 LINE",
"164 517 LINE",
"83 517 LINE",
"83 0 LINE"
);
}
);
width = 247;
}
);
note = idieresis;
unicode = 00EF;
},
{
glyphname = igrave;
lastChange = "2024-06-22 13:48:17 +0000";
layers = (
{
hints = (
{
horizontal = 1;
place = "{6, 21}";
target = up;
type = BottomGhost;
},
{
horizontal = 1;
place = "{523, -20}";
target = down;
type = TopGhost;
},
{
horizontal = 1;
place = "{623, 105}";
type = Stem;
},
{
place = "{136, 87}";
type = Stem;
}
);
layerId = "5B3AE2B2-6F0E-4414-97DF-6676E601E692";
paths = (
{
closed = 1;
nodes = (
"271 617 LINE",
"237 650 LINE SMOOTH",
"203 683 OFFCURVE",
"163 716 OFFCURVE",
"163 716 CURVE SMOOTH",
"83 716 LINE SMOOTH",
"83 716 OFFCURVE",
"112 683 OFFCURVE",
"147 650 CURVE SMOOTH",
"180 617 LINE"
);
},
{
closed = 1;
nodes = (
"217 0 LINE",
"217 517 LINE",
"136 517 LINE",
"136 0 LINE"
);
}
);
width = 354;
}
);
note = igrave;
unicode = 00EC;
},
{
glyphname = j;
lastChange = "2024-06-22 13:48:17 +0000";
layers = (
{
hints = (
{
horizontal = 1;
place = "{-86, 77}";
type = Stem;
}
);
layerId = "5B3AE2B2-6F0E-4414-97DF-6676E601E692";
paths = (
{
closed = 1;
nodes = (
"81 640 OFFCURVE",
"103 618 OFFCURVE",
"133 618 CURVE SMOOTH",
"163 618 OFFCURVE",
"185 640 OFFCURVE",
"185 669 CURVE SMOOTH",
"185 698 OFFCURVE",
"163 720 OFFCURVE",
"133 720 CURVE SMOOTH",
"103 720 OFFCURVE",
"81 698 OFFCURVE",
"81 669 CURVE SMOOTH"
);
},
{
closed = 1;
nodes = (
"171 517 LINE",
"90 517 LINE",
"90 -32 LINE SMOOTH",
"90 -84 OFFCURVE",
"78 -96 OFFCURVE",
"46 -96 CURVE SMOOTH",
"22 -96 OFFCURVE",
"0 -90 OFFCURVE",
"0 -90 CURVE",
"0 -157 LINE",
"0 -157 OFFCURVE",
"11 -166 OFFCURVE",
"54 -166 CURVE SMOOTH",
"122 -166 OFFCURVE",
"171 -140 OFFCURVE",
"171 -67 CURVE SMOOTH"
);
}
);
width = 270;
}
);
leftKerningGroup = j;
note = j;
rightMetricsKey = n;
unicode = 006A;
},
{
glyphname = k;
lastChange = "2024-06-22 13:48:17 +0000";
layers = (
{
hints = (
{
horizontal = 1;
place = "{7, 21}";
target = up;
type = BottomGhost;
},
{
horizontal = 1;
place = "{522, -20}";
target = down;
type = TopGhost;
},
{
horizontal = 1;
place = "{723, -20}";
target = down;
type = TopGhost;
},
{
place = "{84, 87}";
type = Stem;
},
{
horizontal = 1;
place = "{6, 21}";
target = up;
type = BottomGhost;
}
);
layerId = "5B3AE2B2-6F0E-4414-97DF-6676E601E692";
paths = (
{
closed = 1;
nodes = (
"164 197 LINE",
"164 197 OFFCURVE",
"198 232 OFFCURVE",
"215 251 CURVE",
"257 192 LINE",
"397 0 LINE",
"489 0 LINE",
"265 305 LINE",
"457 516 LINE",
"368 516 LINE",
"226 362 LINE SMOOTH",
"205 340 OFFCURVE",
"164 293 OFFCURVE",
"164 293 CURVE",
"164 717 LINE",
"84 717 LINE",
"83 0 LINE",
"164 1 LINE"
);
}
);
width = 520;
}
);
note = k;
rightKerningGroup = k;
unicode = 006B;
},
{
glyphname = l;
lastChange = "2024-06-22 13:48:17 +0000";
layers = (
{
hints = (
{
horizontal = 1;
place = "{10, 21}";
target = up;
type = BottomGhost;
},
{
horizontal = 1;
place = "{726, -20}";
target = down;
type = TopGhost;
},
{
place = "{87, 91}";
type = Stem;
}
);
layerId = "5B3AE2B2-6F0E-4414-97DF-6676E601E692";
paths = (
{
closed = 1;
nodes = (
"166 0 LINE",
"166 716 LINE",
"85 716 LINE",
"85 0 LINE"
);
}
);
width = 251;
}
);
leftMetricsKey = n;
note = l;
rightKerningGroup = n;
rightMetricsKey = n;
unicode = 006C;
},
{
glyphname = m;
lastChange = "2024-06-22 13:48:17 +0000";
layers = (
{
hints = (
{
horizontal = 1;
place = "{10, 21}";
target = up;
type = BottomGhost;
},
{
horizontal = 1;
place = "{471, 80}";
type = Stem;
},
{
place = "{87, 91}";
type = Stem;
},
{
place = "{396, 91}";
type = Stem;
},
{
place = "{705, 91}";
type = Stem;
},
{
horizontal = 1;
place = "{471, 66}";
type = Stem;
}
);
layerId = "5B3AE2B2-6F0E-4414-97DF-6676E601E692";
paths = (
{
closed = 1;
nodes = (
"552 531 OFFCURVE",
"489 489 OFFCURVE",
"460 448 CURVE",
"435 500 OFFCURVE",
"384 531 OFFCURVE",
"324 531 CURVE SMOOTH",
"236 531 OFFCURVE",
"187 479 OFFCURVE",
"166 445 CURVE",
"166 517 LINE",
"85 517 LINE",
"85 0 LINE",
"166 0 LINE",
"166 333 LINE SMOOTH",
"166 389 OFFCURVE",
"206 461 OFFCURVE",
"299 461 CURVE SMOOTH",
"360 461 OFFCURVE",
"394 425 OFFCURVE",
"394 338 CURVE SMOOTH",
"394 0 LINE",
"475 0 LINE",
"475 333 LINE SMOOTH",
"475 389 OFFCURVE",
"515 461 OFFCURVE",
"608 461 CURVE SMOOTH",
"669 461 OFFCURVE",
"703 425 OFFCURVE",
"703 338 CURVE SMOOTH",
"704 225 OFFCURVE",
"703 113 OFFCURVE",
"703 0 CURVE",
"784 0 LINE",
"784 374 LINE SMOOTH",
"784 471 OFFCURVE",
"717 531 OFFCURVE",
"633 531 CURVE SMOOTH"
);
}
);
width = 869;
}
);
leftKerningGroup = m;
leftMetricsKey = n;
note = m;
rightKerningGroup = n;
rightMetricsKey = n;
unicode = 006D;
},
{
glyphname = n;
lastChange = "2024-06-22 13:48:17 +0000";
layers = (
{
hints = (
{
horizontal = 1;
place = "{471, 78}";
type = Stem;
},
{
place = "{65, 91}";
type = Stem;
},
{
place = "{405, 91}";
type = Stem;
}
);
layerId = "5B3AE2B2-6F0E-4414-97DF-6676E601E692";
paths = (
{
closed = 1;
nodes = (
"166 333 LINE SMOOTH",
"166 389 OFFCURVE",
"224 461 OFFCURVE",
"317 461 CURVE SMOOTH",
"387 461 OFFCURVE",
"425 425 OFFCURVE",
"425 338 CURVE SMOOTH",
"425 0 LINE",
"506 0 LINE",
"506 374 LINE SMOOTH",
"506 471 OFFCURVE",
"435 531 OFFCURVE",
"342 531 CURVE SMOOTH",
"254 531 OFFCURVE",
"187 479 OFFCURVE",
"166 445 CURVE",
"166 517 LINE",
"85 517 LINE",
"85 0 LINE",
"166 0 LINE"
);
}
);
width = 585;
}
);
leftKerningGroup = n;
note = n;
unicode = 006E;
},
{
glyphname = ntilde;
lastChange = "2024-06-22 13:48:17 +0000";
layers = (
{
hints = (
{
horizontal = 1;
place = "{467, 74}";
type = Stem;
},
{
place = "{61, 87}";
type = Stem;
},
{
place = "{401, 87}";
type = Stem;
}
);
layerId = "5B3AE2B2-6F0E-4414-97DF-6676E601E692";
paths = (
{
closed = 1;
nodes = (
"164 333 LINE SMOOTH",
"164 389 OFFCURVE",
"222 461 OFFCURVE",
"315 461 CURVE SMOOTH",
"385 461 OFFCURVE",
"423 425 OFFCURVE",
"423 338 CURVE SMOOTH",
"423 0 LINE",
"504 0 LINE",
"504 374 LINE SMOOTH",
"504 471 OFFCURVE",
"433 531 OFFCURVE",
"340 531 CURVE SMOOTH",
"252 531 OFFCURVE",
"185 479 OFFCURVE",
"164 445 CURVE",
"164 517 LINE",
"83 517 LINE",
"83 0 LINE",
"164 0 LINE"
);
}
);
width = 587;
}
);
note = ntilde;
unicode = 00F1;
},
{
glyphname = o;
lastChange = "2024-06-22 13:48:17 +0000";
layers = (
{
hints = (
{
horizontal = 1;
place = "{-4, 91}";
type = Stem;
},
{
horizontal = 1;
place = "{459, 91}";
type = Stem;
},
{
place = "{32, 93}";
type = Stem;
},
{
place = "{448, 93}";
type = Stem;
}
);
layerId = "5B3AE2B2-6F0E-4414-97DF-6676E601E692";
paths = (
{
closed = 1;
nodes = (
"446 -14 OFFCURVE",
"540 108 OFFCURVE",
"540 258 CURVE SMOOTH",
"540 408 OFFCURVE",
"448 530 OFFCURVE",
"291 530 CURVE SMOOTH",
"137 530 OFFCURVE",
"41 408 OFFCURVE",
"41 258 CURVE SMOOTH",
"41 108 OFFCURVE",
"137 -14 OFFCURVE",
"291 -14 CURVE SMOOTH"
);
},
{
closed = 1;
nodes = (
"124 366 OFFCURVE",
"184 459 OFFCURVE",
"291 459 CURVE SMOOTH",
"401 459 OFFCURVE",
"458 366 OFFCURVE",
"458 258 CURVE SMOOTH",
"458 151 OFFCURVE",
"398 58 OFFCURVE",
"291 58 CURVE SMOOTH",
"185 58 OFFCURVE",
"124 151 OFFCURVE",
"124 258 CURVE SMOOTH"
);
}
);
width = 586;
}
);
leftKerningGroup = o;
note = o;
rightKerningGroup = o;
unicode = 006F;
},
{
glyphname = oacute;
lastChange = "2024-06-22 13:48:17 +0000";
layers = (
{
hints = (
{
horizontal = 1;
place = "{-8, 87}";
type = Stem;
},
{
horizontal = 1;
place = "{455, 87}";
type = Stem;
},
{
horizontal = 1;
place = "{623, 105}";
type = Stem;
},
{
place = "{28, 89}";
type = Stem;
},
{
place = "{174, 194}";
type = Stem;
},
{
place = "{444, 89}";
type = Stem;
}
);
layerId = "5B3AE2B2-6F0E-4414-97DF-6676E601E692";
paths = (
{
closed = 1;
nodes = (
"298 650 LINE SMOOTH",
"333 683 OFFCURVE",
"362 716 OFFCURVE",
"362 716 CURVE SMOOTH",
"282 716 LINE SMOOTH",
"282 716 OFFCURVE",
"242 683 OFFCURVE",
"208 650 CURVE SMOOTH",
"174 617 LINE",
"265 617 LINE"
);
},
{
closed = 1;
nodes = (
"451 -14 OFFCURVE",
"545 108 OFFCURVE",
"545 258 CURVE SMOOTH",
"545 408 OFFCURVE",
"453 530 OFFCURVE",
"296 530 CURVE SMOOTH",
"142 530 OFFCURVE",
"46 408 OFFCURVE",
"46 258 CURVE SMOOTH",
"46 108 OFFCURVE",
"142 -14 OFFCURVE",
"296 -14 CURVE SMOOTH"
);
},
{
closed = 1;
nodes = (
"129 366 OFFCURVE",
"189 459 OFFCURVE",
"296 459 CURVE SMOOTH",
"406 459 OFFCURVE",
"463 366 OFFCURVE",
"463 258 CURVE SMOOTH",
"463 151 OFFCURVE",
"403 58 OFFCURVE",
"296 58 CURVE SMOOTH",
"190 58 OFFCURVE",
"129 151 OFFCURVE",
"129 258 CURVE SMOOTH"
);
}
);
width = 591;
}
);
note = oacute;
unicode = 00F3;
},
{
glyphname = ocircumflex;
lastChange = "2024-06-22 13:48:17 +0000";
layers = (
{
hints = (
{
horizontal = 1;
place = "{-8, 87}";
type = Stem;
},
{
horizontal = 1;
place = "{455, 87}";
type = Stem;
},
{
horizontal = 1;
place = "{623, 105}";
type = Stem;
},
{
place = "{28, 89}";
type = Stem;
},
{
place = "{169, 214}";
type = Stem;
},
{
place = "{444, 89}";
type = Stem;
},
{
horizontal = 1;
place = "{688, 40}";
type = Stem;
}
);
layerId = "5B3AE2B2-6F0E-4414-97DF-6676E601E692";
paths = (
{
closed = 1;
nodes = (
"231 716 LINE",
"169 617 LINE",
"231 617 LINE",
"273 682 LINE",
"314 617 LINE",
"377 617 LINE",
"314 716 LINE"
);
},
{
closed = 1;
nodes = (
"451 -14 OFFCURVE",
"545 108 OFFCURVE",
"545 258 CURVE SMOOTH",
"545 408 OFFCURVE",
"453 530 OFFCURVE",
"296 530 CURVE SMOOTH",
"142 530 OFFCURVE",
"46 408 OFFCURVE",
"46 258 CURVE SMOOTH",
"46 108 OFFCURVE",
"142 -14 OFFCURVE",
"296 -14 CURVE SMOOTH"
);
},
{
closed = 1;
nodes = (
"129 366 OFFCURVE",
"189 459 OFFCURVE",
"296 459 CURVE SMOOTH",
"406 459 OFFCURVE",
"463 366 OFFCURVE",
"463 258 CURVE SMOOTH",
"463 151 OFFCURVE",
"403 58 OFFCURVE",
"296 58 CURVE SMOOTH",
"190 58 OFFCURVE",
"129 151 OFFCURVE",
"129 258 CURVE SMOOTH"
);
}
);
width = 591;
}
);
note = ocircumflex;
unicode = 00F4;
},
{
glyphname = odieresis;
lastChange = "2024-06-22 13:48:17 +0000";
layers = (
{
hints = (
{
horizontal = 1;
place = "{-8, 87}";
type = Stem;
},
{
horizontal = 1;
place = "{455, 87}";
type = Stem;
},
{
horizontal = 1;
place = "{620, 108}";
type = Stem;
},
{
place = "{28, 89}";
type = Stem;
},
{
place = "{142, 110}";
type = Stem;
},
{
place = "{336, 110}";
type = Stem;
},
{
place = "{444, 89}";
type = Stem;
}
);
layerId = "5B3AE2B2-6F0E-4414-97DF-6676E601E692";
paths = (
{
closed = 1;
nodes = (
"142 636 OFFCURVE",
"164 614 OFFCURVE",
"194 614 CURVE SMOOTH",
"224 614 OFFCURVE",
"246 636 OFFCURVE",
"246 665 CURVE SMOOTH",
"246 694 OFFCURVE",
"224 716 OFFCURVE",
"194 716 CURVE SMOOTH",
"164 716 OFFCURVE",
"142 694 OFFCURVE",
"142 665 CURVE SMOOTH"
);
},
{
closed = 1;
nodes = (
"336 636 OFFCURVE",
"358 614 OFFCURVE",
"388 614 CURVE SMOOTH",
"418 614 OFFCURVE",
"440 636 OFFCURVE",
"440 665 CURVE SMOOTH",
"440 694 OFFCURVE",
"418 716 OFFCURVE",
"388 716 CURVE SMOOTH",
"358 716 OFFCURVE",
"336 694 OFFCURVE",
"336 665 CURVE SMOOTH"
);
},
{
closed = 1;
nodes = (
"451 -14 OFFCURVE",
"545 108 OFFCURVE",
"545 258 CURVE SMOOTH",
"545 408 OFFCURVE",
"453 530 OFFCURVE",
"296 530 CURVE SMOOTH",
"142 530 OFFCURVE",
"46 408 OFFCURVE",
"46 258 CURVE SMOOTH",
"46 108 OFFCURVE",
"142 -14 OFFCURVE",
"296 -14 CURVE SMOOTH"
);
},
{
closed = 1;
nodes = (
"129 366 OFFCURVE",
"189 459 OFFCURVE",
"296 459 CURVE SMOOTH",
"406 459 OFFCURVE",
"463 366 OFFCURVE",
"463 258 CURVE SMOOTH",
"463 151 OFFCURVE",
"403 58 OFFCURVE",
"296 58 CURVE SMOOTH",
"190 58 OFFCURVE",
"129 151 OFFCURVE",
"129 258 CURVE SMOOTH"
);
}
);
width = 591;
}
);
note = odieresis;
unicode = 00F6;
},
{
glyphname = ograve;
lastChange = "2024-06-22 13:48:17 +0000";
layers = (
{
hints = (
{
horizontal = 1;
place = "{-8, 87}";
type = Stem;
},
{
horizontal = 1;
place = "{455, 87}";
type = Stem;
},
{
horizontal = 1;
place = "{623, 105}";
type = Stem;
},
{
place = "{192, 194}";
type = Stem;
},
{
place = "{563, 89}";
type = Stem;
}
);
layerId = "5B3AE2B2-6F0E-4414-97DF-6676E601E692";
paths = (
{
closed = 1;
nodes = (
"316 650 LINE SMOOTH",
"351 683 OFFCURVE",
"380 716 OFFCURVE",
"380 716 CURVE SMOOTH",
"300 716 LINE SMOOTH",
"300 716 OFFCURVE",
"260 683 OFFCURVE",
"226 650 CURVE SMOOTH",
"192 617 LINE",
"283 617 LINE"
);
},
{
closed = 1;
nodes = (
"449 -14 OFFCURVE",
"545 108 OFFCURVE",
"545 258 CURVE SMOOTH",
"545 408 OFFCURVE",
"449 530 OFFCURVE",
"295 530 CURVE SMOOTH",
"138 530 OFFCURVE",
"46 408 OFFCURVE",
"46 258 CURVE SMOOTH",
"46 108 OFFCURVE",
"140 -14 OFFCURVE",
"295 -14 CURVE SMOOTH"
);
},
{
closed = 1;
nodes = (
"462 151 OFFCURVE",
"401 58 OFFCURVE",
"295 58 CURVE SMOOTH",
"188 58 OFFCURVE",
"128 151 OFFCURVE",
"128 258 CURVE SMOOTH",
"128 366 OFFCURVE",
"185 459 OFFCURVE",
"295 459 CURVE SMOOTH",
"402 459 OFFCURVE",
"462 366 OFFCURVE",
"462 258 CURVE SMOOTH"
);
}
);
width = 591;
}
);
note = ograve;
unicode = 00F2;
},
{
glyphname = oslash;
lastChange = "2024-06-22 13:48:17 +0000";
layers = (
{
hints = (
{
horizontal = 1;
place = "{-88, 21}";
target = up;
type = BottomGhost;
},
{
horizontal = 1;
place = "{-8, 87}";
type = Stem;
},
{
horizontal = 1;
place = "{455, 87}";
type = Stem;
},
{
horizontal = 1;
place = "{658, -20}";
target = down;
type = TopGhost;
},
{
place = "{28, 89}";
type = Stem;
},
{
place = "{444, 89}";
type = Stem;
}
);
layerId = "5B3AE2B2-6F0E-4414-97DF-6676E601E692";
paths = (
{
closed = 1;
nodes = (
"571 652 LINE",
"484 652 LINE",
"401 509 LINE",
"370 522 OFFCURVE",
"335 530 OFFCURVE",
"296 530 CURVE SMOOTH",
"142 530 OFFCURVE",
"46 408 OFFCURVE",
"46 258 CURVE SMOOTH",
"46 173 OFFCURVE",
"77 96 OFFCURVE",
"132 46 CURVE",
"51 -94 LINE",
"138 -94 LINE",
"196 6 LINE",
"226 -7 OFFCURVE",
"259 -14 OFFCURVE",
"296 -14 CURVE SMOOTH",
"451 -14 OFFCURVE",
"545 108 OFFCURVE",
"545 258 CURVE SMOOTH",
"545 342 OFFCURVE",
"516 417 OFFCURVE",
"464 467 CURVE"
);
},
{
closed = 1;
nodes = (
"129 366 OFFCURVE",
"189 459 OFFCURVE",
"296 459 CURVE SMOOTH",
"321 459 OFFCURVE",
"344 454 OFFCURVE",
"364 445 CURVE",
"173 117 LINE",
"145 154 OFFCURVE",
"129 204 OFFCURVE",
"129 258 CURVE SMOOTH"
);
},
{
closed = 1;
nodes = (
"273 58 OFFCURVE",
"252 62 OFFCURVE",
"233 70 CURVE",
"423 396 LINE",
"449 360 OFFCURVE",
"463 311 OFFCURVE",
"463 258 CURVE SMOOTH",
"463 151 OFFCURVE",
"403 58 OFFCURVE",
"296 58 CURVE SMOOTH"
);
}
);
width = 620;
}
);
note = oslash;
unicode = 00F8;
},
{
glyphname = otilde;
lastChange = "2024-06-22 13:48:17 +0000";
layers = (
{
hints = (
{
horizontal = 1;
place = "{-8, 87}";
type = Stem;
},
{
horizontal = 1;
place = "{455, 87}";
type = Stem;
},
{
place = "{28, 89}";
type = Stem;
},
{
place = "{444, 89}";
type = Stem;
}
);
layerId = "5B3AE2B2-6F0E-4414-97DF-6676E601E692";
paths = (
{
closed = 1;
nodes = (
"451 -14 OFFCURVE",
"545 108 OFFCURVE",
"545 258 CURVE SMOOTH",
"545 408 OFFCURVE",
"453 530 OFFCURVE",
"296 530 CURVE SMOOTH",
"142 530 OFFCURVE",
"46 408 OFFCURVE",
"46 258 CURVE SMOOTH",
"46 108 OFFCURVE",
"142 -14 OFFCURVE",
"296 -14 CURVE SMOOTH"
);
},
{
closed = 1;
nodes = (
"129 366 OFFCURVE",
"189 459 OFFCURVE",
"296 459 CURVE SMOOTH",
"406 459 OFFCURVE",
"463 366 OFFCURVE",
"463 258 CURVE SMOOTH",
"463 151 OFFCURVE",
"403 58 OFFCURVE",
"296 58 CURVE SMOOTH",
"190 58 OFFCURVE",
"129 151 OFFCURVE",
"129 258 CURVE SMOOTH"
);
}
);
width = 591;
}
);
note = otilde;
unicode = 00F5;
},
{
glyphname = oe;
lastChange = "2024-06-22 13:48:17 +0000";
layers = (
{
hints = (
{
horizontal = 1;
place = "{-8, 87}";
type = Stem;
},
{
horizontal = 1;
place = "{455, 87}";
type = Stem;
},
{
place = "{28, 89}";
type = Stem;
},
{
place = "{444, 89}";
type = Stem;
}
);
layerId = "5B3AE2B2-6F0E-4414-97DF-6676E601E692";
paths = (
{
closed = 1;
nodes = (
"839 -14 OFFCURVE",
"912 62 OFFCURVE",
"937 161 CURVE",
"856 160 LINE",
"840 105 OFFCURVE",
"796 53 OFFCURVE",
"717 53 CURVE SMOOTH",
"607 53 OFFCURVE",
"553 142 OFFCURVE",
"548 244 CURVE",
"568 243 OFFCURVE",
"614 242 OFFCURVE",
"655 242 CURVE SMOOTH",
"948 242 LINE",
"948 258 LINE SMOOTH",
"948 408 OFFCURVE",
"874 530 OFFCURVE",
"717 530 CURVE SMOOTH",
"623 530 OFFCURVE",
"545 484 OFFCURVE",
"508 374 CURVE",
"472 484 OFFCURVE",
"395 530 OFFCURVE",
"299 530 CURVE SMOOTH",
"145 530 OFFCURVE",
"49 408 OFFCURVE",
"49 258 CURVE SMOOTH",
"49 108 OFFCURVE",
"145 -14 OFFCURVE",
"299 -14 CURVE SMOOTH",
"394 -14 OFFCURVE",
"471 32 OFFCURVE",
"508 142 CURVE",
"545 32 OFFCURVE",
"623 -14 OFFCURVE",
"717 -14 CURVE SMOOTH"
);
},
{
closed = 1;
nodes = (
"566 394 OFFCURVE",
"607 464 OFFCURVE",
"718 464 CURVE SMOOTH",
"805 464 OFFCURVE",
"855 395 OFFCURVE",
"865 307 CURVE",
"655 307 LINE SMOOTH",
"616 307 OFFCURVE",
"573 306 OFFCURVE",
"552 305 CURVE"
);
},
{
closed = 1;
nodes = (
"132 366 OFFCURVE",
"192 459 OFFCURVE",
"299 459 CURVE SMOOTH",
"409 459 OFFCURVE",
"466 366 OFFCURVE",
"466 258 CURVE SMOOTH",
"466 151 OFFCURVE",
"406 58 OFFCURVE",
"299 58 CURVE SMOOTH",
"193 58 OFFCURVE",
"132 151 OFFCURVE",
"132 258 CURVE SMOOTH"
);
}
);
width = 997;
}
);
note = oe;
unicode = 0153;
},
{
glyphname = p;
lastChange = "2024-06-22 13:48:17 +0000";
layers = (
{
hints = (
{
horizontal = 1;
place = "{-156, 21}";
target = up;
type = BottomGhost;
},
{
horizontal = 1;
place = "{-5, 79}";
type = Stem;
},
{
horizontal = 1;
place = "{470, 80}";
type = Stem;
},
{
place = "{87, 91}";
type = Stem;
},
{
place = "{471, 92}";
type = Stem;
},
{
horizontal = 1;
place = "{527, -20}";
target = down;
type = TopGhost;
}
);
layerId = "5B3AE2B2-6F0E-4414-97DF-6676E601E692";
paths = (
{
closed = 1;
nodes = (
"166 -166 LINE",
"166 80 LINE",
"188 34 OFFCURVE",
"254 -15 OFFCURVE",
"343 -15 CURVE SMOOTH",
"454 -15 OFFCURVE",
"551 87 OFFCURVE",
"551 257 CURVE SMOOTH",
"551 428 OFFCURVE",
"453 530 OFFCURVE",
"343 530 CURVE SMOOTH",
"254 530 OFFCURVE",
"188 481 OFFCURVE",
"166 435 CURVE",
"166 517 LINE",
"85 517 LINE",
"85 -166 LINE"
);
},
{
closed = 1;
nodes = (
"166 370 OFFCURVE",
"219 460 OFFCURVE",
"318 460 CURVE SMOOTH",
"397 460 OFFCURVE",
"469 390 OFFCURVE",
"469 258 CURVE SMOOTH",
"469 124 OFFCURVE",
"396 54 OFFCURVE",
"318 54 CURVE SMOOTH",
"219 54 OFFCURVE",
"166 144 OFFCURVE",
"166 258 CURVE SMOOTH"
);
}
);
width = 604;
}
);
leftKerningGroup = p;
leftMetricsKey = n;
note = p;
rightKerningGroup = o;
rightMetricsKey = p;
unicode = 0070;
},
{
glyphname = thorn;
lastChange = "2024-06-22 13:48:17 +0000";
layers = (
{
hints = (
{
horizontal = 1;
place = "{-160, 21}";
target = up;
type = BottomGhost;
},
{
horizontal = 1;
place = "{-9, 75}";
type = Stem;
},
{
horizontal = 1;
place = "{466, 76}";
type = Stem;
},
{
horizontal = 1;
place = "{722, -20}";
target = down;
type = TopGhost;
},
{
place = "{83, 87}";
type = Stem;
},
{
place = "{467, 88}";
type = Stem;
}
);
layerId = "5B3AE2B2-6F0E-4414-97DF-6676E601E692";
paths = (
{
closed = 1;
nodes = (
"164 -166 LINE",
"164 80 LINE",
"186 34 OFFCURVE",
"252 -15 OFFCURVE",
"341 -15 CURVE SMOOTH",
"452 -15 OFFCURVE",
"549 87 OFFCURVE",
"549 257 CURVE SMOOTH",
"549 428 OFFCURVE",
"451 530 OFFCURVE",
"341 530 CURVE SMOOTH",
"252 530 OFFCURVE",
"186 481 OFFCURVE",
"164 435 CURVE",
"164 716 LINE",
"83 716 LINE",
"83 -166 LINE"
);
},
{
closed = 1;
nodes = (
"164 370 OFFCURVE",
"217 460 OFFCURVE",
"316 460 CURVE SMOOTH",
"395 460 OFFCURVE",
"467 390 OFFCURVE",
"467 258 CURVE SMOOTH",
"467 124 OFFCURVE",
"394 54 OFFCURVE",
"316 54 CURVE SMOOTH",
"217 54 OFFCURVE",
"164 144 OFFCURVE",
"164 258 CURVE SMOOTH"
);
}
);
width = 598;
}
);
note = thorn;
unicode = 00FE;
},
{
glyphname = q;
lastChange = "2024-06-22 13:48:17 +0000";
layers = (
{
hints = (
{
horizontal = 1;
place = "{-156, 21}";
target = up;
type = BottomGhost;
},
{
horizontal = 1;
place = "{-5, 79}";
type = Stem;
},
{
horizontal = 1;
place = "{470, 80}";
type = Stem;
},
{
place = "{53, 92}";
type = Stem;
},
{
place = "{438, 91}";
type = Stem;
},
{
horizontal = 1;
place = "{527, -20}";
target = down;
type = TopGhost;
}
);
layerId = "5B3AE2B2-6F0E-4414-97DF-6676E601E692";
paths = (
{
closed = 1;
nodes = (
"519 -166 LINE",
"519 517 LINE",
"438 517 LINE",
"438 435 LINE",
"416 481 OFFCURVE",
"350 530 OFFCURVE",
"261 530 CURVE SMOOTH",
"151 530 OFFCURVE",
"53 428 OFFCURVE",
"53 257 CURVE SMOOTH",
"53 87 OFFCURVE",
"150 -15 OFFCURVE",
"261 -15 CURVE SMOOTH",
"350 -15 OFFCURVE",
"416 34 OFFCURVE",
"438 80 CURVE",
"438 -166 LINE"
);
},
{
closed = 1;
nodes = (
"135 390 OFFCURVE",
"207 460 OFFCURVE",
"286 460 CURVE SMOOTH",
"385 460 OFFCURVE",
"438 370 OFFCURVE",
"438 258 CURVE SMOOTH",
"438 144 OFFCURVE",
"385 54 OFFCURVE",
"286 54 CURVE SMOOTH",
"208 54 OFFCURVE",
"135 124 OFFCURVE",
"135 258 CURVE SMOOTH"
);
}
);
width = 606;
}
);
leftKerningGroup = o;
note = q;
rightKerningGroup = n;
rightMetricsKey = n;
unicode = 0071;
},
{
glyphname = r;
lastChange = "2024-06-22 13:48:17 +0000";
layers = (
{
hints = (
{
horizontal = 1;
place = "{10, 21}";
target = up;
type = BottomGhost;
},
{
horizontal = 1;
place = "{471, 80}";
type = Stem;
},
{
place = "{87, 91}";
type = Stem;
},
{
horizontal = 1;
place = "{527, -20}";
target = down;
type = TopGhost;
}
);
layerId = "5B3AE2B2-6F0E-4414-97DF-6676E601E692";
paths = (
{
closed = 1;
nodes = (
"329 521 LINE",
"251 531 OFFCURVE",
"189 479 OFFCURVE",
"168 445 CURVE",
"168 517 LINE",
"87 517 LINE",
"87 0 LINE",
"168 0 LINE",
"168 333 LINE SMOOTH",
"168 389 OFFCURVE",
"221 464 OFFCURVE",
"329 454 CURVE"
);
}
);
width = 360;
}
);
leftKerningGroup = n;
leftMetricsKey = n;
note = r;
rightKerningGroup = f;
rightMetricsKey = "=f-10";
unicode = 0072;
},
{
glyphname = s;
lastChange = "2024-06-22 13:48:17 +0000";
layers = (
{
hints = (
{
horizontal = 1;
place = "{-5, 555}";
type = Stem;
},
{
place = "{65, 435}";
type = Stem;
}
);
layerId = "5B3AE2B2-6F0E-4414-97DF-6676E601E692";
paths = (
{
closed = 1;
nodes = (
"120 147 LINE",
"126 83 OFFCURVE",
"179 55 OFFCURVE",
"245 55 CURVE SMOOTH",
"325 55 OFFCURVE",
"379 85 OFFCURVE",
"379 141 CURVE SMOOTH",
"380 181 OFFCURVE",
"354 207 OFFCURVE",
"243 231 CURVE SMOOTH",
"139 253 OFFCURVE",
"46 281 OFFCURVE",
"46 390 CURVE SMOOTH",
"46 473 OFFCURVE",
"127 530 OFFCURVE",
"247 530 CURVE SMOOTH",
"367 530 OFFCURVE",
"442 452 OFFCURVE",
"447 387 CURVE",
"368 368 LINE",
"362 432 OFFCURVE",
"310 460 OFFCURVE",
"244 460 CURVE SMOOTH",
"178 460 OFFCURVE",
"128 434 OFFCURVE",
"128 390 CURVE SMOOTH",
"128 338 OFFCURVE",
"178 325 OFFCURVE",
"270 301 CURVE SMOOTH",
"379 276 OFFCURVE",
"461 254 OFFCURVE",
"461 142 CURVE SMOOTH",
"461 51 OFFCURVE",
"377 -15 OFFCURVE",
"242 -15 CURVE SMOOTH",
"122 -15 OFFCURVE",
"46 61 OFFCURVE",
"42 128 CURVE"
);
}
);
width = 503;
}
);
leftKerningGroup = s;
note = s;
unicode = 0073;
},
{
glyphname = germandbls;
lastChange = "2024-06-22 13:48:17 +0000";
layers = (
{
hints = (
{
horizontal = 1;
place = "{6, 21}";
target = up;
type = BottomGhost;
},
{
horizontal = 1;
place = "{351, 77}";
type = Stem;
},
{
horizontal = 1;
place = "{662, 81}";
type = Stem;
},
{
place = "{81, 91}";
type = Stem;
},
{
place = "{415, 92}";
type = Stem;
},
{
horizontal = 1;
place = "{-9, 83}";
type = Stem;
},
{
place = "{451, 92}";
type = Stem;
},
{
horizontal = 1;
place = "{-3, 21}";
target = up;
type = BottomGhost;
}
);
layerId = "5B3AE2B2-6F0E-4414-97DF-6676E601E692";
paths = (
{
closed = 1;
nodes = (
"166 0 LINE",
"166 528 LINE SMOOTH",
"166 596 OFFCURVE",
"217 656 OFFCURVE",
"286 656 CURVE SMOOTH",
"367 656 OFFCURVE",
"415 603 OFFCURVE",
"415 537 CURVE SMOOTH",
"415 471 OFFCURVE",
"365 416 OFFCURVE",
"272 416 CURVE SMOOTH",
"266 416 LINE",
"266 345 LINE",
"289 345 LINE SMOOTH",
"391 345 OFFCURVE",
"451 277 OFFCURVE",
"451 201 CURVE SMOOTH",
"451 124 OFFCURVE",
"403 62 OFFCURVE",
"318 62 CURVE SMOOTH",
"271 62 OFFCURVE",
"259 68 OFFCURVE",
"259 68 CURVE",
"259 -9 LINE",
"259 -9 OFFCURVE",
"279 -15 OFFCURVE",
"332 -15 CURVE SMOOTH",
"463 -15 OFFCURVE",
"537 82 OFFCURVE",
"537 201 CURVE SMOOTH",
"537 294 OFFCURVE",
"482 359 OFFCURVE",
"395 383 CURVE",
"462 408 OFFCURVE",
"501 463 OFFCURVE",
"501 537 CURVE SMOOTH",
"501 644 OFFCURVE",
"414 731 OFFCURVE",
"286 731 CURVE SMOOTH",
"157 731 OFFCURVE",
"81 637 OFFCURVE",
"81 533 CURVE SMOOTH",
"82 0 LINE"
);
}
);
width = 586;
}
);
note = germandbls;
unicode = 00DF;
},
{
glyphname = t;
lastChange = "2024-06-22 13:48:17 +0000";
layers = (
{
hints = (
{
horizontal = 1;
place = "{7, 669}";
type = Stem;
},
{
place = "{42, 306}";
type = Stem;
}
);
layerId = "5B3AE2B2-6F0E-4414-97DF-6676E601E692";
paths = (
{
closed = 1;
nodes = (
"132 451 LINE",
"132 451 OFFCURVE",
"103 450 OFFCURVE",
"88 450 CURVE SMOOTH",
"40 450 LINE",
"40 517 LINE",
"88 517 LINE SMOOTH",
"103 517 OFFCURVE",
"133 516 OFFCURVE",
"133 516 CURVE",
"132 632 LINE",
"132 656 LINE",
"213 656 LINE",
"213 632 LINE",
"212 516 LINE",
"212 516 OFFCURVE",
"240 517 OFFCURVE",
"255 517 CURVE SMOOTH",
"336 517 LINE",
"336 450 LINE",
"255 450 LINE SMOOTH",
"240 450 OFFCURVE",
"213 451 OFFCURVE",
"213 451 CURVE",
"213 131 LINE SMOOTH",
"213 78 OFFCURVE",
"230 67 OFFCURVE",
"257 67 CURVE SMOOTH",
"297 67 OFFCURVE",
"333 76 OFFCURVE",
"333 76 CURVE",
"333 9 LINE",
"333 9 OFFCURVE",
"320 -3 OFFCURVE",
"249 -3 CURVE SMOOTH",
"182 -3 OFFCURVE",
"135 21 OFFCURVE",
"132 91 CURVE"
);
}
);
width = 382;
}
);
leftKerningGroup = f;
leftMetricsKey = f;
note = t;
rightKerningGroup = f;
rightMetricsKey = "=f";
unicode = 0074;
},
{
glyphname = u;
lastChange = "2024-06-22 13:48:17 +0000";
layers = (
{
hints = (
{
horizontal = 1;
place = "{-8, 76}";
type = Stem;
},
{
horizontal = 1;
place = "{523, -20}";
target = down;
type = TopGhost;
},
{
place = "{83, 87}";
type = Stem;
},
{
place = "{414, 87}";
type = Stem;
},
{
horizontal = 1;
place = "{6, 62}";
type = Stem;
}
);
layerId = "5B3AE2B2-6F0E-4414-97DF-6676E601E692";
paths = (
{
closed = 1;
nodes = (
"343 -14 OFFCURVE",
"393 35 OFFCURVE",
"414 69 CURVE",
"414 0 LINE",
"495 0 LINE",
"495 517 LINE",
"414 517 LINE",
"414 175 LINE SMOOTH",
"414 119 OFFCURVE",
"353 56 OFFCURVE",
"285 56 CURVE SMOOTH",
"204 56 OFFCURVE",
"164 91 OFFCURVE",
"164 189 CURVE SMOOTH",
"164 517 LINE",
"83 517 LINE",
"83 164 LINE SMOOTH",
"83 46 OFFCURVE",
"157 -14 OFFCURVE",
"260 -14 CURVE SMOOTH"
);
}
);
width = 582;
}
);
note = u;
rightKerningGroup = n;
rightMetricsKey = n;
unicode = 0075;
},
{
glyphname = uacute;
lastChange = "2024-06-22 13:48:17 +0000";
layers = (
{
hints = (
{
horizontal = 1;
place = "{-8, 76}";
type = Stem;
},
{
horizontal = 1;
place = "{523, -20}";
target = down;
type = TopGhost;
},
{
horizontal = 1;
place = "{623, 105}";
type = Stem;
},
{
place = "{83, 87}";
type = Stem;
},
{
place = "{414, 87}";
type = Stem;
},
{
horizontal = 1;
place = "{6, 62}";
type = Stem;
}
);
layerId = "5B3AE2B2-6F0E-4414-97DF-6676E601E692";
paths = (
{
closed = 1;
nodes = (
"274 650 LINE SMOOTH",
"309 683 OFFCURVE",
"338 716 OFFCURVE",
"338 716 CURVE SMOOTH",
"258 716 LINE SMOOTH",
"258 716 OFFCURVE",
"218 683 OFFCURVE",
"184 650 CURVE SMOOTH",
"150 617 LINE",
"241 617 LINE"
);
},
{
closed = 1;
nodes = (
"343 -14 OFFCURVE",
"393 35 OFFCURVE",
"414 69 CURVE",
"414 0 LINE",
"495 0 LINE",
"495 517 LINE",
"414 517 LINE",
"414 175 LINE SMOOTH",
"414 119 OFFCURVE",
"353 56 OFFCURVE",
"285 56 CURVE SMOOTH",
"204 56 OFFCURVE",
"164 91 OFFCURVE",
"164 189 CURVE SMOOTH",
"164 517 LINE",
"83 517 LINE",
"83 164 LINE SMOOTH",
"83 46 OFFCURVE",
"157 -14 OFFCURVE",
"260 -14 CURVE SMOOTH"
);
}
);
width = 578;
}
);
note = uacute;
unicode = 00FA;
},
{
glyphname = ucircumflex;
lastChange = "2024-06-22 13:48:17 +0000";
layers = (
{
hints = (
{
horizontal = 1;
place = "{-8, 76}";
type = Stem;
},
{
horizontal = 1;
place = "{523, -20}";
target = down;
type = TopGhost;
},
{
horizontal = 1;
place = "{623, 105}";
type = Stem;
},
{
place = "{83, 87}";
type = Stem;
},
{
place = "{414, 87}";
type = Stem;
},
{
horizontal = 1;
place = "{688, 40}";
type = Stem;
},
{
horizontal = 1;
place = "{6, 62}";
type = Stem;
}
);
layerId = "5B3AE2B2-6F0E-4414-97DF-6676E601E692";
paths = (
{
closed = 1;
nodes = (
"243 716 LINE",
"181 617 LINE",
"243 617 LINE",
"285 682 LINE",
"326 617 LINE",
"389 617 LINE",
"326 716 LINE"
);
},
{
closed = 1;
nodes = (
"343 -14 OFFCURVE",
"393 35 OFFCURVE",
"414 69 CURVE",
"414 0 LINE",
"495 0 LINE",
"495 517 LINE",
"414 517 LINE",
"414 175 LINE SMOOTH",
"414 119 OFFCURVE",
"353 56 OFFCURVE",
"285 56 CURVE SMOOTH",
"204 56 OFFCURVE",
"164 91 OFFCURVE",
"164 189 CURVE SMOOTH",
"164 517 LINE",
"83 517 LINE",
"83 164 LINE SMOOTH",
"83 46 OFFCURVE",
"157 -14 OFFCURVE",
"260 -14 CURVE SMOOTH"
);
}
);
width = 578;
}
);
note = ucircumflex;
unicode = 00FB;
},
{
glyphname = udieresis;
lastChange = "2024-06-22 13:48:17 +0000";
layers = (
{
hints = (
{
horizontal = 1;
place = "{-8, 76}";
type = Stem;
},
{
horizontal = 1;
place = "{523, -20}";
target = down;
type = TopGhost;
},
{
horizontal = 1;
place = "{621, 108}";
type = Stem;
},
{
place = "{131, 110}";
type = Stem;
},
{
place = "{325, 110}";
type = Stem;
},
{
place = "{83, 87}";
type = Stem;
},
{
place = "{414, 87}";
type = Stem;
},
{
horizontal = 1;
place = "{6, 62}";
type = Stem;
}
);
layerId = "5B3AE2B2-6F0E-4414-97DF-6676E601E692";
paths = (
{
closed = 1;
nodes = (
"131 637 OFFCURVE",
"153 615 OFFCURVE",
"183 615 CURVE SMOOTH",
"213 615 OFFCURVE",
"235 637 OFFCURVE",
"235 666 CURVE SMOOTH",
"235 695 OFFCURVE",
"213 717 OFFCURVE",
"183 717 CURVE SMOOTH",
"153 717 OFFCURVE",
"131 695 OFFCURVE",
"131 666 CURVE SMOOTH"
);
},
{
closed = 1;
nodes = (
"325 637 OFFCURVE",
"347 615 OFFCURVE",
"377 615 CURVE SMOOTH",
"407 615 OFFCURVE",
"429 637 OFFCURVE",
"429 666 CURVE SMOOTH",
"429 695 OFFCURVE",
"407 717 OFFCURVE",
"377 717 CURVE SMOOTH",
"347 717 OFFCURVE",
"325 695 OFFCURVE",
"325 666 CURVE SMOOTH"
);
},
{
closed = 1;
nodes = (
"343 -14 OFFCURVE",
"393 35 OFFCURVE",
"414 69 CURVE",
"414 0 LINE",
"495 0 LINE",
"495 517 LINE",
"414 517 LINE",
"414 175 LINE SMOOTH",
"414 119 OFFCURVE",
"353 56 OFFCURVE",
"285 56 CURVE SMOOTH",
"204 56 OFFCURVE",
"164 91 OFFCURVE",
"164 189 CURVE SMOOTH",
"164 517 LINE",
"83 517 LINE",
"83 164 LINE SMOOTH",
"83 46 OFFCURVE",
"157 -14 OFFCURVE",
"260 -14 CURVE SMOOTH"
);
}
);
width = 578;
}
);
note = udieresis;
unicode = 00FC;
},
{
glyphname = ugrave;
lastChange = "2024-06-22 13:48:17 +0000";
layers = (
{
hints = (
{
horizontal = 1;
place = "{-8, 76}";
type = Stem;
},
{
horizontal = 1;
place = "{523, -20}";
target = down;
type = TopGhost;
},
{
horizontal = 1;
place = "{623, 105}";
type = Stem;
},
{
place = "{83, 87}";
type = Stem;
},
{
place = "{414, 87}";
type = Stem;
},
{
horizontal = 1;
place = "{6, 62}";
type = Stem;
}
);
layerId = "5B3AE2B2-6F0E-4414-97DF-6676E601E692";
paths = (
{
closed = 1;
nodes = (
"243 650 LINE",
"276 617 LINE",
"367 617 LINE",
"333 650 LINE SMOOTH",
"299 683 OFFCURVE",
"259 716 OFFCURVE",
"259 716 CURVE SMOOTH",
"179 716 LINE"
);
},
{
closed = 1;
nodes = (
"343 -14 OFFCURVE",
"393 35 OFFCURVE",
"414 69 CURVE",
"414 0 LINE",
"495 0 LINE",
"495 517 LINE",
"414 517 LINE",
"414 175 LINE SMOOTH",
"414 119 OFFCURVE",
"353 56 OFFCURVE",
"285 56 CURVE SMOOTH",
"204 56 OFFCURVE",
"164 91 OFFCURVE",
"164 189 CURVE SMOOTH",
"164 517 LINE",
"83 517 LINE",
"83 164 LINE SMOOTH",
"83 46 OFFCURVE",
"157 -14 OFFCURVE",
"260 -14 CURVE SMOOTH"
);
}
);
width = 578;
}
);
note = ugrave;
unicode = 00F9;
},
{
glyphname = v;
lastChange = "2024-06-22 13:48:17 +0000";
layers = (
{
hints = (
{
horizontal = 1;
place = "{8, 87}";
type = Stem;
}
);
layerId = "5B3AE2B2-6F0E-4414-97DF-6676E601E692";
paths = (
{
closed = 1;
nodes = (
"297 2 LINE",
"478 517 LINE",
"393 517 LINE SMOOTH",
"393 517 OFFCURVE",
"324 312 OFFCURVE",
"293 209 CURVE SMOOTH",
"254 81 LINE",
"214 211 LINE SMOOTH",
"182 315 OFFCURVE",
"116 517 OFFCURVE",
"116 517 CURVE SMOOTH",
"31 517 LINE",
"211 2 LINE"
);
}
);
width = 509;
}
);
leftKerningGroup = v;
note = v;
rightKerningGroup = v;
unicode = 0076;
},
{
glyphname = w;
lastChange = "2024-06-22 13:48:17 +0000";
layers = (
{
hints = (
{
horizontal = 1;
place = "{10, 91}";
type = Stem;
},
{
horizontal = 1;
place = "{446, 91}";
type = Stem;
}
);
layerId = "5B3AE2B2-6F0E-4414-97DF-6676E601E692";
paths = (
{
closed = 1;
nodes = (
"291 0 LINE",
"419 436 LINE",
"546 0 LINE",
"632 0 LINE",
"803 517 LINE",
"718 517 LINE SMOOTH",
"718 517 OFFCURVE",
"652 311 OFFCURVE",
"624 208 CURVE SMOOTH",
"613 165 OFFCURVE",
"590 80 OFFCURVE",
"590 80 CURVE SMOOTH",
"590 80 OFFCURVE",
"564 163 OFFCURVE",
"553 206 CURVE SMOOTH",
"525 313 OFFCURVE",
"461 517 OFFCURVE",
"461 517 CURVE SMOOTH",
"376 517 LINE SMOOTH",
"376 517 OFFCURVE",
"310 312 OFFCURVE",
"283 208 CURVE SMOOTH",
"272 165 OFFCURVE",
"248 80 OFFCURVE",
"248 80 CURVE SMOOTH",
"248 80 OFFCURVE",
"225 166 OFFCURVE",
"212 210 CURVE SMOOTH",
"183 314 OFFCURVE",
"120 517 OFFCURVE",
"120 517 CURVE SMOOTH",
"35 517 LINE",
"205 0 LINE"
);
}
);
width = 838;
}
);
leftKerningGroup = v;
leftMetricsKey = v;
note = w;
rightKerningGroup = v;
rightMetricsKey = v;
unicode = 0077;
},
{
glyphname = wacute;
lastChange = "2024-06-22 13:48:17 +0000";
layers = (
{
hints = (
{
horizontal = 1;
place = "{6, 87}";
type = Stem;
},
{
horizontal = 1;
place = "{442, 87}";
type = Stem;
},
{
horizontal = 1;
place = "{623, 105}";
type = Stem;
},
{
place = "{303, 194}";
type = Stem;
}
);
layerId = "5B3AE2B2-6F0E-4414-97DF-6676E601E692";
paths = (
{
closed = 1;
nodes = (
"427 650 LINE SMOOTH",
"462 683 OFFCURVE",
"491 716 OFFCURVE",
"491 716 CURVE SMOOTH",
"411 716 LINE SMOOTH",
"411 716 OFFCURVE",
"371 683 OFFCURVE",
"337 650 CURVE SMOOTH",
"303 617 LINE",
"394 617 LINE"
);
},
{
closed = 1;
nodes = (
"287 0 LINE",
"415 436 LINE",
"542 0 LINE",
"628 0 LINE",
"799 517 LINE",
"714 517 LINE SMOOTH",
"714 517 OFFCURVE",
"648 311 OFFCURVE",
"620 208 CURVE SMOOTH",
"609 165 OFFCURVE",
"586 80 OFFCURVE",
"586 80 CURVE SMOOTH",
"586 80 OFFCURVE",
"560 163 OFFCURVE",
"549 206 CURVE SMOOTH",
"521 313 OFFCURVE",
"457 517 OFFCURVE",
"457 517 CURVE SMOOTH",
"372 517 LINE SMOOTH",
"372 517 OFFCURVE",
"306 312 OFFCURVE",
"279 208 CURVE SMOOTH",
"268 165 OFFCURVE",
"244 80 OFFCURVE",
"244 80 CURVE SMOOTH",
"244 80 OFFCURVE",
"221 166 OFFCURVE",
"208 210 CURVE SMOOTH",
"179 314 OFFCURVE",
"116 517 OFFCURVE",
"116 517 CURVE SMOOTH",
"31 517 LINE",
"201 0 LINE"
);
}
);
width = 830;
}
);
note = wacute;
unicode = 1E83;
},
{
glyphname = wcircumflex;
lastChange = "2024-06-22 13:48:17 +0000";
layers = (
{
hints = (
{
horizontal = 1;
place = "{6, 87}";
type = Stem;
},
{
horizontal = 1;
place = "{442, 87}";
type = Stem;
},
{
horizontal = 1;
place = "{623, 105}";
type = Stem;
},
{
place = "{298, 214}";
type = Stem;
},
{
horizontal = 1;
place = "{688, 40}";
type = Stem;
}
);
layerId = "5B3AE2B2-6F0E-4414-97DF-6676E601E692";
paths = (
{
closed = 1;
nodes = (
"298 617 LINE",
"360 617 LINE",
"402 682 LINE",
"443 617 LINE",
"506 617 LINE",
"443 716 LINE",
"360 716 LINE"
);
},
{
closed = 1;
nodes = (
"287 0 LINE",
"415 436 LINE",
"542 0 LINE",
"628 0 LINE",
"799 517 LINE",
"714 517 LINE SMOOTH",
"714 517 OFFCURVE",
"648 311 OFFCURVE",
"620 208 CURVE SMOOTH",
"609 165 OFFCURVE",
"586 80 OFFCURVE",
"586 80 CURVE SMOOTH",
"586 80 OFFCURVE",
"560 163 OFFCURVE",
"549 206 CURVE SMOOTH",
"521 313 OFFCURVE",
"457 517 OFFCURVE",
"457 517 CURVE SMOOTH",
"372 517 LINE SMOOTH",
"372 517 OFFCURVE",
"306 312 OFFCURVE",
"279 208 CURVE SMOOTH",
"268 165 OFFCURVE",
"244 80 OFFCURVE",
"244 80 CURVE SMOOTH",
"244 80 OFFCURVE",
"221 166 OFFCURVE",
"208 210 CURVE SMOOTH",
"179 314 OFFCURVE",
"116 517 OFFCURVE",
"116 517 CURVE SMOOTH",
"31 517 LINE",
"201 0 LINE"
);
}
);
width = 830;
}
);
note = wcircumflex;
unicode = 0175;
},
{
glyphname = wdieresis;
lastChange = "2024-06-22 13:48:17 +0000";
layers = (
{
hints = (
{
horizontal = 1;
place = "{6, 87}";
type = Stem;
},
{
horizontal = 1;
place = "{442, 87}";
type = Stem;
},
{
horizontal = 1;
place = "{636, 108}";
type = Stem;
},
{
place = "{264, 110}";
type = Stem;
},
{
place = "{458, 110}";
type = Stem;
}
);
layerId = "5B3AE2B2-6F0E-4414-97DF-6676E601E692";
paths = (
{
closed = 1;
nodes = (
"264 652 OFFCURVE",
"286 630 OFFCURVE",
"316 630 CURVE SMOOTH",
"346 630 OFFCURVE",
"368 652 OFFCURVE",
"368 681 CURVE SMOOTH",
"368 710 OFFCURVE",
"346 732 OFFCURVE",
"316 732 CURVE SMOOTH",
"286 732 OFFCURVE",
"264 710 OFFCURVE",
"264 681 CURVE SMOOTH"
);
},
{
closed = 1;
nodes = (
"458 652 OFFCURVE",
"480 630 OFFCURVE",
"510 630 CURVE SMOOTH",
"540 630 OFFCURVE",
"562 652 OFFCURVE",
"562 681 CURVE SMOOTH",
"562 710 OFFCURVE",
"540 732 OFFCURVE",
"510 732 CURVE SMOOTH",
"480 732 OFFCURVE",
"458 710 OFFCURVE",
"458 681 CURVE SMOOTH"
);
},
{
closed = 1;
nodes = (
"287 0 LINE",
"415 436 LINE",
"542 0 LINE",
"628 0 LINE",
"799 517 LINE",
"714 517 LINE SMOOTH",
"714 517 OFFCURVE",
"648 311 OFFCURVE",
"620 208 CURVE SMOOTH",
"609 165 OFFCURVE",
"586 80 OFFCURVE",
"586 80 CURVE SMOOTH",
"586 80 OFFCURVE",
"560 163 OFFCURVE",
"549 206 CURVE SMOOTH",
"521 313 OFFCURVE",
"457 517 OFFCURVE",
"457 517 CURVE SMOOTH",
"372 517 LINE SMOOTH",
"372 517 OFFCURVE",
"306 312 OFFCURVE",
"279 208 CURVE SMOOTH",
"268 165 OFFCURVE",
"244 80 OFFCURVE",
"244 80 CURVE SMOOTH",
"244 80 OFFCURVE",
"221 166 OFFCURVE",
"208 210 CURVE SMOOTH",
"179 314 OFFCURVE",
"116 517 OFFCURVE",
"116 517 CURVE SMOOTH",
"31 517 LINE",
"201 0 LINE"
);
}
);
width = 830;
}
);
note = wdieresis;
unicode = 1E85;
},
{
glyphname = wgrave;
lastChange = "2024-06-22 13:48:17 +0000";
layers = (
{
hints = (
{
horizontal = 1;
place = "{6, 87}";
type = Stem;
},
{
horizontal = 1;
place = "{442, 87}";
type = Stem;
},
{
horizontal = 1;
place = "{623, 105}";
type = Stem;
},
{
place = "{324, 194}";
type = Stem;
}
);
layerId = "5B3AE2B2-6F0E-4414-97DF-6676E601E692";
paths = (
{
closed = 1;
nodes = (
"388 650 LINE",
"421 617 LINE",
"512 617 LINE",
"478 650 LINE SMOOTH",
"444 683 OFFCURVE",
"404 716 OFFCURVE",
"404 716 CURVE SMOOTH",
"324 716 LINE"
);
},
{
closed = 1;
nodes = (
"287 0 LINE",
"415 436 LINE",
"542 0 LINE",
"628 0 LINE",
"799 517 LINE",
"714 517 LINE SMOOTH",
"714 517 OFFCURVE",
"648 311 OFFCURVE",
"620 208 CURVE SMOOTH",
"609 165 OFFCURVE",
"586 80 OFFCURVE",
"586 80 CURVE SMOOTH",
"586 80 OFFCURVE",
"560 163 OFFCURVE",
"549 206 CURVE SMOOTH",
"521 313 OFFCURVE",
"457 517 OFFCURVE",
"457 517 CURVE SMOOTH",
"372 517 LINE SMOOTH",
"372 517 OFFCURVE",
"306 312 OFFCURVE",
"279 208 CURVE SMOOTH",
"268 165 OFFCURVE",
"244 80 OFFCURVE",
"244 80 CURVE SMOOTH",
"244 80 OFFCURVE",
"221 166 OFFCURVE",
"208 210 CURVE SMOOTH",
"179 314 OFFCURVE",
"116 517 OFFCURVE",
"116 517 CURVE SMOOTH",
"31 517 LINE",
"201 0 LINE"
);
}
);
width = 830;
}
);
note = wgrave;
unicode = 1E81;
},
{
glyphname = x;
lastChange = "2024-06-22 13:48:17 +0000";
layers = (
{
hints = (
{
horizontal = 1;
place = "{6, 21}";
target = up;
type = BottomGhost;
},
{
horizontal = 1;
place = "{523, -20}";
target = down;
type = TopGhost;
},
{
place = "{31, 458}";
type = Stem;
}
);
layerId = "5B3AE2B2-6F0E-4414-97DF-6676E601E692";
paths = (
{
closed = 1;
nodes = (
"121 0 LINE",
"212 130 LINE SMOOTH",
"227 151 OFFCURVE",
"242 174 OFFCURVE",
"257 195 CURVE",
"302 129 LINE",
"393 0 LINE",
"483 0 LINE",
"345 198 LINE SMOOTH",
"331 218 OFFCURVE",
"314 239 OFFCURVE",
"300 259 CURVE",
"314 279 OFFCURVE",
"331 300 OFFCURVE",
"345 320 CURVE SMOOTH",
"483 517 LINE",
"393 517 LINE",
"301 385 LINE SMOOTH",
"286 364 OFFCURVE",
"272 342 OFFCURVE",
"257 321 CURVE",
"242 342 OFFCURVE",
"228 364 OFFCURVE",
"213 385 CURVE SMOOTH",
"121 517 LINE",
"31 517 LINE",
"173 315 LINE SMOOTH",
"186 296 OFFCURVE",
"201 278 OFFCURVE",
"214 259 CURVE",
"174 204 LINE",
"31 0 LINE"
);
}
);
width = 514;
}
);
leftKerningGroup = x;
note = x;
unicode = 0078;
},
{
glyphname = y;
lastChange = "2024-06-22 13:48:17 +0000";
layers = (
{
hints = (
{
horizontal = 1;
place = "{-171, 80}";
type = Stem;
},
{
horizontal = 1;
place = "{527, -20}";
target = down;
type = TopGhost;
},
{
place = "{35, 457}";
type = Stem;
},
{
horizontal = 1;
place = "{-162, 21}";
target = up;
type = BottomGhost;
}
);
layerId = "5B3AE2B2-6F0E-4414-97DF-6676E601E692";
paths = (
{
closed = 1;
nodes = (
"192 -59 LINE SMOOTH",
"176 -102 OFFCURVE",
"153 -111 OFFCURVE",
"126 -111 CURVE SMOOTH",
"106 -111 OFFCURVE",
"80 -105 OFFCURVE",
"80 -105 CURVE",
"80 -172 LINE",
"80 -172 OFFCURVE",
"101 -181 OFFCURVE",
"144 -181 CURVE SMOOTH",
"213 -181 OFFCURVE",
"252 -132 OFFCURVE",
"279 -67 CURVE",
"482 517 LINE",
"397 517 LINE SMOOTH",
"397 517 OFFCURVE",
"328 312 OFFCURVE",
"297 209 CURVE SMOOTH",
"258 81 LINE",
"218 211 LINE SMOOTH",
"186 315 OFFCURVE",
"120 517 OFFCURVE",
"120 517 CURVE SMOOTH",
"35 517 LINE",
"215 2 LINE"
);
}
);
width = 517;
}
);
leftKerningGroup = v;
note = y;
rightKerningGroup = v;
rightMetricsKey = v;
unicode = 0079;
},
{
glyphname = yacute;
lastChange = "2024-06-22 13:48:17 +0000";
layers = (
{
hints = (
{
horizontal = 1;
place = "{-175, 76}";
type = Stem;
},
{
horizontal = 1;
place = "{523, -20}";
target = down;
type = TopGhost;
},
{
horizontal = 1;
place = "{623, 105}";
type = Stem;
},
{
place = "{31, 453}";
type = Stem;
},
{
horizontal = 1;
place = "{-166, 21}";
target = up;
type = BottomGhost;
}
);
layerId = "5B3AE2B2-6F0E-4414-97DF-6676E601E692";
paths = (
{
closed = 1;
nodes = (
"266 650 LINE SMOOTH",
"301 683 OFFCURVE",
"330 716 OFFCURVE",
"330 716 CURVE SMOOTH",
"250 716 LINE SMOOTH",
"250 716 OFFCURVE",
"210 683 OFFCURVE",
"176 650 CURVE SMOOTH",
"142 617 LINE",
"233 617 LINE"
);
},
{
closed = 1;
nodes = (
"188 -59 LINE SMOOTH",
"172 -102 OFFCURVE",
"149 -111 OFFCURVE",
"122 -111 CURVE SMOOTH",
"102 -111 OFFCURVE",
"76 -105 OFFCURVE",
"76 -105 CURVE",
"76 -172 LINE",
"76 -172 OFFCURVE",
"97 -181 OFFCURVE",
"140 -181 CURVE SMOOTH",
"209 -181 OFFCURVE",
"248 -132 OFFCURVE",
"275 -67 CURVE",
"478 517 LINE",
"393 517 LINE SMOOTH",
"393 517 OFFCURVE",
"324 312 OFFCURVE",
"293 209 CURVE SMOOTH",
"254 81 LINE",
"214 211 LINE SMOOTH",
"182 315 OFFCURVE",
"116 517 OFFCURVE",
"116 517 CURVE SMOOTH",
"31 517 LINE",
"211 2 LINE"
);
}
);
width = 509;
}
);
note = yacute;
unicode = 00FD;
},
{
glyphname = ycircumflex;
lastChange = "2024-06-22 13:48:17 +0000";
layers = (
{
hints = (
{
horizontal = 1;
place = "{-175, 76}";
type = Stem;
},
{
horizontal = 1;
place = "{523, -20}";
target = down;
type = TopGhost;
},
{
horizontal = 1;
place = "{623, 105}";
type = Stem;
},
{
place = "{31, 453}";
type = Stem;
},
{
horizontal = 1;
place = "{688, 40}";
type = Stem;
},
{
horizontal = 1;
place = "{-166, 21}";
target = up;
type = BottomGhost;
}
);
layerId = "5B3AE2B2-6F0E-4414-97DF-6676E601E692";
paths = (
{
closed = 1;
nodes = (
"137 617 LINE",
"199 617 LINE",
"241 682 LINE",
"282 617 LINE",
"345 617 LINE",
"282 716 LINE",
"199 716 LINE"
);
},
{
closed = 1;
nodes = (
"188 -59 LINE SMOOTH",
"172 -102 OFFCURVE",
"149 -111 OFFCURVE",
"122 -111 CURVE SMOOTH",
"102 -111 OFFCURVE",
"76 -105 OFFCURVE",
"76 -105 CURVE",
"76 -172 LINE",
"76 -172 OFFCURVE",
"97 -181 OFFCURVE",
"140 -181 CURVE SMOOTH",
"209 -181 OFFCURVE",
"248 -132 OFFCURVE",
"275 -67 CURVE",
"478 517 LINE",
"393 517 LINE SMOOTH",
"393 517 OFFCURVE",
"324 312 OFFCURVE",
"293 209 CURVE SMOOTH",
"254 81 LINE",
"214 211 LINE SMOOTH",
"182 315 OFFCURVE",
"116 517 OFFCURVE",
"116 517 CURVE SMOOTH",
"31 517 LINE",
"211 2 LINE"
);
}
);
width = 509;
}
);
note = ycircumflex;
unicode = 0177;
},
{
glyphname = ydieresis;
lastChange = "2024-06-22 13:48:17 +0000";
layers = (
{
hints = (
{
horizontal = 1;
place = "{-175, 76}";
type = Stem;
},
{
horizontal = 1;
place = "{523, -20}";
target = down;
type = TopGhost;
},
{
horizontal = 1;
place = "{636, 108}";
type = Stem;
},
{
place = "{123, 110}";
type = Stem;
},
{
place = "{317, 110}";
type = Stem;
},
{
horizontal = 1;
place = "{-166, 21}";
target = up;
type = BottomGhost;
}
);
layerId = "5B3AE2B2-6F0E-4414-97DF-6676E601E692";
paths = (
{
closed = 1;
nodes = (
"123 652 OFFCURVE",
"145 630 OFFCURVE",
"175 630 CURVE SMOOTH",
"205 630 OFFCURVE",
"227 652 OFFCURVE",
"227 681 CURVE SMOOTH",
"227 710 OFFCURVE",
"205 732 OFFCURVE",
"175 732 CURVE SMOOTH",
"145 732 OFFCURVE",
"123 710 OFFCURVE",
"123 681 CURVE SMOOTH"
);
},
{
closed = 1;
nodes = (
"317 652 OFFCURVE",
"339 630 OFFCURVE",
"369 630 CURVE SMOOTH",
"399 630 OFFCURVE",
"421 652 OFFCURVE",
"421 681 CURVE SMOOTH",
"421 710 OFFCURVE",
"399 732 OFFCURVE",
"369 732 CURVE SMOOTH",
"339 732 OFFCURVE",
"317 710 OFFCURVE",
"317 681 CURVE SMOOTH"
);
},
{
closed = 1;
nodes = (
"188 -59 LINE SMOOTH",
"172 -102 OFFCURVE",
"149 -111 OFFCURVE",
"122 -111 CURVE SMOOTH",
"102 -111 OFFCURVE",
"76 -105 OFFCURVE",
"76 -105 CURVE",
"76 -172 LINE",
"76 -172 OFFCURVE",
"97 -181 OFFCURVE",
"140 -181 CURVE SMOOTH",
"209 -181 OFFCURVE",
"248 -132 OFFCURVE",
"275 -67 CURVE",
"478 517 LINE",
"393 517 LINE SMOOTH",
"393 517 OFFCURVE",
"324 312 OFFCURVE",
"293 209 CURVE SMOOTH",
"254 81 LINE",
"214 211 LINE SMOOTH",
"182 315 OFFCURVE",
"116 517 OFFCURVE",
"116 517 CURVE SMOOTH",
"31 517 LINE",
"211 2 LINE"
);
}
);
width = 509;
}
);
note = ydieresis;
unicode = 00FF;
},
{
glyphname = ygrave;
lastChange = "2024-06-22 13:48:17 +0000";
layers = (
{
hints = (
{
horizontal = 1;
place = "{-175, 76}";
type = Stem;
},
{
horizontal = 1;
place = "{523, -20}";
target = down;
type = TopGhost;
},
{
horizontal = 1;
place = "{623, 105}";
type = Stem;
},
{
place = "{31, 453}";
type = Stem;
},
{
horizontal = 1;
place = "{-166, 21}";
target = up;
type = BottomGhost;
}
);
layerId = "5B3AE2B2-6F0E-4414-97DF-6676E601E692";
paths = (
{
closed = 1;
nodes = (
"228 650 LINE",
"261 617 LINE",
"352 617 LINE",
"318 650 LINE SMOOTH",
"284 683 OFFCURVE",
"244 716 OFFCURVE",
"244 716 CURVE SMOOTH",
"164 716 LINE"
);
},
{
closed = 1;
nodes = (
"188 -59 LINE SMOOTH",
"172 -102 OFFCURVE",
"149 -111 OFFCURVE",
"122 -111 CURVE SMOOTH",
"102 -111 OFFCURVE",
"76 -105 OFFCURVE",
"76 -105 CURVE",
"76 -172 LINE",
"76 -172 OFFCURVE",
"97 -181 OFFCURVE",
"140 -181 CURVE SMOOTH",
"209 -181 OFFCURVE",
"248 -132 OFFCURVE",
"275 -67 CURVE",
"478 517 LINE",
"393 517 LINE SMOOTH",
"393 517 OFFCURVE",
"324 312 OFFCURVE",
"293 209 CURVE SMOOTH",
"254 81 LINE",
"214 211 LINE SMOOTH",
"182 315 OFFCURVE",
"116 517 OFFCURVE",
"116 517 CURVE SMOOTH",
"31 517 LINE",
"211 2 LINE"
);
}
);
width = 509;
}
);
note = ygrave;
unicode = 1EF3;
},
{
glyphname = z;
lastChange = "2024-06-22 13:48:17 +0000";
layers = (
{
hints = (
{
horizontal = 1;
place = "{10, 77}";
type = Stem;
},
{
horizontal = 1;
place = "{460, 77}";
type = Stem;
},
{
place = "{35, 416}";
type = Stem;
}
);
layerId = "5B3AE2B2-6F0E-4414-97DF-6676E601E692";
paths = (
{
closed = 1;
nodes = (
"441 67 LINE",
"124 67 LINE",
"196 154 LINE",
"436 452 LINE",
"436 517 LINE",
"60 517 LINE",
"60 450 LINE",
"347 450 LINE",
"347 450 OFFCURVE",
"305 401 OFFCURVE",
"287 378 CURVE SMOOTH",
"35 65 LINE",
"35 1 LINE",
"441 0 LINE"
);
}
);
width = 476;
}
);
note = z;
unicode = 007A;
},
{
glyphname = a.001;
lastChange = "2024-06-22 13:48:17 +0000";
layers = (
{
hints = (
{
horizontal = 1;
place = "{3, 73}";
type = Stem;
},
{
horizontal = 1;
place = "{466, 77}";
type = Stem;
},
{
place = "{49, 88}";
type = Stem;
},
{
place = "{389, 81}";
type = Stem;
},
{
horizontal = 1;
place = "{-7, 74}";
type = Stem;
}
);
layerId = "5B3AE2B2-6F0E-4414-97DF-6676E601E692";
paths = (
{
closed = 1;
nodes = (
"464 207 LINE SMOOTH",
"464 266 OFFCURVE",
"465 342 OFFCURVE",
"464 389 CURVE SMOOTH",
"463 474 OFFCURVE",
"392 531 OFFCURVE",
"263 531 CURVE SMOOTH",
"153 531 OFFCURVE",
"75 457 OFFCURVE",
"65 368 CURVE",
"149 368 LINE",
"155 432 OFFCURVE",
"205 460 OFFCURVE",
"274 460 CURVE SMOOTH",
"340 460 OFFCURVE",
"382 435 OFFCURVE",
"382 392 CURVE SMOOTH",
"382 339 OFFCURVE",
"332 326 OFFCURVE",
"240 302 CURVE SMOOTH",
"131 277 OFFCURVE",
"49 255 OFFCURVE",
"49 145 CURVE SMOOTH",
"49 52 OFFCURVE",
"137 -13 OFFCURVE",
"214 -13 CURVE SMOOTH",
"340 -13 OFFCURVE",
"374 50 OFFCURVE",
"389 69 CURVE",
"395 23 OFFCURVE",
"431 -3 OFFCURVE",
"490 -3 CURVE SMOOTH",
"520 -3 OFFCURVE",
"523 -1 OFFCURVE",
"523 -1 CURVE",
"523 64 LINE",
"482 64 OFFCURVE",
"464 77 OFFCURVE",
"464 121 CURVE SMOOTH"
);
},
{
closed = 1;
nodes = (
"188 55 OFFCURVE",
"131 86 OFFCURVE",
"131 140 CURVE SMOOTH",
"131 182 OFFCURVE",
"149 215 OFFCURVE",
"250 239 CURVE SMOOTH",
"311 253 OFFCURVE",
"358 270 OFFCURVE",
"388 292 CURVE",
"389 226 LINE",
"389 192 LINE SMOOTH",
"390 119 OFFCURVE",
"314 55 OFFCURVE",
"240 55 CURVE SMOOTH"
);
}
);
width = 554;
}
);
note = a.001;
rightKerningGroup = a;
},
{
glyphname = g.001;
lastChange = "2024-06-22 13:48:17 +0000";
layers = (
{
hints = (
{
horizontal = 1;
place = "{-176, 74}";
type = Stem;
},
{
horizontal = 1;
place = "{24, 71}";
type = Stem;
},
{
horizontal = 1;
place = "{523, -20}";
target = down;
type = TopGhost;
},
{
place = "{70, 87}";
type = Stem;
},
{
place = "{434, 87}";
type = Stem;
},
{
horizontal = 1;
place = "{471, 71}";
type = Stem;
},
{
place = "{49, 88}";
type = Stem;
}
);
layerId = "5B3AE2B2-6F0E-4414-97DF-6676E601E692";
paths = (
{
closed = 1;
nodes = (
"415 -182 OFFCURVE",
"515 -116 OFFCURVE",
"515 60 CURVE SMOOTH",
"515 517 LINE",
"434 517 LINE",
"434 441 LINE",
"412 483 OFFCURVE",
"346 530 OFFCURVE",
"257 530 CURVE SMOOTH",
"147 530 OFFCURVE",
"49 434 OFFCURVE",
"49 274 CURVE SMOOTH",
"49 115 OFFCURVE",
"146 18 OFFCURVE",
"257 18 CURVE SMOOTH",
"346 18 OFFCURVE",
"412 64 OFFCURVE",
"434 108 CURVE",
"434 68 LINE SMOOTH",
"434 -65 OFFCURVE",
"385 -114 OFFCURVE",
"284 -114 CURVE SMOOTH",
"174 -114 OFFCURVE",
"160 -64 OFFCURVE",
"151 -32 CURVE",
"70 -31 LINE",
"80 -108 OFFCURVE",
"144 -182 OFFCURVE",
"284 -182 CURVE SMOOTH"
);
},
{
closed = 1;
nodes = (
"131 398 OFFCURVE",
"203 465 OFFCURVE",
"282 465 CURVE SMOOTH",
"381 465 OFFCURVE",
"434 380 OFFCURVE",
"434 275 CURVE SMOOTH",
"434 167 OFFCURVE",
"381 83 OFFCURVE",
"282 83 CURVE SMOOTH",
"204 83 OFFCURVE",
"131 149 OFFCURVE",
"131 275 CURVE SMOOTH"
);
}
);
width = 598;
}
);
note = g.001;
},
{
glyphname = zero;
lastChange = "2024-06-22 13:48:17 +0000";
layers = (
{
hints = (
{
horizontal = 1;
place = "{-9, 81}";
type = Stem;
},
{
horizontal = 1;
place = "{661, 81}";
type = Stem;
},
{
place = "{48, 93}";
type = Stem;
},
{
place = "{484, 93}";
type = Stem;
}
);
layerId = "5B3AE2B2-6F0E-4414-97DF-6676E601E692";
paths = (
{
closed = 1;
nodes = (
"471 -15 OFFCURVE",
"571 102 OFFCURVE",
"571 357 CURVE SMOOTH",
"571 613 OFFCURVE",
"471 730 OFFCURVE",
"310 730 CURVE SMOOTH",
"151 730 OFFCURVE",
"48 613 OFFCURVE",
"48 357 CURVE SMOOTH",
"48 102 OFFCURVE",
"151 -15 OFFCURVE",
"310 -15 CURVE SMOOTH"
);
},
{
closed = 1;
nodes = (
"135 567 OFFCURVE",
"202 655 OFFCURVE",
"311 655 CURVE SMOOTH",
"420 655 OFFCURVE",
"484 567 OFFCURVE",
"484 356 CURVE SMOOTH",
"484 147 OFFCURVE",
"420 60 OFFCURVE",
"311 60 CURVE SMOOTH",
"202 60 OFFCURVE",
"135 147 OFFCURVE",
"135 356 CURVE SMOOTH"
);
}
);
width = 619;
}
);
note = zero;
unicode = 0030;
},
{
glyphname = one;
lastChange = "2024-06-22 13:48:17 +0000";
layers = (
{
hints = (
{
horizontal = 1;
place = "{6, 21}";
target = up;
type = BottomGhost;
},
{
horizontal = 1;
place = "{537, 190}";
type = Stem;
},
{
place = "{190, 91}";
type = Stem;
},
{
horizontal = 1;
place = "{537, 64}";
type = Stem;
}
);
layerId = "5B3AE2B2-6F0E-4414-97DF-6676E601E692";
paths = (
{
closed = 1;
nodes = (
"275 0 LINE",
"275 715 LINE",
"190 715 LINE",
"190 634 OFFCURVE",
"98 589 OFFCURVE",
"43 589 CURVE",
"43 531 LINE",
"190 531 LINE",
"190 0 LINE"
);
}
);
width = 405;
}
);
note = one;
unicode = 0031;
},
{
glyphname = two;
lastChange = "2024-06-22 13:48:17 +0000";
layers = (
{
hints = (
{
horizontal = 1;
place = "{6, 77}";
type = Stem;
},
{
horizontal = 1;
place = "{663, 81}";
type = Stem;
},
{
place = "{59, 91}";
type = Stem;
},
{
place = "{429, 93}";
type = Stem;
}
);
layerId = "5B3AE2B2-6F0E-4414-97DF-6676E601E692";
paths = (
{
closed = 1;
nodes = (
"518 0 LINE",
"518 71 LINE",
"163 71 LINE",
"194 205 OFFCURVE",
"317 238 OFFCURVE",
"452 390 CURVE SMOOTH",
"491 434 OFFCURVE",
"516 481 OFFCURVE",
"516 548 CURVE SMOOTH",
"516 650 OFFCURVE",
"423 732 OFFCURVE",
"287 732 CURVE SMOOTH",
"152 732 OFFCURVE",
"59 650 OFFCURVE",
"59 548 CURVE",
"144 548 LINE",
"144 606 OFFCURVE",
"198 657 OFFCURVE",
"287 657 CURVE SMOOTH",
"377 657 OFFCURVE",
"429 606 OFFCURVE",
"429 540 CURVE SMOOTH",
"429 515 OFFCURVE",
"423 471 OFFCURVE",
"388 430 CURVE SMOOTH",
"278 301 OFFCURVE",
"104 265 OFFCURVE",
"48 0 CURVE"
);
}
);
width = 579;
}
);
note = two;
unicode = 0032;
},
{
glyphname = three;
lastChange = "2024-06-22 13:48:17 +0000";
layers = (
{
hints = (
{
horizontal = 1;
place = "{-9, 81}";
type = Stem;
},
{
horizontal = 1;
place = "{361, 77}";
type = Stem;
},
{
horizontal = 1;
place = "{666, 78}";
type = Stem;
},
{
place = "{48, 91}";
type = Stem;
},
{
place = "{446, 93}";
type = Stem;
},
{
place = "{62, 91}";
type = Stem;
},
{
place = "{432, 93}";
type = Stem;
}
);
layerId = "5B3AE2B2-6F0E-4414-97DF-6676E601E692";
paths = (
{
closed = 1;
nodes = (
"435 -15 OFFCURVE",
"533 78 OFFCURVE",
"533 195 CURVE SMOOTH",
"533 281 OFFCURVE",
"482 355 OFFCURVE",
"400 389 CURVE",
"474 419 OFFCURVE",
"519 478 OFFCURVE",
"519 548 CURVE SMOOTH",
"519 650 OFFCURVE",
"426 732 OFFCURVE",
"290 732 CURVE SMOOTH",
"155 732 OFFCURVE",
"62 650 OFFCURVE",
"62 548 CURVE",
"147 548 LINE",
"147 610 OFFCURVE",
"205 660 OFFCURVE",
"290 660 CURVE SMOOTH",
"376 660 OFFCURVE",
"432 610 OFFCURVE",
"432 545 CURVE SMOOTH",
"432 482 OFFCURVE",
"386 426 OFFCURVE",
"300 426 CURVE SMOOTH",
"240 426 LINE",
"239 355 LINE",
"300 355 LINE SMOOTH",
"400 355 OFFCURVE",
"446 286 OFFCURVE",
"446 205 CURVE SMOOTH",
"446 124 OFFCURVE",
"390 60 OFFCURVE",
"290 60 CURVE SMOOTH",
"191 60 OFFCURVE",
"133 126 OFFCURVE",
"133 195 CURVE",
"48 195 LINE",
"48 78 OFFCURVE",
"146 -15 OFFCURVE",
"290 -15 CURVE SMOOTH"
);
}
);
width = 581;
}
);
note = three;
unicode = 0033;
},
{
glyphname = four;
lastChange = "2024-06-22 13:48:17 +0000";
layers = (
{
hints = (
{
horizontal = 1;
place = "{6, 21}";
target = up;
type = BottomGhost;
},
{
horizontal = 1;
place = "{193, 77}";
type = Stem;
},
{
horizontal = 1;
place = "{721, -20}";
target = down;
type = TopGhost;
},
{
place = "{399, 91}";
type = Stem;
}
);
layerId = "5B3AE2B2-6F0E-4414-97DF-6676E601E692";
paths = (
{
closed = 1;
nodes = (
"399 187 LINE",
"399 0 LINE",
"484 0 LINE",
"484 187 LINE",
"563 187 LINE",
"563 258 LINE",
"484 258 LINE",
"484 715 LINE",
"399 715 LINE",
"46 258 LINE",
"46 187 LINE"
);
},
{
closed = 1;
nodes = (
"399 594 LINE",
"399 258 LINE",
"143 258 LINE"
);
}
);
width = 624;
}
);
note = four;
unicode = 0034;
},
{
glyphname = five;
lastChange = "2024-06-22 13:48:17 +0000";
layers = (
{
hints = (
{
horizontal = 1;
place = "{-4, 81}";
type = Stem;
},
{
horizontal = 1;
place = "{404, 81}";
type = Stem;
},
{
horizontal = 1;
place = "{650, 77}";
type = Stem;
},
{
place = "{439, 91}";
type = Stem;
}
);
layerId = "5B3AE2B2-6F0E-4414-97DF-6676E601E692";
paths = (
{
closed = 1;
nodes = (
"426 -10 OFFCURVE",
"524 97 OFFCURVE",
"524 232 CURVE SMOOTH",
"524 366 OFFCURVE",
"426 473 OFFCURVE",
"283 473 CURVE SMOOTH",
"226 473 OFFCURVE",
"176 456 OFFCURVE",
"136 427 CURVE",
"164 644 LINE",
"503 644 LINE",
"503 715 LINE",
"97 715 LINE",
"48 333 LINE",
"133 327 LINE",
"161 368 OFFCURVE",
"205 398 OFFCURVE",
"265 398 CURVE SMOOTH",
"383 398 OFFCURVE",
"439 322 OFFCURVE",
"439 232 CURVE SMOOTH",
"439 141 OFFCURVE",
"383 65 OFFCURVE",
"283 65 CURVE SMOOTH",
"208 65 OFFCURVE",
"156 110 OFFCURVE",
"134 169 CURVE",
"49 166 LINE",
"76 64 OFFCURVE",
"163 -10 OFFCURVE",
"283 -10 CURVE SMOOTH"
);
}
);
width = 572;
}
);
note = five;
unicode = 0035;
},
{
glyphname = six;
lastChange = "2024-06-22 13:48:17 +0000";
layers = (
{
hints = (
{
horizontal = 1;
place = "{-9, 81}";
type = Stem;
},
{
horizontal = 1;
place = "{399, 81}";
type = Stem;
},
{
horizontal = 1;
place = "{661, 81}";
type = Stem;
},
{
place = "{48, 86}";
type = Stem;
},
{
place = "{464, 93}";
type = Stem;
}
);
layerId = "5B3AE2B2-6F0E-4414-97DF-6676E601E692";
paths = (
{
closed = 1;
nodes = (
"453 -15 OFFCURVE",
"551 92 OFFCURVE",
"551 226 CURVE SMOOTH",
"551 361 OFFCURVE",
"453 468 OFFCURVE",
"309 468 CURVE SMOOTH",
"230 468 OFFCURVE",
"171 435 OFFCURVE",
"128 382 CURVE",
"134 576 OFFCURVE",
"197 655 OFFCURVE",
"309 655 CURVE SMOOTH",
"389 655 OFFCURVE",
"458 615 OFFCURVE",
"468 520 CURVE",
"553 521 LINE",
"537 663 OFFCURVE",
"429 730 OFFCURVE",
"309 730 CURVE SMOOTH",
"148 730 OFFCURVE",
"48 613 OFFCURVE",
"48 358 CURVE SMOOTH",
"48 272 OFFCURVE",
"59 202 OFFCURVE",
"80 146 CURVE",
"91 112 OFFCURVE",
"110 81 OFFCURVE",
"134 56 CURVE SMOOTH",
"178 8 OFFCURVE",
"238 -15 OFFCURVE",
"309 -15 CURVE SMOOTH"
);
},
{
closed = 1;
nodes = (
"148 320 OFFCURVE",
"206 393 OFFCURVE",
"308 393 CURVE SMOOTH",
"412 393 OFFCURVE",
"464 320 OFFCURVE",
"464 226 CURVE SMOOTH",
"464 133 OFFCURVE",
"412 60 OFFCURVE",
"308 60 CURVE SMOOTH",
"206 60 OFFCURVE",
"148 133 OFFCURVE",
"148 226 CURVE SMOOTH"
);
}
);
width = 601;
}
);
note = six;
unicode = 0036;
},
{
glyphname = seven;
lastChange = "2024-06-22 13:48:17 +0000";
layers = (
{
hints = (
{
horizontal = 1;
place = "{6, 21}";
target = up;
type = BottomGhost;
},
{
horizontal = 1;
place = "{650, 77}";
type = Stem;
},
{
place = "{126, 91}";
type = Stem;
}
);
layerId = "5B3AE2B2-6F0E-4414-97DF-6676E601E692";
paths = (
{
closed = 1;
nodes = (
"211 0 LINE",
"219 305 OFFCURVE",
"389 495 OFFCURVE",
"583 646 CURVE",
"583 715 LINE",
"43 715 LINE",
"43 644 LINE",
"478 644 LINE",
"292 506 OFFCURVE",
"126 252 OFFCURVE",
"126 0 CURVE"
);
}
);
width = 589;
}
);
note = seven;
unicode = 0037;
},
{
glyphname = eight;
lastChange = "2024-06-22 13:48:17 +0000";
layers = (
{
hints = (
{
horizontal = 1;
place = "{-9, 81}";
type = Stem;
},
{
horizontal = 1;
place = "{376, 77}";
type = Stem;
},
{
horizontal = 1;
place = "{662, 81}";
type = Stem;
},
{
place = "{48, 93}";
type = Stem;
},
{
place = "{466, 93}";
type = Stem;
},
{
place = "{83, 93}";
type = Stem;
},
{
place = "{431, 93}";
type = Stem;
}
);
layerId = "5B3AE2B2-6F0E-4414-97DF-6676E601E692";
paths = (
{
closed = 1;
nodes = (
"451 -15 OFFCURVE",
"553 82 OFFCURVE",
"553 204 CURVE SMOOTH",
"553 294 OFFCURVE",
"499 370 OFFCURVE",
"411 404 CURVE",
"478 434 OFFCURVE",
"518 490 OFFCURVE",
"518 555 CURVE SMOOTH",
"518 653 OFFCURVE",
"430 731 OFFCURVE",
"300 731 CURVE SMOOTH",
"171 731 OFFCURVE",
"83 653 OFFCURVE",
"83 555 CURVE SMOOTH",
"83 490 OFFCURVE",
"123 434 OFFCURVE",
"189 404 CURVE",
"102 370 OFFCURVE",
"48 295 OFFCURVE",
"48 204 CURVE SMOOTH",
"48 82 OFFCURVE",
"150 -15 OFFCURVE",
"300 -15 CURVE SMOOTH"
);
},
{
closed = 1;
nodes = (
"170 609 OFFCURVE",
"216 656 OFFCURVE",
"300 656 CURVE SMOOTH",
"385 656 OFFCURVE",
"431 609 OFFCURVE",
"431 548 CURVE SMOOTH",
"431 488 OFFCURVE",
"385 441 OFFCURVE",
"300 441 CURVE SMOOTH",
"216 441 OFFCURVE",
"170 488 OFFCURVE",
"170 548 CURVE SMOOTH"
);
},
{
closed = 1;
nodes = (
"135 302 OFFCURVE",
"194 370 OFFCURVE",
"300 370 CURVE SMOOTH",
"407 370 OFFCURVE",
"466 302 OFFCURVE",
"466 214 CURVE SMOOTH",
"466 129 OFFCURVE",
"407 60 OFFCURVE",
"300 60 CURVE SMOOTH",
"194 60 OFFCURVE",
"135 129 OFFCURVE",
"135 214 CURVE SMOOTH"
);
}
);
width = 601;
}
);
note = eight;
unicode = 0038;
},
{
glyphname = nine;
lastChange = "2024-06-22 13:48:17 +0000";
layers = (
{
hints = (
{
horizontal = 1;
place = "{14, 81}";
type = Stem;
},
{
horizontal = 1;
place = "{276, 81}";
type = Stem;
},
{
horizontal = 1;
place = "{684, 81}";
type = Stem;
},
{
place = "{50, 93}";
type = Stem;
},
{
place = "{473, 86}";
type = Stem;
}
);
layerId = "5B3AE2B2-6F0E-4414-97DF-6676E601E692";
paths = (
{
closed = 1;
nodes = (
"148 753 OFFCURVE",
"50 646 OFFCURVE",
"50 512 CURVE SMOOTH",
"50 377 OFFCURVE",
"148 270 OFFCURVE",
"292 270 CURVE SMOOTH",
"371 270 OFFCURVE",
"430 303 OFFCURVE",
"473 356 CURVE",
"467 162 OFFCURVE",
"404 83 OFFCURVE",
"292 83 CURVE SMOOTH",
"212 83 OFFCURVE",
"143 123 OFFCURVE",
"133 218 CURVE",
"48 217 LINE",
"64 75 OFFCURVE",
"172 8 OFFCURVE",
"292 8 CURVE SMOOTH",
"453 8 OFFCURVE",
"553 125 OFFCURVE",
"553 380 CURVE SMOOTH",
"553 466 OFFCURVE",
"542 536 OFFCURVE",
"521 592 CURVE",
"510 626 OFFCURVE",
"491 657 OFFCURVE",
"467 682 CURVE SMOOTH",
"423 730 OFFCURVE",
"363 753 OFFCURVE",
"292 753 CURVE SMOOTH"
);
},
{
closed = 1;
nodes = (
"453 418 OFFCURVE",
"395 345 OFFCURVE",
"293 345 CURVE SMOOTH",
"189 345 OFFCURVE",
"137 418 OFFCURVE",
"137 512 CURVE SMOOTH",
"137 605 OFFCURVE",
"189 678 OFFCURVE",
"293 678 CURVE SMOOTH",
"395 678 OFFCURVE",
"453 605 OFFCURVE",
"453 512 CURVE SMOOTH"
);
}
);
width = 601;
}
);
note = nine;
unicode = 0039;
},
{
glyphname = fraction;
lastChange = "2024-06-22 13:48:17 +0000";
layers = (
{
hints = (
{
horizontal = 1;
place = "{-9, 21}";
target = up;
type = BottomGhost;
},
{
horizontal = 1;
place = "{737, -20}";
target = down;
type = TopGhost;
},
{
place = "{81, 526}";
type = Stem;
}
);
layerId = "5B3AE2B2-6F0E-4414-97DF-6676E601E692";
paths = (
{
closed = 1;
nodes = (
"168 -15 LINE",
"601 731 LINE",
"514 731 LINE",
"81 -15 LINE"
);
}
);
width = 682;
}
);
note = fraction;
unicode = 2044;
},
{
glyphname = period;
lastChange = "2024-06-22 13:48:17 +0000";
layers = (
{
hints = (
{
horizontal = 1;
place = "{3, 118}";
type = Stem;
},
{
place = "{83, 120}";
type = Stem;
}
);
layerId = "5B3AE2B2-6F0E-4414-97DF-6676E601E692";
paths = (
{
closed = 1;
nodes = (
"83 21 OFFCURVE",
"107 -3 OFFCURVE",
"140 -3 CURVE SMOOTH",
"173 -3 OFFCURVE",
"197 21 OFFCURVE",
"197 53 CURVE SMOOTH",
"197 85 OFFCURVE",
"173 109 OFFCURVE",
"140 109 CURVE SMOOTH",
"107 109 OFFCURVE",
"83 85 OFFCURVE",
"83 53 CURVE SMOOTH"
);
}
);
width = 280;
}
);
note = period;
unicode = 002E;
},
{
glyphname = comma;
lastChange = "2024-06-22 13:48:17 +0000";
layers = (
{
hints = (
{
horizontal = 1;
place = "{-117, 52}";
type = Stem;
},
{
horizontal = 1;
place = "{6, 21}";
target = up;
type = BottomGhost;
},
{
place = "{82, 58}";
type = Stem;
},
{
horizontal = 1;
place = "{6, 109}";
type = Stem;
}
);
layerId = "5B3AE2B2-6F0E-4414-97DF-6676E601E692";
paths = (
{
closed = 1;
nodes = (
"31 -123 LINE",
"85 -123 OFFCURVE",
"134 -83 OFFCURVE",
"134 29 CURVE SMOOTH",
"134 50 LINE SMOOTH",
"134 79 OFFCURVE",
"111 103 OFFCURVE",
"81 103 CURVE SMOOTH",
"51 103 OFFCURVE",
"29 80 OFFCURVE",
"29 51 CURVE SMOOTH",
"29 23 OFFCURVE",
"51 0 OFFCURVE",
"81 0 CURVE SMOOTH",
"82 0 LINE",
"82 -2 LINE SMOOTH",
"82 -59 OFFCURVE",
"44 -77 OFFCURVE",
"31 -77 CURVE"
);
}
);
width = 163;
}
);
note = comma;
unicode = 002C;
},
{
glyphname = colon;
lastChange = "2024-06-22 13:48:17 +0000";
layers = (
{
hints = (
{
horizontal = 1;
place = "{-2, 108}";
type = Stem;
},
{
horizontal = 1;
place = "{289, 108}";
type = Stem;
},
{
place = "{81, 110}";
type = Stem;
}
);
layerId = "5B3AE2B2-6F0E-4414-97DF-6676E601E692";
paths = (
{
closed = 1;
nodes = (
"81 305 OFFCURVE",
"103 283 OFFCURVE",
"133 283 CURVE SMOOTH",
"163 283 OFFCURVE",
"185 305 OFFCURVE",
"185 334 CURVE SMOOTH",
"185 363 OFFCURVE",
"163 385 OFFCURVE",
"133 385 CURVE SMOOTH",
"103 385 OFFCURVE",
"81 363 OFFCURVE",
"81 334 CURVE SMOOTH"
);
},
{
closed = 1;
nodes = (
"81 14 OFFCURVE",
"103 -8 OFFCURVE",
"133 -8 CURVE SMOOTH",
"163 -8 OFFCURVE",
"185 14 OFFCURVE",
"185 43 CURVE SMOOTH",
"185 72 OFFCURVE",
"163 94 OFFCURVE",
"133 94 CURVE SMOOTH",
"103 94 OFFCURVE",
"81 72 OFFCURVE",
"81 43 CURVE SMOOTH"
);
}
);
width = 260;
}
);
note = colon;
unicode = 003A;
},
{
glyphname = semicolon;
lastChange = "2024-06-22 13:48:17 +0000";
layers = (
{
hints = (
{
horizontal = 1;
place = "{-117, 52}";
type = Stem;
},
{
horizontal = 1;
place = "{6, 21}";
target = up;
type = BottomGhost;
},
{
horizontal = 1;
place = "{217, 108}";
type = Stem;
},
{
place = "{137, 110}";
type = Stem;
},
{
horizontal = 1;
place = "{6, 109}";
type = Stem;
},
{
place = "{136, 58}";
type = Stem;
}
);
layerId = "5B3AE2B2-6F0E-4414-97DF-6676E601E692";
paths = (
{
closed = 1;
nodes = (
"137 233 OFFCURVE",
"159 211 OFFCURVE",
"189 211 CURVE SMOOTH",
"219 211 OFFCURVE",
"241 233 OFFCURVE",
"241 262 CURVE SMOOTH",
"241 291 OFFCURVE",
"219 313 OFFCURVE",
"189 313 CURVE SMOOTH",
"159 313 OFFCURVE",
"137 291 OFFCURVE",
"137 262 CURVE SMOOTH"
);
},
{
closed = 1;
nodes = (
"85 -123 LINE",
"139 -123 OFFCURVE",
"188 -83 OFFCURVE",
"188 29 CURVE SMOOTH",
"188 50 LINE SMOOTH",
"188 79 OFFCURVE",
"165 103 OFFCURVE",
"135 103 CURVE SMOOTH",
"105 103 OFFCURVE",
"83 80 OFFCURVE",
"83 51 CURVE SMOOTH",
"83 23 OFFCURVE",
"105 0 OFFCURVE",
"135 0 CURVE SMOOTH",
"136 0 LINE",
"136 -2 LINE SMOOTH",
"136 -59 OFFCURVE",
"98 -77 OFFCURVE",
"85 -77 CURVE"
);
}
);
width = 324;
}
);
note = semicolon;
unicode = 003B;
},
{
glyphname = ellipsis;
lastChange = "2024-06-22 13:48:17 +0000";
layers = (
{
hints = (
{
horizontal = 1;
place = "{3, 118}";
type = Stem;
},
{
place = "{83, 120}";
type = Stem;
}
);
layerId = "5B3AE2B2-6F0E-4414-97DF-6676E601E692";
paths = (
{
closed = 1;
nodes = (
"107 109 OFFCURVE",
"83 85 OFFCURVE",
"83 53 CURVE SMOOTH",
"83 21 OFFCURVE",
"107 -3 OFFCURVE",
"140 -3 CURVE SMOOTH",
"173 -3 OFFCURVE",
"197 21 OFFCURVE",
"197 53 CURVE SMOOTH",
"197 85 OFFCURVE",
"173 109 OFFCURVE",
"140 109 CURVE SMOOTH"
);
}
);
width = 263;
}
);
note = ellipsis;
unicode = 2026;
},
{
glyphname = exclam;
lastChange = "2024-06-22 13:48:17 +0000";
layers = (
{
hints = (
{
horizontal = 1;
place = "{5, 108}";
type = Stem;
},
{
horizontal = 1;
place = "{722, -20}";
target = down;
type = TopGhost;
},
{
place = "{88, 91}";
type = Stem;
},
{
place = "{81, 110}";
type = Stem;
}
);
layerId = "5B3AE2B2-6F0E-4414-97DF-6676E601E692";
paths = (
{
closed = 1;
nodes = (
"173 199 LINE",
"173 716 LINE",
"88 716 LINE",
"88 199 LINE"
);
},
{
closed = 1;
nodes = (
"81 21 OFFCURVE",
"103 -1 OFFCURVE",
"133 -1 CURVE SMOOTH",
"163 -1 OFFCURVE",
"185 21 OFFCURVE",
"185 50 CURVE SMOOTH",
"185 79 OFFCURVE",
"163 101 OFFCURVE",
"133 101 CURVE SMOOTH",
"103 101 OFFCURVE",
"81 79 OFFCURVE",
"81 50 CURVE SMOOTH"
);
}
);
width = 266;
}
);
note = exclam;
unicode = 0021;
},
{
glyphname = exclamdown;
lastChange = "2024-06-22 13:48:17 +0000";
layers = (
{
hints = (
{
horizontal = 1;
place = "{-160, 21}";
target = up;
type = BottomGhost;
},
{
horizontal = 1;
place = "{455, 108}";
type = Stem;
},
{
place = "{81, 110}";
type = Stem;
},
{
place = "{93, 91}";
type = Stem;
}
);
layerId = "5B3AE2B2-6F0E-4414-97DF-6676E601E692";
paths = (
{
closed = 1;
nodes = (
"185 529 OFFCURVE",
"163 551 OFFCURVE",
"133 551 CURVE SMOOTH",
"103 551 OFFCURVE",
"81 529 OFFCURVE",
"81 500 CURVE SMOOTH",
"81 471 OFFCURVE",
"103 449 OFFCURVE",
"133 449 CURVE SMOOTH",
"163 449 OFFCURVE",
"185 471 OFFCURVE",
"185 500 CURVE SMOOTH"
);
},
{
closed = 1;
nodes = (
"93 351 LINE",
"93 -166 LINE",
"178 -166 LINE",
"178 351 LINE"
);
}
);
width = 266;
}
);
note = exclamdown;
unicode = 00A1;
},
{
glyphname = question;
lastChange = "2024-06-22 13:48:17 +0000";
layers = (
{
hints = (
{
horizontal = 1;
place = "{3, 108}";
type = Stem;
},
{
horizontal = 1;
place = "{659, 81}";
type = Stem;
},
{
place = "{81, 87}";
type = Stem;
},
{
place = "{242, 91}";
type = Stem;
},
{
place = "{433, 93}";
type = Stem;
},
{
place = "{242, 110}";
type = Stem;
}
);
layerId = "5B3AE2B2-6F0E-4414-97DF-6676E601E692";
paths = (
{
closed = 1;
nodes = (
"327 193 LINE",
"327 256 OFFCURVE",
"340 301 OFFCURVE",
"405 345 CURVE SMOOTH",
"453 377 OFFCURVE",
"520 443 OFFCURVE",
"520 532 CURVE SMOOTH",
"520 648 OFFCURVE",
"438 728 OFFCURVE",
"307 728 CURVE SMOOTH",
"184 728 OFFCURVE",
"81 648 OFFCURVE",
"81 498 CURVE",
"162 498 LINE",
"161 613 OFFCURVE",
"234 653 OFFCURVE",
"307 653 CURVE SMOOTH",
"390 653 OFFCURVE",
"433 602 OFFCURVE",
"433 544 CURVE SMOOTH",
"433 477 OFFCURVE",
"411 434 OFFCURVE",
"348 390 CURVE SMOOTH",
"282 344 OFFCURVE",
"242 277 OFFCURVE",
"242 193 CURVE"
);
},
{
closed = 1;
nodes = (
"242 19 OFFCURVE",
"264 -3 OFFCURVE",
"294 -3 CURVE SMOOTH",
"324 -3 OFFCURVE",
"346 19 OFFCURVE",
"346 48 CURVE SMOOTH",
"346 77 OFFCURVE",
"324 99 OFFCURVE",
"294 99 CURVE SMOOTH",
"264 99 OFFCURVE",
"242 77 OFFCURVE",
"242 48 CURVE SMOOTH"
);
}
);
width = 601;
}
);
note = question;
unicode = 003F;
},
{
glyphname = questiondown;
lastChange = "2024-06-22 13:48:17 +0000";
layers = (
{
hints = (
{
horizontal = 1;
place = "{-177, 81}";
type = Stem;
},
{
horizontal = 1;
place = "{452, 108}";
type = Stem;
},
{
place = "{81, 93}";
type = Stem;
},
{
place = "{255, 110}";
type = Stem;
},
{
place = "{439, 87}";
type = Stem;
},
{
place = "{274, 91}";
type = Stem;
}
);
layerId = "5B3AE2B2-6F0E-4414-97DF-6676E601E692";
paths = (
{
closed = 1;
nodes = (
"359 526 OFFCURVE",
"337 548 OFFCURVE",
"307 548 CURVE SMOOTH",
"277 548 OFFCURVE",
"255 526 OFFCURVE",
"255 497 CURVE SMOOTH",
"255 468 OFFCURVE",
"277 446 OFFCURVE",
"307 446 CURVE SMOOTH",
"337 446 OFFCURVE",
"359 468 OFFCURVE",
"359 497 CURVE SMOOTH"
);
},
{
closed = 1;
nodes = (
"274 352 LINE",
"274 289 OFFCURVE",
"261 244 OFFCURVE",
"196 200 CURVE SMOOTH",
"148 168 OFFCURVE",
"81 102 OFFCURVE",
"81 13 CURVE SMOOTH",
"81 -103 OFFCURVE",
"163 -183 OFFCURVE",
"294 -183 CURVE SMOOTH",
"417 -183 OFFCURVE",
"520 -103 OFFCURVE",
"520 47 CURVE",
"439 47 LINE",
"440 -68 OFFCURVE",
"367 -108 OFFCURVE",
"294 -108 CURVE SMOOTH",
"211 -108 OFFCURVE",
"168 -57 OFFCURVE",
"168 1 CURVE SMOOTH",
"168 68 OFFCURVE",
"190 111 OFFCURVE",
"253 155 CURVE SMOOTH",
"319 201 OFFCURVE",
"359 268 OFFCURVE",
"359 352 CURVE"
);
}
);
width = 601;
}
);
note = questiondown;
unicode = 00BF;
},
{
glyphname = periodcentered;
lastChange = "2024-06-22 13:48:17 +0000";
layers = (
{
hints = (
{
horizontal = 1;
place = "{257, 108}";
type = Stem;
},
{
place = "{83, 110}";
type = Stem;
}
);
layerId = "5B3AE2B2-6F0E-4414-97DF-6676E601E692";
paths = (
{
closed = 1;
nodes = (
"83 273 OFFCURVE",
"105 251 OFFCURVE",
"135 251 CURVE SMOOTH",
"165 251 OFFCURVE",
"187 273 OFFCURVE",
"187 302 CURVE SMOOTH",
"187 331 OFFCURVE",
"165 353 OFFCURVE",
"135 353 CURVE SMOOTH",
"105 353 OFFCURVE",
"83 331 OFFCURVE",
"83 302 CURVE SMOOTH"
);
}
);
width = 270;
}
);
note = periodcentered;
unicode = 00B7;
},
{
glyphname = bullet;
lastChange = "2024-06-22 13:48:17 +0000";
layers = (
{
hints = (
{
horizontal = 1;
place = "{216, 166}";
type = Stem;
},
{
place = "{83, 170}";
type = Stem;
}
);
layerId = "5B3AE2B2-6F0E-4414-97DF-6676E601E692";
paths = (
{
closed = 1;
nodes = (
"83 244 OFFCURVE",
"118 210 OFFCURVE",
"165 210 CURVE SMOOTH",
"212 210 OFFCURVE",
"247 244 OFFCURVE",
"247 290 CURVE SMOOTH",
"247 336 OFFCURVE",
"212 370 OFFCURVE",
"165 370 CURVE SMOOTH",
"118 370 OFFCURVE",
"83 336 OFFCURVE",
"83 290 CURVE SMOOTH"
);
}
);
width = 330;
}
);
note = bullet;
unicode = 2022;
},
{
glyphname = asterisk;
lastChange = "2024-06-22 13:48:17 +0000";
layers = (
{
hints = (
{
horizontal = 1;
place = "{406, 311}";
type = Stem;
},
{
place = "{198, 66}";
type = Stem;
}
);
layerId = "5B3AE2B2-6F0E-4414-97DF-6676E601E692";
paths = (
{
closed = 1;
nodes = (
"345 655 LINE",
"258 605 LINE",
"258 705 LINE",
"198 705 LINE",
"198 605 LINE",
"111 655 LINE",
"81 603 LINE",
"168 553 LINE",
"81 503 LINE",
"111 451 LINE",
"198 501 LINE",
"198 400 LINE",
"258 400 LINE",
"258 501 LINE",
"345 451 LINE",
"375 503 LINE",
"288 553 LINE",
"375 603 LINE"
);
}
);
width = 456;
}
);
note = asterisk;
unicode = 002A;
},
{
glyphname = numbersign;
lastChange = "2024-06-22 13:48:17 +0000";
layers = (
{
hints = (
{
horizontal = 1;
place = "{6, 208}";
type = Stem;
},
{
horizontal = 1;
place = "{321, 73}";
type = Stem;
},
{
place = "{67, 460}";
type = Stem;
},
{
horizontal = 1;
place = "{321, 209}";
type = Stem;
},
{
horizontal = 1;
place = "{141, 73}";
type = Stem;
}
);
layerId = "5B3AE2B2-6F0E-4414-97DF-6676E601E692";
paths = (
{
closed = 1;
nodes = (
"179 382 LINE",
"98 382 LINE",
"99 315 LINE",
"168 315 LINE",
"148 202 LINE",
"67 202 LINE",
"67 135 LINE",
"137 135 LINE",
"113 0 LINE",
"187 0 LINE",
"211 135 LINE",
"335 135 LINE",
"311 0 LINE",
"385 0 LINE",
"409 135 LINE",
"490 135 LINE",
"489 202 LINE",
"420 202 LINE",
"440 315 LINE",
"521 315 LINE",
"520 382 LINE",
"451 382 LINE",
"476 518 LINE",
"402 518 LINE",
"377 382 LINE",
"253 382 LINE",
"278 518 LINE",
"204 518 LINE"
);
},
{
closed = 1;
nodes = (
"242 315 LINE",
"366 315 LINE",
"346 202 LINE",
"222 202 LINE"
);
}
);
width = 612;
}
);
note = numbersign;
unicode = 0023;
},
{
glyphname = slash;
lastChange = "2024-06-22 13:48:17 +0000";
layers = (
{
hints = (
{
horizontal = 1;
place = "{-9, 21}";
target = up;
type = BottomGhost;
},
{
horizontal = 1;
place = "{737, -20}";
target = down;
type = TopGhost;
},
{
place = "{81, 215}";
type = Stem;
}
);
layerId = "5B3AE2B2-6F0E-4414-97DF-6676E601E692";
paths = (
{
closed = 1;
nodes = (
"81 -15 LINE",
"158 -15 LINE",
"290 731 LINE",
"213 731 LINE"
);
}
);
width = 371;
}
);
note = slash;
unicode = 002F;
},
{
glyphname = backslash;
lastChange = "2024-06-22 13:48:17 +0000";
layers = (
{
hints = (
{
horizontal = 1;
place = "{-9, 21}";
target = up;
type = BottomGhost;
},
{
horizontal = 1;
place = "{737, -20}";
target = down;
type = TopGhost;
},
{
place = "{81, 215}";
type = Stem;
}
);
layerId = "5B3AE2B2-6F0E-4414-97DF-6676E601E692";
paths = (
{
closed = 1;
nodes = (
"81 731 LINE",
"213 -15 LINE",
"290 -15 LINE",
"158 731 LINE"
);
}
);
width = 371;
}
);
note = backslash;
unicode = 005C;
},
{
glyphname = parenleft;
lastChange = "2024-06-22 13:48:17 +0000";
layers = (
{
hints = (
{
horizontal = 1;
place = "{-54, 841}";
type = Stem;
},
{
place = "{81, 249}";
type = Stem;
}
);
layerId = "5B3AE2B2-6F0E-4414-97DF-6676E601E692";
paths = (
{
closed = 1;
nodes = (
"324 -60 LINE",
"153 0 OFFCURVE",
"81 177 OFFCURVE",
"81 357 CURVE SMOOTH",
"81 538 OFFCURVE",
"153 715 OFFCURVE",
"324 775 CURVE",
"323 691 LINE",
"202 631 OFFCURVE",
"169 486 OFFCURVE",
"169 356 CURVE SMOOTH",
"169 229 OFFCURVE",
"202 84 OFFCURVE",
"323 24 CURVE"
);
}
);
width = 405;
}
);
note = parenleft;
unicode = 0028;
},
{
glyphname = parenright;
lastChange = "2024-06-22 13:48:17 +0000";
layers = (
{
hints = (
{
horizontal = 1;
place = "{-54, 841}";
type = Stem;
},
{
place = "{81, 249}";
type = Stem;
}
);
layerId = "5B3AE2B2-6F0E-4414-97DF-6676E601E692";
paths = (
{
closed = 1;
nodes = (
"82 24 LINE",
"203 84 OFFCURVE",
"236 229 OFFCURVE",
"236 356 CURVE SMOOTH",
"236 486 OFFCURVE",
"203 631 OFFCURVE",
"82 691 CURVE",
"81 775 LINE",
"252 715 OFFCURVE",
"324 538 OFFCURVE",
"324 357 CURVE SMOOTH",
"324 177 OFFCURVE",
"252 0 OFFCURVE",
"81 -60 CURVE"
);
}
);
width = 405;
}
);
note = parenright;
unicode = 0029;
},
{
glyphname = braceleft;
lastChange = "2024-06-22 13:48:17 +0000";
layers = (
{
hints = (
{
horizontal = 1;
place = "{-52, 73}";
type = Stem;
},
{
horizontal = 1;
place = "{330, 73}";
type = Stem;
},
{
horizontal = 1;
place = "{713, 73}";
type = Stem;
},
{
place = "{180, 87}";
type = Stem;
}
);
layerId = "5B3AE2B2-6F0E-4414-97DF-6676E601E692";
paths = (
{
closed = 1;
nodes = (
"180 461 LINE SMOOTH",
"180 381 OFFCURVE",
"118 391 OFFCURVE",
"81 391 CURVE",
"81 324 LINE",
"118 324 OFFCURVE",
"180 334 OFFCURVE",
"180 254 CURVE SMOOTH",
"180 66 LINE SMOOTH",
"180 3 OFFCURVE",
"216 -52 OFFCURVE",
"295 -58 CURVE SMOOTH",
"329 -61 OFFCURVE",
"360 -58 OFFCURVE",
"360 -58 CURVE",
"360 9 LINE",
"323 9 OFFCURVE",
"262 -1 OFFCURVE",
"261 79 CURVE",
"261 267 LINE SMOOTH",
"261 311 OFFCURVE",
"244 341 OFFCURVE",
"206 358 CURVE",
"244 374 OFFCURVE",
"261 404 OFFCURVE",
"261 448 CURVE SMOOTH",
"261 637 LINE SMOOTH",
"261 717 OFFCURVE",
"323 707 OFFCURVE",
"360 707 CURVE",
"360 774 LINE",
"360 774 OFFCURVE",
"329 777 OFFCURVE",
"295 774 CURVE SMOOTH",
"216 768 OFFCURVE",
"180 713 OFFCURVE",
"180 650 CURVE SMOOTH"
);
}
);
width = 441;
}
);
note = braceleft;
unicode = 007B;
},
{
glyphname = braceright;
lastChange = "2024-06-22 13:48:17 +0000";
layers = (
{
hints = (
{
horizontal = 1;
place = "{-52, 73}";
type = Stem;
},
{
horizontal = 1;
place = "{330, 73}";
type = Stem;
},
{
horizontal = 1;
place = "{713, 73}";
type = Stem;
},
{
place = "{180, 87}";
type = Stem;
}
);
layerId = "5B3AE2B2-6F0E-4414-97DF-6676E601E692";
paths = (
{
closed = 1;
nodes = (
"261 650 LINE SMOOTH",
"261 713 OFFCURVE",
"225 768 OFFCURVE",
"146 774 CURVE SMOOTH",
"112 777 OFFCURVE",
"81 774 OFFCURVE",
"81 774 CURVE",
"81 707 LINE",
"118 707 OFFCURVE",
"180 717 OFFCURVE",
"180 637 CURVE SMOOTH",
"180 448 LINE SMOOTH",
"180 404 OFFCURVE",
"197 374 OFFCURVE",
"235 358 CURVE",
"197 341 OFFCURVE",
"180 311 OFFCURVE",
"180 267 CURVE SMOOTH",
"180 79 LINE SMOOTH",
"179 -1 OFFCURVE",
"118 9 OFFCURVE",
"81 9 CURVE",
"81 -58 LINE",
"81 -58 OFFCURVE",
"112 -61 OFFCURVE",
"146 -58 CURVE SMOOTH",
"225 -52 OFFCURVE",
"261 3 OFFCURVE",
"261 66 CURVE SMOOTH",
"261 254 LINE SMOOTH",
"261 334 OFFCURVE",
"323 324 OFFCURVE",
"360 324 CURVE",
"360 391 LINE",
"323 391 OFFCURVE",
"261 381 OFFCURVE",
"261 461 CURVE SMOOTH"
);
}
);
width = 441;
}
);
note = braceright;
unicode = 007D;
},
{
glyphname = bracketleft;
lastChange = "2024-06-22 13:48:17 +0000";
layers = (
{
hints = (
{
horizontal = 1;
place = "{7, 76}";
type = Stem;
},
{
horizontal = 1;
place = "{651, 77}";
type = Stem;
},
{
place = "{81, 91}";
type = Stem;
}
);
layerId = "5B3AE2B2-6F0E-4414-97DF-6676E601E692";
paths = (
{
closed = 1;
nodes = (
"266 1 LINE",
"266 72 LINE",
"166 70 LINE",
"166 645 LINE",
"256 644 LINE",
"256 715 LINE",
"81 715 LINE",
"81 1 LINE"
);
}
);
width = 347;
}
);
note = bracketleft;
unicode = 005B;
},
{
glyphname = bracketright;
lastChange = "2024-06-22 13:48:17 +0000";
layers = (
{
hints = (
{
horizontal = 1;
place = "{7, 76}";
type = Stem;
},
{
horizontal = 1;
place = "{651, 77}";
type = Stem;
},
{
place = "{181, 91}";
type = Stem;
}
);
layerId = "5B3AE2B2-6F0E-4414-97DF-6676E601E692";
paths = (
{
closed = 1;
nodes = (
"266 715 LINE",
"91 715 LINE",
"91 644 LINE",
"181 645 LINE",
"181 70 LINE",
"81 72 LINE",
"81 1 LINE",
"266 1 LINE"
);
}
);
width = 347;
}
);
note = bracketright;
unicode = 005D;
},
{
glyphname = hyphen;
lastChange = "2024-06-22 13:48:17 +0000";
layers = (
{
hints = (
{
horizontal = 1;
place = "{227, 77}";
type = Stem;
},
{
place = "{81, 286}";
type = Stem;
}
);
layerId = "5B3AE2B2-6F0E-4414-97DF-6676E601E692";
paths = (
{
closed = 1;
nodes = (
"361 221 LINE",
"361 292 LINE",
"81 292 LINE",
"81 221 LINE"
);
}
);
width = 442;
}
);
note = hyphen;
unicode = 002D;
},
{
glyphname = endash;
lastChange = "2024-06-22 13:48:17 +0000";
layers = (
{
hints = (
{
horizontal = 1;
place = "{227, 77}";
type = Stem;
},
{
place = "{81, 427}";
type = Stem;
}
);
layerId = "5B3AE2B2-6F0E-4414-97DF-6676E601E692";
paths = (
{
closed = 1;
nodes = (
"502 221 LINE",
"502 292 LINE",
"81 292 LINE",
"81 221 LINE"
);
}
);
width = 583;
}
);
note = endash;
unicode = 2013;
},
{
glyphname = emdash;
lastChange = "2024-06-22 13:48:17 +0000";
layers = (
{
hints = (
{
horizontal = 1;
place = "{224, 77}";
type = Stem;
},
{
place = "{81, 704}";
type = Stem;
}
);
layerId = "5B3AE2B2-6F0E-4414-97DF-6676E601E692";
paths = (
{
closed = 1;
nodes = (
"779 218 LINE",
"779 289 LINE",
"81 289 LINE",
"81 218 LINE"
);
}
);
width = 860;
}
);
note = emdash;
unicode = 2014;
},
{
glyphname = underscore;
lastChange = "2024-06-22 13:48:17 +0000";
layers = (
{
hints = (
{
horizontal = 1;
place = "{-117, 77}";
type = Stem;
},
{
place = "{81, 427}";
type = Stem;
}
);
layerId = "5B3AE2B2-6F0E-4414-97DF-6676E601E692";
paths = (
{
closed = 1;
nodes = (
"502 -123 LINE",
"502 -52 LINE",
"81 -52 LINE",
"81 -123 LINE"
);
}
);
width = 583;
}
);
note = underscore;
unicode = 005F;
},
{
glyphname = quotesinglbase;
lastChange = "2024-06-22 13:48:17 +0000";
layers = (
{
hints = (
{
horizontal = 1;
place = "{-117, 52}";
type = Stem;
},
{
horizontal = 1;
place = "{6, 21}";
target = up;
type = BottomGhost;
},
{
place = "{82, 58}";
type = Stem;
},
{
horizontal = 1;
place = "{6, 109}";
type = Stem;
}
);
layerId = "5B3AE2B2-6F0E-4414-97DF-6676E601E692";
paths = (
{
closed = 1;
nodes = (
"31 -123 LINE",
"85 -123 OFFCURVE",
"134 -83 OFFCURVE",
"134 29 CURVE SMOOTH",
"134 50 LINE SMOOTH",
"134 79 OFFCURVE",
"111 103 OFFCURVE",
"81 103 CURVE SMOOTH",
"51 103 OFFCURVE",
"29 80 OFFCURVE",
"29 51 CURVE SMOOTH",
"29 23 OFFCURVE",
"51 0 OFFCURVE",
"81 0 CURVE SMOOTH",
"82 0 LINE",
"82 -2 LINE SMOOTH",
"82 -59 OFFCURVE",
"44 -77 OFFCURVE",
"31 -77 CURVE"
);
}
);
width = 263;
}
);
note = quotesinglbase;
unicode = 201A;
},
{
glyphname = quotedblbase;
lastChange = "2024-06-22 13:48:17 +0000";
layers = (
{
hints = (
{
horizontal = 1;
place = "{-117, 52}";
type = Stem;
},
{
horizontal = 1;
place = "{6, 109}";
type = Stem;
},
{
place = "{82, 58}";
type = Stem;
}
);
layerId = "5B3AE2B2-6F0E-4414-97DF-6676E601E692";
paths = (
{
closed = 1;
nodes = (
"51 103 OFFCURVE",
"29 80 OFFCURVE",
"29 51 CURVE SMOOTH",
"29 23 OFFCURVE",
"51 0 OFFCURVE",
"81 0 CURVE SMOOTH",
"82 0 LINE",
"82 -2 LINE SMOOTH",
"82 -59 OFFCURVE",
"44 -77 OFFCURVE",
"31 -77 CURVE",
"31 -123 LINE",
"85 -123 OFFCURVE",
"134 -83 OFFCURVE",
"134 29 CURVE SMOOTH",
"134 50 LINE SMOOTH",
"134 79 OFFCURVE",
"111 103 OFFCURVE",
"81 103 CURVE SMOOTH"
);
}
);
width = 263;
}
);
note = quotedblbase;
unicode = 201E;
},
{
glyphname = quotedblleft;
lastChange = "2024-06-22 13:48:17 +0000";
layers = (
{
hints = (
{
horizontal = 1;
place = "{511, 246}";
type = Stem;
},
{
place = "{38, 119}";
type = Stem;
}
);
layerId = "5B3AE2B2-6F0E-4414-97DF-6676E601E692";
paths = (
{
closed = 1;
nodes = (
"89 745 LINE SMOOTH",
"89 745 OFFCURVE",
"57 612 OFFCURVE",
"47 556 CURVE SMOOTH",
"38 505 LINE",
"118 505 LINE",
"127 556 LINE SMOOTH",
"137 612 OFFCURVE",
"151 745 OFFCURVE",
"151 745 CURVE SMOOTH"
);
}
);
width = 189;
}
);
note = quotedblleft;
unicode = 201C;
},
{
glyphname = quotedblright;
lastChange = "2024-06-22 13:48:17 +0000";
layers = (
{
hints = (
{
horizontal = 1;
place = "{509, 246}";
type = Stem;
},
{
place = "{38, 119}";
type = Stem;
}
);
layerId = "5B3AE2B2-6F0E-4414-97DF-6676E601E692";
paths = (
{
closed = 1;
nodes = (
"62 692 LINE SMOOTH",
"52 636 OFFCURVE",
"38 503 OFFCURVE",
"38 503 CURVE",
"100 503 LINE",
"100 503 OFFCURVE",
"132 636 OFFCURVE",
"142 692 CURVE SMOOTH",
"151 743 LINE",
"71 743 LINE"
);
}
);
width = 189;
}
);
note = quotedblright;
unicode = 201D;
},
{
glyphname = quoteleft;
lastChange = "2024-06-22 13:48:17 +0000";
layers = (
{
hints = (
{
horizontal = 1;
place = "{511, 246}";
type = Stem;
},
{
place = "{38, 119}";
type = Stem;
}
);
layerId = "5B3AE2B2-6F0E-4414-97DF-6676E601E692";
paths = (
{
closed = 1;
nodes = (
"127 556 LINE SMOOTH",
"137 612 OFFCURVE",
"151 745 OFFCURVE",
"151 745 CURVE SMOOTH",
"89 745 LINE SMOOTH",
"89 745 OFFCURVE",
"57 612 OFFCURVE",
"47 556 CURVE SMOOTH",
"38 505 LINE",
"118 505 LINE"
);
}
);
width = 189;
}
);
note = quoteleft;
unicode = 2018;
},
{
glyphname = quoteright;
lastChange = "2024-06-22 13:48:17 +0000";
layers = (
{
hints = (
{
horizontal = 1;
place = "{509, 246}";
type = Stem;
},
{
place = "{38, 119}";
type = Stem;
}
);
layerId = "5B3AE2B2-6F0E-4414-97DF-6676E601E692";
paths = (
{
closed = 1;
nodes = (
"62 692 LINE SMOOTH",
"52 636 OFFCURVE",
"38 503 OFFCURVE",
"38 503 CURVE",
"100 503 LINE",
"100 503 OFFCURVE",
"132 636 OFFCURVE",
"142 692 CURVE SMOOTH",
"151 743 LINE",
"71 743 LINE"
);
}
);
width = 189;
}
);
note = quoteright;
unicode = 2019;
},
{
glyphname = guillemetleft;
lastChange = "2024-06-22 13:48:17 +0000";
layers = (
{
hints = (
{
horizontal = 1;
place = "{6, 21}";
target = up;
type = BottomGhost;
},
{
horizontal = 1;
place = "{523, -20}";
target = down;
type = TopGhost;
},
{
place = "{31, 80}";
type = Stem;
}
);
layerId = "5B3AE2B2-6F0E-4414-97DF-6676E601E692";
paths = (
{
closed = 1;
nodes = (
"31 305 LINE",
"31 212 LINE",
"372 0 LINE",
"372 92 LINE",
"105 259 LINE",
"372 425 LINE",
"372 517 LINE"
);
}
);
width = 455;
}
);
note = guillemotleft;
unicode = 00AB;
},
{
glyphname = guillemetright;
lastChange = "2024-06-22 13:48:17 +0000";
layers = (
{
hints = (
{
horizontal = 1;
place = "{6, 21}";
target = up;
type = BottomGhost;
},
{
horizontal = 1;
place = "{523, -20}";
target = down;
type = TopGhost;
},
{
place = "{350, 80}";
type = Stem;
}
);
layerId = "5B3AE2B2-6F0E-4414-97DF-6676E601E692";
paths = (
{
closed = 1;
nodes = (
"83 425 LINE",
"350 259 LINE",
"83 92 LINE",
"83 0 LINE",
"424 212 LINE",
"424 305 LINE",
"83 517 LINE"
);
}
);
width = 455;
}
);
note = guillemotright;
unicode = 00BB;
},
{
glyphname = guilsinglleft;
lastChange = "2024-06-22 13:48:17 +0000";
layers = (
{
hints = (
{
horizontal = 1;
place = "{6, 21}";
target = up;
type = BottomGhost;
},
{
horizontal = 1;
place = "{523, -20}";
target = down;
type = TopGhost;
},
{
place = "{31, 80}";
type = Stem;
}
);
layerId = "5B3AE2B2-6F0E-4414-97DF-6676E601E692";
paths = (
{
closed = 1;
nodes = (
"31 305 LINE",
"31 212 LINE",
"372 0 LINE",
"372 92 LINE",
"105 259 LINE",
"372 425 LINE",
"372 517 LINE"
);
}
);
width = 453;
}
);
note = guilsinglleft;
unicode = 2039;
},
{
glyphname = guilsinglright;
lastChange = "2024-06-22 13:48:17 +0000";
layers = (
{
hints = (
{
horizontal = 1;
place = "{6, 21}";
target = up;
type = BottomGhost;
},
{
horizontal = 1;
place = "{523, -20}";
target = down;
type = TopGhost;
},
{
place = "{350, 80}";
type = Stem;
}
);
layerId = "5B3AE2B2-6F0E-4414-97DF-6676E601E692";
paths = (
{
closed = 1;
nodes = (
"83 425 LINE",
"350 259 LINE",
"83 92 LINE",
"83 0 LINE",
"424 212 LINE",
"424 305 LINE",
"83 517 LINE"
);
}
);
width = 455;
}
);
note = guilsinglright;
unicode = 203A;
},
{
glyphname = quotedbl;
lastChange = "2024-06-22 13:48:17 +0000";
layers = (
{
hints = (
{
horizontal = 1;
place = "{516, 234}";
type = Stem;
},
{
place = "{38, 82}";
type = Stem;
},
{
place = "{178, 82}";
type = Stem;
}
);
layerId = "5B3AE2B2-6F0E-4414-97DF-6676E601E692";
paths = (
{
closed = 1;
nodes = (
"38 690 LINE SMOOTH",
"38 636 OFFCURVE",
"46 510 OFFCURVE",
"46 510 CURVE",
"106 510 LINE",
"106 510 OFFCURVE",
"114 636 OFFCURVE",
"114 690 CURVE SMOOTH",
"114 738 LINE",
"38 738 LINE"
);
},
{
closed = 1;
nodes = (
"178 690 LINE SMOOTH",
"178 636 OFFCURVE",
"186 510 OFFCURVE",
"186 510 CURVE",
"246 510 LINE",
"246 510 OFFCURVE",
"254 636 OFFCURVE",
"254 690 CURVE SMOOTH",
"254 738 LINE",
"178 738 LINE"
);
}
);
width = 292;
}
);
note = quotedbl;
unicode = 0022;
},
{
glyphname = quotesingle;
lastChange = "2024-06-22 13:48:17 +0000";
layers = (
{
hints = (
{
horizontal = 1;
place = "{516, 234}";
type = Stem;
},
{
place = "{38, 82}";
type = Stem;
}
);
layerId = "5B3AE2B2-6F0E-4414-97DF-6676E601E692";
paths = (
{
closed = 1;
nodes = (
"38 690 LINE SMOOTH",
"38 636 OFFCURVE",
"46 510 OFFCURVE",
"46 510 CURVE",
"106 510 LINE",
"106 510 OFFCURVE",
"114 636 OFFCURVE",
"114 690 CURVE SMOOTH",
"114 738 LINE",
"38 738 LINE"
);
}
);
width = 152;
}
);
note = quotesingle;
unicode = 0027;
},
{
glyphname = at;
lastChange = "2024-06-22 13:48:17 +0000";
layers = (
{
hints = (
{
horizontal = 1;
place = "{-104, 74}";
type = Stem;
},
{
horizontal = 1;
place = "{78, 70}";
type = Stem;
},
{
horizontal = 1;
place = "{398, 78}";
type = Stem;
},
{
horizontal = 1;
place = "{577, 70}";
type = Stem;
},
{
place = "{48, 82}";
type = Stem;
},
{
place = "{717, 82}";
type = Stem;
},
{
horizontal = 1;
place = "{75, 77}";
type = Stem;
}
);
layerId = "5B3AE2B2-6F0E-4414-97DF-6676E601E692";
paths = (
{
closed = 1;
nodes = (
"506 -110 OFFCURVE",
"578 -83 OFFCURVE",
"634 -37 CURVE",
"585 17 LINE",
"544 -19 OFFCURVE",
"485 -42 OFFCURVE",
"420 -42 CURVE SMOOTH",
"256 -42 OFFCURVE",
"124 94 OFFCURVE",
"124 263 CURVE SMOOTH",
"124 435 OFFCURVE",
"255 571 OFFCURVE",
"420 571 CURVE SMOOTH",
"590 571 OFFCURVE",
"717 435 OFFCURVE",
"717 304 CURVE SMOOTH",
"717 168 OFFCURVE",
"632 136 OFFCURVE",
"600 136 CURVE",
"579 135 OFFCURVE",
"559 148 OFFCURVE",
"563 180 CURVE SMOOTH",
"596 455 LINE",
"530 455 LINE",
"523 395 LINE",
"511 429 OFFCURVE",
"478 464 OFFCURVE",
"413 464 CURVE SMOOTH",
"333 464 OFFCURVE",
"253 390 OFFCURVE",
"238 266 CURVE SMOOTH",
"223 143 OFFCURVE",
"284 69 OFFCURVE",
"365 69 CURVE SMOOTH",
"429 69 OFFCURVE",
"471 104 OFFCURVE",
"492 136 CURVE",
"491 97 OFFCURVE",
"522 72 OFFCURVE",
"575 72 CURVE SMOOTH",
"718 72 OFFCURVE",
"793 184 OFFCURVE",
"793 303 CURVE SMOOTH",
"793 477 OFFCURVE",
"636 635 OFFCURVE",
"421 635 CURVE SMOOTH",
"210 635 OFFCURVE",
"48 478 OFFCURVE",
"48 262 CURVE SMOOTH",
"48 47 OFFCURVE",
"210 -110 OFFCURVE",
"421 -110 CURVE SMOOTH"
);
},
{
closed = 1;
nodes = (
"343 140 OFFCURVE",
"302 184 OFFCURVE",
"312 267 CURVE SMOOTH",
"323 349 OFFCURVE",
"373 392 OFFCURVE",
"422 392 CURVE SMOOTH",
"483 392 OFFCURVE",
"510 336 OFFCURVE",
"502 267 CURVE SMOOTH",
"492 196 OFFCURVE",
"453 140 OFFCURVE",
"391 140 CURVE SMOOTH"
);
}
);
width = 841;
}
);
note = at;
unicode = 0040;
},
{
glyphname = ampersand;
lastChange = "2024-06-22 13:48:17 +0000";
layers = (
{
hints = (
{
horizontal = 1;
place = "{-9, 257}";
type = Stem;
},
{
horizontal = 1;
place = "{662, 81}";
type = Stem;
},
{
place = "{46, 94}";
type = Stem;
},
{
place = "{523, 91}";
type = Stem;
},
{
horizontal = 1;
place = "{-10, 81}";
type = Stem;
},
{
place = "{123, 94}";
type = Stem;
},
{
place = "{436, 94}";
type = Stem;
}
);
layerId = "5B3AE2B2-6F0E-4414-97DF-6676E601E692";
paths = (
{
closed = 1;
nodes = (
"559 120 LINE",
"586 158 OFFCURVE",
"604 199 OFFCURVE",
"608 236 CURVE",
"523 235 LINE",
"519 217 OFFCURVE",
"512 200 OFFCURVE",
"503 183 CURVE",
"354 351 LINE",
"455 390 OFFCURVE",
"524 452 OFFCURVE",
"524 545 CURVE SMOOTH",
"524 652 OFFCURVE",
"426 731 OFFCURVE",
"313 731 CURVE SMOOTH",
"205 731 OFFCURVE",
"123 656 OFFCURVE",
"123 559 CURVE SMOOTH",
"123 501 OFFCURVE",
"147 457 OFFCURVE",
"199 399 CURVE SMOOTH",
"211 386 LINE",
"121 348 OFFCURVE",
"46 294 OFFCURVE",
"46 195 CURVE SMOOTH",
"46 91 OFFCURVE",
"133 -17 OFFCURVE",
"309 -16 CURVE SMOOTH",
"384 -16 OFFCURVE",
"452 15 OFFCURVE",
"503 60 CURVE",
"570 -15 LINE",
"678 -15 LINE"
);
},
{
closed = 1;
nodes = (
"393 656 OFFCURVE",
"436 609 OFFCURVE",
"436 557 CURVE SMOOTH",
"436 485 OFFCURVE",
"388 448 OFFCURVE",
"297 416 CURVE",
"242 478 OFFCURVE",
"211 511 OFFCURVE",
"211 564 CURVE SMOOTH",
"211 618 OFFCURVE",
"253 656 OFFCURVE",
"313 656 CURVE SMOOTH"
);
},
{
closed = 1;
nodes = (
"185 59 OFFCURVE",
"135 142 OFFCURVE",
"134 190 CURVE SMOOTH",
"133 239 OFFCURVE",
"161 283 OFFCURVE",
"268 322 CURVE",
"449 120 LINE",
"404 83 OFFCURVE",
"345 59 OFFCURVE",
"289 59 CURVE SMOOTH"
);
}
);
width = 612;
}
);
note = ampersand;
unicode = 0026;
},
{
glyphname = section;
lastChange = "2024-06-22 13:48:17 +0000";
layers = (
{
hints = (
{
horizontal = 1;
place = "{-160, 77}";
type = Stem;
},
{
horizontal = 1;
place = "{665, 77}";
type = Stem;
},
{
place = "{54, 84}";
type = Stem;
},
{
place = "{387, 88}";
type = Stem;
},
{
place = "{75, 88}";
type = Stem;
},
{
place = "{412, 84}";
type = Stem;
}
);
layerId = "5B3AE2B2-6F0E-4414-97DF-6676E601E692";
paths = (
{
closed = 1;
nodes = (
"456 140 OFFCURVE",
"490 192 OFFCURVE",
"490 251 CURVE SMOOTH",
"490 350 OFFCURVE",
"395 397 OFFCURVE",
"298 460 CURVE SMOOTH",
"219 511 OFFCURVE",
"157 538 OFFCURVE",
"157 591 CURVE SMOOTH",
"157 634 OFFCURVE",
"199 659 OFFCURVE",
"265 659 CURVE SMOOTH",
"334 659 OFFCURVE",
"384 631 OFFCURVE",
"390 567 CURVE",
"474 567 LINE",
"464 656 OFFCURVE",
"386 730 OFFCURVE",
"276 730 CURVE SMOOTH",
"146 730 OFFCURVE",
"75 673 OFFCURVE",
"75 587 CURVE SMOOTH",
"75 513 OFFCURVE",
"126 476 OFFCURVE",
"187 442 CURVE",
"88 424 OFFCURVE",
"54 372 OFFCURVE",
"54 313 CURVE SMOOTH",
"54 214 OFFCURVE",
"149 167 OFFCURVE",
"246 104 CURVE SMOOTH",
"325 53 OFFCURVE",
"387 26 OFFCURVE",
"387 -27 CURVE SMOOTH",
"387 -70 OFFCURVE",
"345 -95 OFFCURVE",
"279 -95 CURVE SMOOTH",
"210 -95 OFFCURVE",
"160 -67 OFFCURVE",
"154 -3 CURVE",
"70 -3 LINE",
"80 -92 OFFCURVE",
"158 -166 OFFCURVE",
"268 -166 CURVE SMOOTH",
"398 -166 OFFCURVE",
"469 -109 OFFCURVE",
"469 -23 CURVE SMOOTH",
"469 51 OFFCURVE",
"418 88 OFFCURVE",
"357 122 CURVE"
);
},
{
closed = 1;
nodes = (
"132 367 OFFCURVE",
"177 404 OFFCURVE",
"244 411 CURVE",
"253 406 OFFCURVE",
"262 401 OFFCURVE",
"271 395 CURVE",
"382 327 OFFCURVE",
"412 288 OFFCURVE",
"412 246 CURVE SMOOTH",
"412 197 OFFCURVE",
"367 160 OFFCURVE",
"300 153 CURVE",
"291 158 OFFCURVE",
"282 163 OFFCURVE",
"273 169 CURVE",
"162 237 OFFCURVE",
"132 276 OFFCURVE",
"132 318 CURVE SMOOTH"
);
}
);
width = 518;
}
);
note = section;
unicode = 00A7;
},
{
glyphname = copyright;
lastChange = "2024-06-22 13:48:17 +0000";
layers = (
{
hints = (
{
horizontal = 1;
place = "{-104, 71}";
type = Stem;
},
{
horizontal = 1;
place = "{66, 80}";
type = Stem;
},
{
horizontal = 1;
place = "{389, 79}";
type = Stem;
},
{
horizontal = 1;
place = "{576, 71}";
type = Stem;
},
{
place = "{48, 83}";
type = Stem;
},
{
place = "{248, 83}";
type = Stem;
},
{
place = "{716, 82}";
type = Stem;
}
);
layerId = "5B3AE2B2-6F0E-4414-97DF-6676E601E692";
paths = (
{
closed = 1;
nodes = (
"651 -110 OFFCURVE",
"792 57 OFFCURVE",
"792 262 CURVE SMOOTH",
"792 468 OFFCURVE",
"654 635 OFFCURVE",
"421 635 CURVE SMOOTH",
"191 635 OFFCURVE",
"48 468 OFFCURVE",
"48 262 CURVE SMOOTH",
"48 57 OFFCURVE",
"191 -110 OFFCURVE",
"421 -110 CURVE SMOOTH"
);
},
{
closed = 1;
nodes = (
"125 428 OFFCURVE",
"237 570 OFFCURVE",
"419 570 CURVE SMOOTH",
"607 570 OFFCURVE",
"716 428 OFFCURVE",
"716 261 CURVE SMOOTH",
"716 97 OFFCURVE",
"603 -45 OFFCURVE",
"419 -45 CURVE SMOOTH",
"238 -45 OFFCURVE",
"125 97 OFFCURVE",
"125 261 CURVE SMOOTH"
);
},
{
closed = 1;
nodes = (
"520 60 OFFCURVE",
"576 118 OFFCURVE",
"595 206 CURVE",
"515 206 LINE",
"506 167 OFFCURVE",
"473 134 OFFCURVE",
"428 134 CURVE SMOOTH",
"361 134 OFFCURVE",
"325 191 OFFCURVE",
"325 257 CURVE SMOOTH",
"325 326 OFFCURVE",
"361 383 OFFCURVE",
"428 383 CURVE SMOOTH",
"473 383 OFFCURVE",
"506 349 OFFCURVE",
"515 310 CURVE",
"594 310 LINE",
"577 398 OFFCURVE",
"521 456 OFFCURVE",
"430 456 CURVE SMOOTH",
"318 456 OFFCURVE",
"248 367 OFFCURVE",
"248 258 CURVE SMOOTH",
"248 149 OFFCURVE",
"318 60 OFFCURVE",
"430 60 CURVE SMOOTH"
);
}
);
width = 840;
}
);
note = copyright;
unicode = 00A9;
},
{
glyphname = trademark;
lastChange = "2024-06-22 13:48:17 +0000";
layers = (
{
hints = (
{
horizontal = 1;
place = "{6, 21}";
target = up;
type = BottomGhost;
},
{
horizontal = 1;
place = "{650, 77}";
type = Stem;
},
{
place = "{240, 91}";
type = Stem;
},
{
place = "{632, 91}";
type = Stem;
},
{
place = "{1301, 91}";
type = Stem;
},
{
horizontal = 1;
place = "{6, 91}";
type = Stem;
}
);
layerId = "5B3AE2B2-6F0E-4414-97DF-6676E601E692";
paths = (
{
closed = 1;
nodes = (
"325 0 LINE",
"325 544 LINE SMOOTH",
"325 579 OFFCURVE",
"322 644 OFFCURVE",
"322 644 CURVE",
"552 644 LINE",
"552 715 LINE",
"11 715 LINE",
"11 644 LINE",
"241 644 LINE",
"241 644 OFFCURVE",
"240 579 OFFCURVE",
"240 544 CURVE SMOOTH",
"240 0 LINE"
);
},
{
closed = 1;
nodes = (
"1053 0 LINE",
"1247 441 LINE SMOOTH",
"1258 465 OFFCURVE",
"1280 517 OFFCURVE",
"1301 570 CURVE",
"1301 0 LINE",
"1386 0 LINE",
"1386 715 LINE",
"1287 715 LINE",
"1075 240 LINE SMOOTH",
"1057 199 OFFCURVE",
"1032 136 OFFCURVE",
"1012 85 CURVE",
"992 136 OFFCURVE",
"967 199 OFFCURVE",
"949 240 CURVE SMOOTH",
"737 715 LINE",
"632 715 LINE",
"632 0 LINE",
"717 0 LINE",
"717 586 LINE",
"740 528 OFFCURVE",
"765 468 OFFCURVE",
"777 441 CURVE SMOOTH",
"971 0 LINE"
);
}
);
width = 1467;
}
);
note = trademark;
unicode = 2122;
},
{
glyphname = degree;
lastChange = "2024-06-22 13:48:17 +0000";
layers = (
{
hints = (
{
horizontal = 1;
place = "{536, 50}";
type = Stem;
},
{
horizontal = 1;
place = "{678, 50}";
type = Stem;
},
{
place = "{6, 53}";
type = Stem;
},
{
place = "{151, 53}";
type = Stem;
}
);
layerId = "5B3AE2B2-6F0E-4414-97DF-6676E601E692";
paths = (
{
closed = 1;
nodes = (
"156 530 OFFCURVE",
"198 571 OFFCURVE",
"198 623 CURVE SMOOTH",
"198 676 OFFCURVE",
"156 716 OFFCURVE",
"102 716 CURVE SMOOTH",
"48 716 OFFCURVE",
"6 676 OFFCURVE",
"6 623 CURVE SMOOTH",
"6 571 OFFCURVE",
"48 530 OFFCURVE",
"102 530 CURVE SMOOTH"
);
},
{
closed = 1;
nodes = (
"73 574 OFFCURVE",
"53 597 OFFCURVE",
"53 623 CURVE SMOOTH",
"53 652 OFFCURVE",
"73 672 OFFCURVE",
"102 672 CURVE SMOOTH",
"130 672 OFFCURVE",
"151 652 OFFCURVE",
"151 623 CURVE SMOOTH",
"151 597 OFFCURVE",
"130 574 OFFCURVE",
"102 574 CURVE SMOOTH"
);
}
);
width = 204;
}
);
note = degree;
unicode = 00B0;
},
{
glyphname = bar;
lastChange = "2024-06-22 13:48:17 +0000";
layers = (
{
hints = (
{
horizontal = 1;
place = "{-160, 21}";
target = up;
type = BottomGhost;
},
{
horizontal = 1;
place = "{722, -20}";
target = down;
type = TopGhost;
},
{
place = "{81, 91}";
type = Stem;
}
);
layerId = "5B3AE2B2-6F0E-4414-97DF-6676E601E692";
paths = (
{
closed = 1;
nodes = (
"81 -166 LINE",
"166 -166 LINE",
"166 716 LINE",
"81 716 LINE"
);
}
);
width = 247;
}
);
note = bar;
unicode = 007C;
},
{
glyphname = dollar;
lastChange = "2024-06-22 13:48:17 +0000";
layers = (
{
hints = (
{
horizontal = 1;
place = "{-10, 81}";
type = Stem;
},
{
horizontal = 1;
place = "{735, -20}";
target = down;
type = TopGhost;
},
{
place = "{72, 94}";
type = Stem;
},
{
place = "{299, 91}";
type = Stem;
},
{
place = "{552, 94}";
type = Stem;
},
{
horizontal = 1;
place = "{660, 151}";
type = Stem;
},
{
horizontal = 1;
place = "{-6, 21}";
target = up;
type = BottomGhost;
},
{
horizontal = 1;
place = "{660, 81}";
type = Stem;
}
);
layerId = "5B3AE2B2-6F0E-4414-97DF-6676E601E692";
paths = (
{
closed = 1;
nodes = (
"640 345 OFFCURVE",
"501 380 OFFCURVE",
"384 409 CURVE",
"384 652 LINE",
"464 640 OFFCURVE",
"521 598 OFFCURVE",
"533 509 CURVE",
"618 508 LINE",
"602 639 OFFCURVE",
"514 717 OFFCURVE",
"384 729 CURVE",
"384 799 LINE",
"299 799 LINE",
"299 729 LINE",
"152 716 OFFCURVE",
"72 641 OFFCURVE",
"72 535 CURVE SMOOTH",
"72 415 OFFCURVE",
"188 374 OFFCURVE",
"299 348 CURVE",
"299 66 LINE",
"219 80 OFFCURVE",
"148 123 OFFCURVE",
"133 235 CURVE",
"48 236 LINE",
"60 93 OFFCURVE",
"156 7 OFFCURVE",
"299 -12 CURVE",
"299 -84 LINE",
"384 -84 LINE",
"384 -16 LINE",
"539 -9 OFFCURVE",
"640 71 OFFCURVE",
"640 195 CURVE SMOOTH"
);
},
{
closed = 1;
nodes = (
"160 602 OFFCURVE",
"214 646 OFFCURVE",
"299 654 CURVE",
"299 431 LINE",
"215 456 OFFCURVE",
"160 487 OFFCURVE",
"160 547 CURVE SMOOTH"
);
},
{
closed = 1;
nodes = (
"551 116 OFFCURVE",
"480 62 OFFCURVE",
"384 59 CURVE",
"384 328 LINE",
"502 297 OFFCURVE",
"553 258 OFFCURVE",
"552 190 CURVE SMOOTH"
);
}
);
width = 674;
}
);
note = dollar;
unicode = 0024;
},
{
glyphname = euro;
lastChange = "2024-06-22 13:48:17 +0000";
layers = (
{
hints = (
{
horizontal = 1;
place = "{-9, 81}";
type = Stem;
},
{
horizontal = 1;
place = "{269, 77}";
type = Stem;
},
{
horizontal = 1;
place = "{410, 77}";
type = Stem;
},
{
horizontal = 1;
place = "{661, 81}";
type = Stem;
},
{
place = "{65, 93}";
type = Stem;
}
);
layerId = "5B3AE2B2-6F0E-4414-97DF-6676E601E692";
paths = (
{
closed = 1;
nodes = (
"493 243 LINE",
"473 115 OFFCURVE",
"415 60 OFFCURVE",
"328 60 CURVE SMOOTH",
"237 60 OFFCURVE",
"175 121 OFFCURVE",
"157 263 CURVE",
"355 263 LINE",
"355 334 LINE",
"152 334 LINE",
"152 356 LINE SMOOTH",
"152 373 OFFCURVE",
"152 389 OFFCURVE",
"153 404 CURVE",
"355 404 LINE",
"355 475 LINE",
"161 475 LINE",
"183 601 OFFCURVE",
"242 655 OFFCURVE",
"328 655 CURVE SMOOTH",
"409 655 OFFCURVE",
"465 606 OFFCURVE",
"489 495 CURVE",
"576 494 LINE",
"545 655 OFFCURVE",
"456 730 OFFCURVE",
"327 730 CURVE SMOOTH",
"195 730 OFFCURVE",
"101 649 OFFCURVE",
"74 475 CURVE",
"11 475 LINE",
"11 404 LINE",
"66 404 LINE",
"65 389 OFFCURVE",
"65 373 OFFCURVE",
"65 357 CURVE SMOOTH",
"65 334 LINE",
"11 334 LINE",
"11 263 LINE",
"70 263 LINE",
"93 73 OFFCURVE",
"189 -15 OFFCURVE",
"327 -15 CURVE SMOOTH",
"462 -15 OFFCURVE",
"554 67 OFFCURVE",
"580 243 CURVE"
);
}
);
width = 628;
}
);
note = Euro;
unicode = 20AC;
},
{
glyphname = plus;
lastChange = "2024-06-22 13:48:17 +0000";
layers = (
{
hints = (
{
horizontal = 1;
place = "{6, 21}";
target = up;
type = BottomGhost;
},
{
horizontal = 1;
place = "{225, 76}";
type = Stem;
},
{
horizontal = 1;
place = "{523, -20}";
target = down;
type = TopGhost;
},
{
place = "{304, 77}";
type = Stem;
},
{
horizontal = 1;
place = "{224, 77}";
type = Stem;
},
{
place = "{305, 76}";
type = Stem;
}
);
layerId = "5B3AE2B2-6F0E-4414-97DF-6676E601E692";
paths = (
{
closed = 1;
nodes = (
"375 289 LINE",
"375 517 LINE",
"304 517 LINE",
"304 289 LINE",
"81 289 LINE",
"81 218 LINE",
"305 218 LINE",
"305 0 LINE",
"375 0 LINE",
"375 219 LINE",
"598 219 LINE",
"598 289 LINE"
);
}
);
width = 680;
}
);
note = plus;
unicode = 002B;
},
